<svg xmlns="http://www.w3.org/2000/svg" width="765.572" height="1148.577" viewBox="0 0 765.572 1148.577"><path d="M261.5,826.575c-6.85-2.218-13.033-5.792-19.193-9.424A72.536,72.536,0,0,1,261.5,826.575ZM3.159,601.475c1.207-2.126,2.735-3.965,2.965-6.643.184-2.23,2.069-3.77,4.16-4.333a58.406,58.406,0,0,1,11.125-2.322c13.067-.885,25.928,1.368,38.674,3.724A514.022,514.022,0,0,1,126.03,608.75c27.663,9.01,54.867,19.09,80.243,33.559,9.849,5.62,19.021,12.113,26.733,20.515,3.563,3.885,6.493,8.206,7.172,13.458a10.594,10.594,0,0,0,3.655,6.781,156.872,156.872,0,0,1,18.538,20.308,258.324,258.324,0,0,1,25.365,42.868c2.391,5,4.6,10.091,7,15.079.448.931,1.6,2.368,2.138,2.253,2.689-.563,5.746-.184,7.827-2.747,3.965-4.907,9.378-5.436,15.125-4.632,3.816.529,3.8.6,4.666-3.161a22.227,22.227,0,0,0,.506-2.23c1.161-9.838,2.276-19.687,3.448-29.525.207-1.724-.069-2.8-2.069-3.344-8.355-2.287-13.964-8.355-19.377-14.6-2.632-3.023-4.976-6.287-7.608-9.321a305.655,305.655,0,0,1-31.835-43.4c-9.918-16.653-18.423-33.927-22.469-53.063a55.168,55.168,0,0,0-6.6-17.584c-.23-.391-.092-1-.149-1.712a18.635,18.635,0,0,1,4.884,6.275,98.974,98.974,0,0,0,32.387,37.95q12.481,8.654,24.779,17.584c11.366,8.229,21.8,17.435,29.755,29.169,1.356,2,2.965,3.839,4.655,6.011,2.034-10.953,3.988-21.377,5.884-31.812a10.356,10.356,0,0,0,.08-3.367,40.754,40.754,0,0,0-12.309-24.009c-2.735-2.6-5.172-5.517-7.746-8.3a22.568,22.568,0,0,1,4.229,2.574c6.022,5.85,12.205,11.608,15.918,19.423-.793-15.423-7.4-28.215-18.6-39.846,8.206,3.758,16.676,17.584,21.055,32.732-.218-9.068-2.908-17.607-5.8-26.1-2.954-8.666-9.413-14.906-16.09-22.181,8.24,3.85,15.584,14.424,21.837,30.065-.333-5.712-2.735-10.953-3.862-16.527,3.448,4.126,4.413,9.252,6.126,14.849a10.756,10.756,0,0,0,.3-2.356c-4.091-21.917-13.837-40.328-33.088-52.706a38.782,38.782,0,0,0-21.1-6.425c-9.344-.011-18.687.6-28.031.885-2.85.092-5.7.012-9.447.012,1.517,1.287,2.276,2.034,3.149,2.655,8.4,5.965,14.768,13.929,20.515,22.227a112.6,112.6,0,0,0,28.985,29.02c3.459,2.379,6.827,4.9,10.1,7.516a35.013,35.013,0,0,1,3.781,4.126,15.462,15.462,0,0,1-3.023-1.3c-3.6-2.517-7.034-5.287-10.688-7.7-11.6-7.654-21.974-16.561-29.686-28.284-1.471-2.23-3.138-4.333-4.735-6.482-4.229-5.7-10.022-7.459-16.722-6.206A52.18,52.18,0,0,0,246,560.756c-8.482,3.471-16.86,7.137-25.848,9.194a42.766,42.766,0,0,0-24.032,14.688c-2.069,2.505-4.39,4.8-6.7,7.1a95.54,95.54,0,0,1-8.3,7.861c-3.609,2.8-7.758,4.632-12.9,3.954a2.853,2.853,0,0,1,1.7-1.425,18.74,18.74,0,0,0,8.8-7.953c2.6-4.436,5.229-8.861,7.4-13.5,4.517-9.666,7.884-19.883,14.964-28.25,9.8-11.585,25.664-19.641,42.466-14.458,6.9,2.126,13.6,2.08,20.365,1.517,9.493-.793,18.825-2.092,28.468-1.034,14.113,1.54,25.48,7.942,34.778,18.055,12.113,13.171,18.791,29.1,21.733,47.1,1.3-5.057,2.609-9.643,3.586-14.286.264-1.276-.184-3.816-.759-3.954-2.712-.667-2.3-2.563-2.528-4.448-.4-3.4-1.126-6.769-1.552-10.171-.655-5.287-1.241-10.585-1.712-15.895-.437-4.839,1.781-8.114,6.4-9.608a62.329,62.329,0,0,1,8.229-2.264c3.563-.621,6.011-2.1,6.505-5.965.207-1.632,1.368-3.655.759-4.77-1.586-2.919-2.448-6.723-6.62-7.562-1.057-.207-1.977-1.126-2.965-1.712-12.343-7.413-21.8-17.906-30.732-28.939a64.229,64.229,0,0,0-18.343-15.4,26.02,26.02,0,0,0-12.056-3.161c-4.8-.218-8.723,1.77-13.067,4.459.529-2.931,2.609-3.528,4.069-4.413,5.769-3.517,11.907-6.517,18.883-5.333a101.3,101.3,0,0,1,25.641,7.827c4.9,2.264,9.941,4.206,15.136,6.39-2.333-5.54-2.505-5.367-7.643-10.608a21.619,21.619,0,0,0-12-6.114c-7.482-1.391-14.883-3.287-22.411-4.333-6.022-.839-12.148-1.149-18.009,1.678-5.494,2.643-11.114,5.1-16.849,7.206-15.676,5.746-32.261,7.367-48.546,10.378-11.849,2.184-23.411,5.126-34.134,10.976a69.976,69.976,0,0,0-31.077,34.145c-6.6,14.941-9.252,30.606-6.447,46.937a14.705,14.705,0,0,1-.391,3.264c-.782-1.494-1.333-2.126-1.437-2.816-1.345-9.229-2.873-18.435-3.793-27.709-.391-3.908.678-7.953.9-11.941a88.622,88.622,0,0,1,5.528-25.618C162.014,481,181.609,459.71,207.4,443.7a136.262,136.262,0,0,1,24.273-11.585c.873-.333,2.528,0,1.965-1.965-1.241-4.379-2.126-8.873-3.643-13.148-1.253-3.54,0-6.057,3.77-5.769,1.839.138,3.6,1.138,5.413,1.678a5.622,5.622,0,0,0,1.586.023,3.866,3.866,0,0,0-.2-1.494,71.32,71.32,0,0,0-21.377-22.756,354.975,354.975,0,0,1-37.651-29.939,125.221,125.221,0,0,1-19.86-22.181c-1.46-2.138-2.115-1.931-3.551.034a28.439,28.439,0,0,1-11.183,8.769,74.618,74.618,0,0,1-11.665,4.758c-6.08,1.667-9.01,5.769-11.01,11.332a88.35,88.35,0,0,1-5.654,11.815A44.2,44.2,0,0,1,114.5,378.7c2.057-.368,3.54-.69,5.034-.885,8.941-1.115,17.722-2.816,25.664-7.4a14.209,14.209,0,0,1,3.666-1.6,5.084,5.084,0,0,1,6.528,4.609,17.337,17.337,0,0,1-.2,4c-.678,5.287-1.322,10.585-2.161,15.849-.575,3.563-1.333,7.114-2.23,10.608a12.113,12.113,0,0,1-6.333,7.758c-1.965,1.08-4.137,2.4-5.287,4.206-2.942,4.62-7.332,6.539-12.251,7.735a89.732,89.732,0,0,1-9.5,1.908,4.859,4.859,0,0,1-3.471-1.011c-5.4-4.839-11.286-9.332-15.78-14.941a24.356,24.356,0,0,0-12-8.114c-1.965-.655-4.436-1.184-5.563-2.643-1.908-2.482-4.16-2.379-6.631-2.276-9.459.4-18.159-2.264-26.273-6.85C37.04,383.616,30.19,374.387,29.041,362.3c-1.7-17.963,1-35.444,9.263-51.775,1.287-2.551,2.574-5.114,3.919-7.8a40.121,40.121,0,0,1-15.412-8.8,11.418,11.418,0,0,1-3.931-9.137c-.012-5.735,3.138-10.125,5.586-14.837,1.839-3.551,4.1-6.919,5.6-10.6,1.7-4.195,3.885-7.919,7.528-10.573a7.761,7.761,0,0,0,3.436-5.654c.276-2.264.644-4.517,1-6.769.988-6.218,1.552-12.55,6.516-17.331a6.646,6.646,0,0,0,1.632-4.057,24.989,24.989,0,0,0-.448-7.413,34.972,34.972,0,0,1,1.506-20.814c2.885-7.792,7.712-13.895,15.4-17.7A196.539,196.539,0,0,1,107.572,155.1c14.826-3.908,29.824-6.735,45.259-3.678a4.68,4.68,0,0,0,1.643-.264,6.176,6.176,0,0,0-.586-2.034c-1.483-1.988-3.011-3.954-4.655-5.815-8.344-9.459-16.4-19.216-26.388-27.077q-2.017-1.586-4.034-3.2c-1.034,1.46-2.161,2.862-3.08,4.39-1.517,2.54-3.988,4.114-6.6,3.862-3.069-.3-4.114-3.471-4.333-6.08a36.765,36.765,0,0,0-5.827-17.078c-3.367-5.321-1.414-9.574,4.861-12.159,4.367-1.8,7.264,0,9.137,5.655a4.712,4.712,0,0,1,.46,1.655c-.563,7.47,4.126,10.815,9.941,14.09,11.091,6.252,20.09,15.205,28.939,24.239,1.1,1.126,2.241,2.207,3.367,3.3a7.865,7.865,0,0,0-1.85-3.666Q134.3,103.971,114.824,76.687c-1.138-1.586-1.885-2.942-4.482-2.172-3.092.908-5.471-1.207-7.321-3.505a85.405,85.405,0,0,1-5.356-7.447c-4.884-7.608-7.654-15.895-6.723-24.986A32.736,32.736,0,0,1,94,27.7c1.7-3.482,4.735-3.241,6.39.241a17.925,17.925,0,0,1,2,7.091c.092,5.264,2.368,9.493,4.988,13.8a45.655,45.655,0,0,1,5.195,10.746,29.027,29.027,0,0,0,6.08,10.826c2.471,2.919,5.08,5.723,7.413,8.746q23.221,30.221,46.316,60.556c3.356,4.413,6.3,9.125,9.585,13.585,2.345,3.172,3.034,3.287,6.827,2.115,2.735-.839,5.448-1.781,8.194-2.586,1.184-.345,1.506-.873,1.034-2.023-.437-1.057-.747-2.161-1.092-3.264-3.62-11.47-7.321-22.917-10.815-34.421-1.6-5.264-1.4-5.3-6.436-2.609-3.643,1.954-7.47,3.034-11.55,1.54-4.252-1.563-5.287-5.218-2.241-8.574a17.157,17.157,0,0,1,5.425-4.1,145.647,145.647,0,0,1,13.872-5.333c3.839-1.264,3.931-1.069,3.264-5.356-.356-2.264-.655-4.54-1.2-6.758-2.092-8.712-4.1-17.446-6.528-26.066a15.879,15.879,0,0,0-4.16-6.585c-3.931-3.908-4.252-5.689.115-9.171a10.043,10.043,0,0,0,3.689-6.149,13.532,13.532,0,0,1,5.011-7.482c1.689-1.414,3.184-1.1,4.425.506a6.645,6.645,0,0,1,1.609,2.988c.414,4.333,3.023,6.287,6.953,7.1a7.576,7.576,0,0,1,2.08.965c5.183,3.057,5.39,5.976.69,9.62a1.817,1.817,0,0,1-.483.31c-2.517.839-2.885,2.758-2.586,5.045.828,6.241,1.287,12.55,2.54,18.7q5.344,26.049,11.252,51.971c1.6,7.057,3.724,14.01,5.758,20.963.333,1.126,1.632,2.988,2.092,2.885,3.069-.713,5.574.862,8.321,1.46,3.229.713,4.011.034,4.218-3.39.69-11.424,1.218-22.871,2.149-34.272a209.815,209.815,0,0,1,2.793-22.112A374.533,374.533,0,0,1,255.026,24.75c.85-2.218,1.471-4.517,2.207-6.781-1.149.529-1.552,1.494-2.276,2.023-.977.724-2.39,1.758-3.264,1.494a4.353,4.353,0,0,1-2.23-2.942,9.461,9.461,0,0,1,1.368-7.1A44.215,44.215,0,0,1,260.968-.04h8.045a29.751,29.751,0,0,0,2.264,2.54,14.766,14.766,0,0,1,4.39,9.137,7.805,7.805,0,0,1-2.77,7.712c-2.528,1.942-5.126,1.379-7.344-.483-2.115-1.758-2.46-.115-2.954,1.276a344.461,344.461,0,0,0-12.78,45.719c-1.138,5.563-1.781,11.229-2.609,16.665,2.885-3.919,5.735-7.838,8.666-11.711.816-1.08,1.494-1.735.586-3.413-2.609-4.85-1.483-8.309,3.528-9.849a30.736,30.736,0,0,1,10.688-1.138c4.091.241,7.367,3.344,7.528,6.723.322,6.712-2.126,12.366-7.62,16.4-2.482,1.827-4.517.759-4.609-2.31a50.992,50.992,0,0,1,.655-6.264A56.117,56.117,0,0,0,253.2,96.11c-1.85,7.378-3.31,14.883-4.448,22.411-.8,5.321-.782,10.769-1.207,17.343,2.712-3.252,4.505-5.712,6.6-7.873,9.838-10.16,21.837-16.584,35.433-20.124,10.884-2.839,21.848-5.39,32.709-8.321,6.436-1.735,12.677-4.241,19.136-5.861a45.667,45.667,0,0,1,13.539-1.712c7.758.46,12.539,5.9,16.584,11.93,2.666,3.965,5.16,8.045,7.838,12,2.391,3.54,5.8,5.7,10.091,5.632,7.263-.138,12.9,3.092,17.768,7.976,4.321,4.333,8.367,8.93,12.665,13.274a10.8,10.8,0,0,0,4.252,2.666c4.54,1.4,9.378,2.023,13.723,3.85a90.425,90.425,0,0,1,17.2,8.93c7,4.93,9.4,12.251,2.827,20.227-2.609,3.161-5.907,5.735-9.079,8.758,1.689,1.092,3.413,2.253,5.183,3.344A124.227,124.227,0,0,1,482.3,213.74c5.643,6.379,9.907,13.527,11.481,22.1a17.9,17.9,0,0,1-2.414,12.585c-2.643,4.643-7.218,6.746-11.516,9.137a42.763,42.763,0,0,0-16.171,15.86c-5.137,8.562-7.332,17.952-8.367,27.709-1.414,13.343-9.482,20.549-21.135,23-6.93,1.46-13.711.85-20.469-.379-6.045-1.1-11.941-3.046-16.676-7.16-2.551-2.218-4.574-5.068-6.758-7.7a1.536,1.536,0,0,1,0-1.494c.253-.287.988-.241,1.494-.207a2.974,2.974,0,0,1,1.046.448c6.3,3.333,11.608,1.758,16.642-2.873,3.6-3.3,7.62-6.16,11.5-9.263-2.46-1.253-5.229-2.253-7.516-3.908-9.872-7.172-21.331-9.206-33.019-9.838-8.367-.46-16.676-.425-24.342-4.816.977,10.125,2,19.768,2.827,29.422.781,9.114,1.678,18.251,1.919,27.388.2,7.229-.713,14.493-.8,21.733a105.96,105.96,0,0,1-3.643,24.859c-1.873,7.4-4.034,14.78-9.263,20.745-4.827,5.505-10.332,9.62-18.193,9.183-2.839-.161-5.7-.023-9.183-.023,23.514,34.789,41.156,72,56.729,110.7a22.336,22.336,0,0,0,1.138-2.023,404.573,404.573,0,0,1,37.685-73.313c1.965-3.046,4.206-5.919,6.195-8.953a2.958,2.958,0,0,0,.023-2.126c-2.977-.736-2.977-2.988-3.161-5.39-.379-4.781-1.7-6.436-6.3-7.516a40.772,40.772,0,0,0-30.353,4.528c-4.379,2.494-7.758,6.126-10.884,10.022a4.877,4.877,0,0,1-1.368.827c-.08-.7-.437-1.517-.2-2.069,2.459-5.574,5.045-11.091,7.539-16.653,2.425-5.425,6.034-9.688,11.539-12.182,5.333-2.414,10.93-3.758,16.734-2.9,7.884,1.161,14.711,4.574,18.573,11.872a14.9,14.9,0,0,0,4.586,5.494c3.138,2.276,3.149,2.368,5.448-1,8.068-11.826,15.8-23.882,24.905-34.961,5.218-6.344,10.275-12.815,15.515-19.136,1.345-1.621,1.483-2.505-.1-4.229-5.367-5.838-6.149-12.815-4.505-20.354,2.609-11.964,8.183-22.572,14.573-32.835a296.107,296.107,0,0,1,35.191-45.167c15.791-16.941,32.318-33.134,51.12-46.834,9.907-7.218,19.8-14.412,31.077-19.388,7.206-3.172,14.539-5.873,22.675-5.08,4.884.471,9.114,3.356,8.712,7.4-.333,3.321,1.31,4.241,3.229,5.781,8.125,6.5,5.976,13.516.092,18.906-.276.253-.667.391-.954.644-4.586,4.034-9.344,7.907-13.7,12.182s-8.424,8.873-12.412,13.516c-7.85,9.114-15.607,18.262-22.158,28.456q-14.86,23.152-30.778,45.6c-7.873,11.033-16.527,21.48-27.1,30.238a82.515,82.515,0,0,1-30.617,16.285,19.049,19.049,0,0,1-12.378-.276c-3.413-1.368-3.4-1.46-5.85,1.437-.9,1.057-1.7,2.172-2.689,3.459,5.723-1.092,10.9-2.563,16.136-2.988,9.9-.8,18.791,2.77,27.123,7.723,4.436,2.632,8.712,5.551,12.93,8.528a42.768,42.768,0,0,0,13.975,6.344,36.675,36.675,0,0,1,8.942,3.62c12.987,7.493,17.917,25.238,16.5,37.329-.621,5.3-1.391,10.573-1.85,15.883a33.725,33.725,0,0,0,4.827,20.538,20.453,20.453,0,0,1-9.5-11.527,71.144,71.144,0,0,1-3.379-12.125c-1.425-8.9-5.632-16.044-12.056-22.216-3.85-3.689-7.275-7.838-10.849-11.815-2.8-3.126-5.287-6.608-8.378-9.4-4.873-4.39-10.47-6.172-16.722-2.54-.655.379-1.379.655-2.069.977-9.861,4.747-19.94,8.493-31.065,9.229-6.988.471-13.906,2.034-20.86,3.115l-7.309,1.138c5.333-3.287,11.493-3.494,17.389-4.689,9.114-1.85,18.618-1.816,27.422-5.149,5.517-2.092,10.884-4.609,16.3-6.976,7.367-3.218,14.918-5.758,23.181-6.6-6.861-4.31-13.435-8.758-20.308-12.688-14.734-8.424-29.824-8.562-44.753-.632a82.8,82.8,0,0,0-14.619,9.907c-3.517,2.988-6.114,7.057-9.321,10.9,3.115.471,4.655-1.218,6.436-2.6a49.088,49.088,0,0,1,19.561-9.01,6.3,6.3,0,0,1,3.321.46c-13.78,2.781-24.193,10.355-33.18,22.423,5.505-2.632,8.551-7.022,14.872-7.965-6.861,5.367-13.883,8.976-17.4,16.147,3.781-1.218,7.47-2.4,11.171-3.6-1.942,1.172-3.919,2.264-5.8,3.528-2.057,1.368-4.517,2.517-5.907,4.413-3.908,5.344-7.355,11.033-11.5,17.389,11.033-.667,20.791.425,30.1,4.448,9.4,4.068,20.986,12.608,24.009,18.354-1.747-1.034-2.988-1.758-4.218-2.494-7.689-4.666-15.768-4.471-23.514-.8a121.953,121.953,0,0,0-22.492,13.677c-9.3,7.172-12.952,6.459-20.94-2.954-10.056,19.2-19.676,38.363-27.928,59.717,1.8-1.483,2.471-2.092,3.207-2.62.77-.563,1.586-1.057,2.4-1.552,4.321-2.563,4.264-2.62,3.344-7.746a12.279,12.279,0,0,1,.023-5.563c4.183-13.5,12.47-23.411,25.664-29.088,12.458-5.367,25.273-5.287,38.237-2.977,17.5,3.126,33.686,9.769,48.868,18.929,3.459,2.08,6.85,4.264,10.8,6.735a34.421,34.421,0,0,0-6.643-18.055c-1.057-1.437-2.276-2.425-2.735.517-.092.563-.816,1.034-1.241,1.54a9.154,9.154,0,0,1-1.069-1.781c-1.437-4.321-1-8.608-.08-13,1.575-7.5,7.31-12.585,14.918-12.4a24.515,24.515,0,0,1,17.458,7.562A40.27,40.27,0,0,0,561.3,484.685c9.367,1.712,18.814,2.954,28.18,4.689,2.85.529,4.816.609,6.988-1.885,2.908-3.344,7.045-3.666,11.125-2.2a20.891,20.891,0,0,1,12.665,11.78A48.7,48.7,0,0,1,624.2,514.3a121.262,121.262,0,0,0,1.379,17.113c1.448,8.148.31,15.952-1.7,23.767a16.445,16.445,0,0,0-.241,2.62,24.966,24.966,0,0,0,2.643-.759,77.293,77.293,0,0,1,30.134-5.93,97.5,97.5,0,0,1,22.675,2.77c2.414.586,2.126-.207,1.529-1.873a87.139,87.139,0,0,1-3.161-9.769c-.678-2.954.069-5.976,2.873-7.482s6.091-1.586,8.62.678a28.647,28.647,0,0,1,5.459,6.539,24.283,24.283,0,0,1,3.172,14.906c-.287,3.161.885,4.689,3.643,6.206a84,84,0,0,1,27.008,22.733c5.3,6.965,10.746,13.539,18.124,18.722,9.815,6.9,16.4,16.607,18.389,28.732a70.415,70.415,0,0,1-1.505,28.951c-2.414,9.585-8,16.768-15.286,22.986-3.2,2.724-6.321,5.551-9.344,8.459-2.356,2.264-4.494,4.643-3.207,8.482.448,1.345-.689,2.011-2.126,1.529a6.877,6.877,0,0,1-4.827-7.034,32.355,32.355,0,0,1,.874-5.057c1.161-6.459-.264-11.757-6.585-14.952a44.093,44.093,0,0,1-6.448-3.712c-2.747-2.057-5.022-1.689-7.723.172-9.459,6.482-19.032,12.792-28.606,19.124-9.045,5.976-18.354,11.458-29.318,14.872,11.033,3.241,19.1,9.6,26.054,17.837,9.5,11.3,15.895,24.239,21.009,37.9a96.935,96.935,0,0,1,6.218,25.5,18.481,18.481,0,0,1-5.011,14.688c-2.046,2.2-4.908,3.379-7.815,1.747-2.184-1.23-4.034-1.667-6.448-.713a14.167,14.167,0,0,0-5.965,4.137,42.787,42.787,0,0,1-8.367,7.677c-2.655,1.839-5.62,3.034-7.309,6.114a6.45,6.45,0,0,1-3.574,2.712c-7.3,2.2-11.665,7.608-15.78,13.516a105.38,105.38,0,0,1-8.252,10.263c-2.414,2.689-5.482,3.494-8.769,1.414-4.195-2.655-8.413-5.275-12.412-8.183-1.827-1.322-2.574-1.448-3.7.713a108.389,108.389,0,0,1-16.573,23.308,169.9,169.9,0,0,1-51.086,38.375,55.179,55.179,0,0,0-5.953,3.39c-5.643,3.678-8.321,3.62-14.113-.218-6.356-4.206-12.78-8.321-19.193-12.435a2.9,2.9,0,0,0-2.057-.586c-4.011,1.425-7.126-.736-10.1-2.678a15.179,15.179,0,0,0-8.62-2.471c-2.425-.023-5.172-.1-7.206-1.218a33.236,33.236,0,0,1-13.642-13.573,12.809,12.809,0,0,1-.759-10.033c.632-2.1,1.391-3.287,4.436-2.908,7.367.9,11.424-3.425,11.022-10.941-.218-3.988-.667-7.976-1.184-11.953a10.473,10.473,0,0,0-1.379-2.908,12.5,12.5,0,0,0-2.9,1.482c-4.988,4.459-10.091,8.815-14.791,13.573-9.689,9.781-19.216,19.733-28.709,29.721q-19.17,20.17-38.191,40.478c-.609.655-1.149,1.379-2.3,2.758,1.77-.3,2.689-.356,3.551-.609a143.1,143.1,0,0,1,32.169-4.907c9.861-.471,19.733-1.46,29.721-.7,9.148.69,18.32,1.207,27.284,2.988,31.456,6.275,60.82,17.8,87.22,36.26,15.033,10.5,28.135,22.917,37.478,38.938a74.517,74.517,0,0,1,10.1,30.2c1.368,13.4-1.391,26.238-6.608,38.57a49.829,49.829,0,0,1-2.643,4.781,7.9,7.9,0,0,1-.034-4.62c.77-4.31,1.965-8.6,2.149-12.93.758-17.492-6.482-31.95-18.113-44.374-9.861-10.527-22.147-17.5-35.49-22.653a185.357,185.357,0,0,0-42.685-10.424q-18.981-2.5-37.881-5.517c-10.907-1.735-21.859-3.367-32.617-5.838-9.654-2.207-19.136-5.264-28.56-8.355a68.019,68.019,0,0,0-28.307-2.8c-5.861.586-11.654,1.735-17.492,2.632.437.3,1.023.747,1.655,1.126,13.332,8.033,25.767,17.366,36.352,28.7,9.1,9.746,17.32,20.377,25.342,31.065a177.074,177.074,0,0,1,24.7,45.121c7.574,20.5,10.39,41.777,10.815,63.452.115,5.7-.69,11.424-.9,17.136a31.754,31.754,0,0,0,.034,5.057,4.3,4.3,0,0,0-.862,2.655H458.3s-.023-.057-.034-.08c3.184-.253,2.8-1.391,1.207-6.563-3.632-11.711-10.125-21.8-17.86-31.1-12.861-15.469-27.422-29.25-42.891-42.11q-22.463-18.67-44.8-37.5c-5.988-5.034-11.838-10.24-17.78-15.331a9.032,9.032,0,0,0-1.942-.977,5.679,5.679,0,0,0-.621,1.988c.517,5.884,1.1,11.757,1.7,17.63.46,4.551,1,9.091,1.425,13.642,1.264,13.47,2.322,26.974,3.758,40.432,1.172,10.976,2.781,21.917,4.172,32.87.862,6.8,1.816,13.608,2.436,20.434.184,1.977-.506,4.034-.9,6.264a4.04,4.04,0,0,0-.965.391H334.487a5.184,5.184,0,0,0-.885-.85c.253-.379-.967-.512-.714-.857-.775-1.79-.78-1.154-.976-2.717-.471-3.781-1.08-7.551-1.586-11.321-1.011-7.551-2.034-15.1-2.965-22.664s-1.77-15.148-2.62-22.721c-1.046-9.275-2.138-18.55-3.046-27.836-.6-6.08-.333-12.3-1.552-18.228-1.011-4.942-.552-9.941-2.425-14.987-1.954-5.264-5.068-7.344-9.654-8.275a73.821,73.821,0,0,0-11.918-1.276c-10.332-.414-20.561.827-30.812,2.092-12.93,1.586-24.859,5.333-35.9,12.389-9.654,6.172-17.136,13.826-20.975,24.813-3.23,9.252-4.666,18.848-6.022,28.479-1.034,7.356-2.126,14.7-3.505,21.986a31.405,31.405,0,0,1-8.9,16.343c-9.62,9.815-21.342,15.952-34.111,20.411a70.667,70.667,0,0,1-7.735,1.988c-.425.092-.988-.379-1.483-.586a8.406,8.406,0,0,1,1.011-1.264,2.07,2.07,0,0,1,1.069-.345c7.827-.965,13.309-5.459,17.308-11.884a58.145,58.145,0,0,0,7.355-17.952c1.092-4.827,2.046-9.688,3.2-14.5,3.31-13.883,6.93-27.7,9.93-41.639,1.517-7.034,2.678-14.194.965-21.538a134.752,134.752,0,0,1-2.425-16.389c-.8-7.62.46-14.78,4.988-21.262,5.712-8.183,13.814-13.079,22.7-16.872,11.217-4.781,23.158-6.4,35.191-6.827,16.55-.586,31.571,4.861,45.454,13.47,10.93,6.781,19.848,15.5,24.641,27.939-.161-6.057-.517-12.068-1.149-18.055-.126-1.161-1.287-2.264-2.115-3.275a45,45,0,0,1-8.091-13.768c-3.011-8.62-1.172-15.366,6.241-20.7,2.459-1.77,2.942-3.586,2.919-6.218-.1-8.229.276-16.481-.161-24.687-.724-13.746-.149-14.113-13.516-19.078-14.458-5.367-29.755-6.482-44.96-7.873-13.585-1.241-26.054,2.977-38.2,8.252a34.954,34.954,0,0,0-8.872,6.195c-7.309,6.482-12.033,14.768-15.722,23.687-3.643,8.827-7.1,17.722-10.826,26.514-2.322,5.471-5.022,10.815-9.769,14.665A65.219,65.219,0,0,1,151.59,992.74c-7.723,2.39-15.676,3.126-23.572,4.229-2.551.356-5.356.7-7.562-1.529.379-.23.644-.529.942-.563a18.327,18.327,0,0,1,2.862-.115c8.735.494,15.63-3.425,21.193-9.585a70.262,70.262,0,0,0,8.482-12.194c3.138-5.459,5.677-11.252,8.608-16.826,6.045-11.5,12.3-22.905,18.239-34.456a61.185,61.185,0,0,0,6.39-18.906c.988-6.6,1.586-13.251,2.356-19.871a29.208,29.208,0,0,1,13.286-21.745c9.39-6.344,20.078-8.16,31-8.781,8.792-.494,17.492,1.023,26.1,2.85q3.448.724,6.9,1.46c-12.01-9.769-24.112-19.113-36.593-27.939-6.367-4.505-13.067-8.872-20.216-11.9-18.94-8.022-38.708-12.757-59.476-12.7-8.792.023-17.1,1.391-24.526,6.425-.264.172-.827-.1-1.758-.241a29.223,29.223,0,0,1,2.517-2.207c23.457-15.849,49.684-20.032,77.221-17.573a164.071,164.071,0,0,1,32.479,6.459c16.929,5.068,33.26,11.527,47.868,21.572,7.344,5.045,14.044,11.033,20.871,16.458A449.184,449.184,0,0,0,288.734,783.9c-3.609-9.091-6.114-10.826-15.872-10.562-4.884.126-9.677-.253-13.8-2.942a71.265,71.265,0,0,1-10.849-8.378c-5.494-5.31-10.39-11.229-15.895-16.527-4.942-4.758-10.539-7.872-17.435-3.252-.437.287-1.287-.057-1.954-.1a6.013,6.013,0,0,1,1-1.908,27.934,27.934,0,0,1,12.125-6.195,51.281,51.281,0,0,1,30.916,2.529c5.045,1.977,9.8,4.7,14.6,7.034a1.605,1.605,0,0,0-.069-.77A165.038,165.038,0,0,0,250.279,711.6a39.583,39.583,0,0,0-12.068-9.562c-2.23-1.1-3.931-1.2-5.287,1.2-3.482,6.114-9.252,8.735-15.722,10.5-11.918,3.253-23.94,2.23-35.846.644a313.143,313.143,0,0,1-51.764-11.918A389.809,389.809,0,0,1,48.9,667.123c-12.4-7.229-24.193-15.458-34.157-25.928C8.664,634.8,3.3,627.921.918,619.071a22.455,22.455,0,0,1,2.23-17.665Zm245.615-58.407c-16.182-8.424-32.893-2.023-42.443,7.3a61.887,61.887,0,0,0-12.3,17.814c-4.862,10.022-8.217,20.791-15.021,29.882,5.425-2.954,8.873-7.838,12.274-12.5a47.143,47.143,0,0,1,30.192-19.147c9.62-1.873,18.239-6.206,28.33-10.183-9.183-.379-15.975,4.551-23.79,4.793a80.733,80.733,0,0,1,26.146-8.861c-22.538-4.781-39.1,4.482-52.488,22.181,1.069-6.528,11.183-15.8,22.342-21.457a47.076,47.076,0,0,1,31.146-4.183c-9.1-4.39-18.618-3.241-28.146-2.23,7.309-4.678,15.561-2.862,23.744-3.413ZM548.44,420.186c6.114,5.517,11.677,11.47,15.814,18.653-1.034-14.7-7.482-26.181-20.17-33.961a9,9,0,0,0-2.057-1.011,11.212,11.212,0,0,0-2.161-.241,6.946,6.946,0,0,0,.793,1.781c.724.885,1.666,1.575,2.425,2.448a125.242,125.242,0,0,1,8.217,10.309c-1.977-.023-2.942-1.575-4.126-2.724-1.505-1.471-2.931-3.034-4.436-4.494a24,24,0,0,0-4.356-3.494,58.554,58.554,0,0,0,10.068,12.734Zm-11.263-21.4c.563.483.69.655.862.713,15.584,5.287,22.951,17.5,27.054,32.341.621,2.241,1.218,4.9-.827,7.022h0q2.293,11.688,4.586,23.388c.241-.046.483-.1.713-.149.483-10.435,1.115-20.871,1.391-31.307a38.964,38.964,0,0,0-4.574-18.7c-4.8-9.5-12.665-14.274-24.331-15.688,6.126,3.4,11.746,5.436,14.585,11.114C550.819,403.453,545.072,399.269,537.176,398.786Zm88.518-189.208a72.457,72.457,0,0,0-23.836,16.2c10.275-6.631,19.664-14.722,32.283-16-3.207-1.494-4.586-1.77-8.447-.2Zm-121.1,108c-8.263,9.6-15.745,19.722-20.515,31.548a37.132,37.132,0,0,0-2.241,9.953c-.287,2.724,1.172,3.4,3.609,1.919a17.665,17.665,0,0,0,7.585-8.344c1.4-.873,3.138-1.471,4.16-2.678,6.022-7.16,11.861-14.47,17.791-21.722a14.644,14.644,0,0,1,4.08-3.689c-9,13.355-18.262,26.468-30.192,37.777,2.643,1.264,4.678.2,6.7-.667a52.768,52.768,0,0,0,16.01-10.953c5.057-4.93,10.022-9.953,15.3-15.205-2.276,9.206-26.434,28.537-37.754,30.364a6.886,6.886,0,0,0,7.08,1.069c2.873-.988,5.976-1.942,8.275-3.781a185.049,185.049,0,0,0,15.768-14.079c7.654-7.723,14.952-15.8,22.756-24.1-1.184,4.85-20.572,26.445-35.168,39.375A68.912,68.912,0,0,0,525.81,353.78c11.585-9.045,20.768-20.342,29.135-32.215C566.058,305.8,576.4,289.489,587.205,273.5a169.374,169.374,0,0,1,11.3-15.148c6.942-8.148,14.079-16.148,21.48-23.871,4.068-4.252,8.93-7.758,13.263-11.78a26.469,26.469,0,0,0,5.022-6.08c1.218-2.115.126-3.563-2.413-3.9-4.528-.586-8.689.713-12.734,2.609a98.126,98.126,0,0,0-24.549,16.768c-11.976,10.987-23.871,22.112-35.03,33.915a631.957,631.957,0,0,0-41.19,48.443c-2.655,3.436-5.8,6.493-8.723,9.734,2.6-3.931,4.9-8.1,7.838-11.746,9.355-11.585,18.791-23.089,28.479-34.387,11.32-13.205,23.583-25.549,36.122-37.6,1.1-1.057,2.264-2.069,3.287-3.207.839-.942,2.919-1.678.873-3.494a10.265,10.265,0,0,1,1.839-2.551c8.309-8.217,17.17-15.8,27.468-21.411,3.954-2.149,8.459-3.3,12.642-4.884-.965-1.333-2.39-1.23-4.275-.8-8.574,1.931-16.136,6.091-23.032,11.194-8.585,6.344-16.63,13.412-24.905,20.17a17.887,17.887,0,0,1-4.505,3.023c6.356-7.735,14.205-13.872,21.17-21.078a15.759,15.759,0,0,0-1.8.942,230.764,230.764,0,0,0-27.089,21.1c-4.586,4.229-9.711,7.861-14.481,11.9-4.505,3.816-9.033,7.62-13.217,11.757-6.505,6.447-12.734,13.194-19.078,19.8-3.517,5.563-11.585,14.194-15.768,16.458,5.091-6.344,9.574-12.159,15.136-17.044a17.386,17.386,0,0,1,1.793-2.885c10.47-10.9,20.63-22.124,31.559-32.536,13.274-12.642,26.767-25.135,42.041-35.433,7.424-5.011,14.745-10.4,23.928-11.9a60.188,60.188,0,0,1,6.126-.184,12.32,12.32,0,0,0,2.344-.6c-.678-.575-1.3-1.517-2.069-1.643a11.524,11.524,0,0,0-3.908.2C610.823,199.4,600.962,204.9,591.3,210.74c-12.941,7.815-25.342,16.389-36.49,26.675A27.722,27.722,0,0,1,552,239.3c7.631-12.815,51.683-41.156,68.555-45.133-2.08.253-4.195.345-6.241.782-11.079,2.322-20.618,7.953-29.824,14.205a332.521,332.521,0,0,0-49.707,41.409c-15.217,15.389-29.8,31.272-42.1,49.144-7.172,10.413-13.872,21.1-18.182,33.054a62.218,62.218,0,0,0-2.965,11.6c-.793,5.172.368,10.045,4.39,15.274-4.758-17.871,2.207-31.766,11.137-44.983,3.287-4.873,7.424-9.183,11.217-13.723a3.407,3.407,0,0,1,2.62-1.207,20.218,20.218,0,0,1-1.735,2.505,99.968,99.968,0,0,0-18.228,27.629,41.776,41.776,0,0,0-3.793,21.768,63.283,63.283,0,0,0,1.494,6.838c2.241-13.608,17.239-36.812,29.2-45.661-.276,2.459-2.08,3.425-3.229,4.77ZM462.771,384.2a13.641,13.641,0,0,1,2.7-2.034c6.746-2.839,10.056-9.056,14.251-14.389.437-.552.713-1.988.448-2.172-1-.736-2.218-1.735-3.494-.322-.253.287-.552.529-.782.827q-6.844,8.723-13.688,17.435l.575.644ZM397.3,405.969c-11.8,1.908-18.458,8.987-21.227,21.17,12.769-8.4,26.629-11.194,41.214-11.907-9.516-5.16-18.791-3.011-28.859,2.241,7.827-7.942,18.09-9.16,30.054-4.356-4.643-5.85-12.861-8.482-21.193-7.137Zm34.869,28.571a3.378,3.378,0,0,0,.368-2.574c-3.287-9.758-9.045-13.711-19.745-13.711h-2.276c-.023.172-.046.333-.069.506a17.283,17.283,0,0,1,3.011.632c3.919,1.586,6.758,4,7.539,8.551.655,3.816.931,3.747,4.907,3.632a10.516,10.516,0,0,1,2.046.322,5.96,5.96,0,0,1-.54,2.034c-2.9,4.011-5.873,7.965-8.827,11.93.31.287.609.575.919.862a6.942,6.942,0,0,1,1.908-1.126c6.011-1.345,7.9-6.689,10.78-11.045Zm-7.47,17.09c-1.931,1.172-3.908,2.264-5.873,3.39.207.31.425.609.632.919,4.39-2.31,8.9-4.195,13.987-4.046-4.77,2.471-10.367,3.161-14.458,7.137,8.24-3.574,16.573-6.493,26.491-4.793-4.643.713-8.654.965-12.458,2a75.582,75.582,0,0,0-12.274,4.62,8.771,8.771,0,0,0-4.057,12.079,9.627,9.627,0,0,0,13.47,3.482c1.816-1.034,3.425-2.436,5.183-3.586,7.332-4.781,14.642-9.608,22.089-14.205,1.827-1.126,4.149-1.437,6.218-2.207a12.67,12.67,0,0,0,2.8-1.437c1.666-1.172,1.724-2.482-.115-3.54a50.653,50.653,0,0,0-18.745-6.723,58.567,58.567,0,0,0-17.009-.1c-6.9,1.1-11.826,4.586-15.676,10.746,3.4-1.781,6.333-3.333,9.275-4.839.276-.138.724.034,1.092.069-.2.356-.287.85-.586,1.034Zm-261.532,686.85a35.889,35.889,0,0,0,4.241-1.552c7.85-4.356,15.619-8.815,21.7-15.676,3.62-4.08,6.562-8.447,7.47-13.918,1.184-7.125,2.31-14.263,3.425-21.4,1.873-12.022,3.046-24.227,8.758-35.306.126-.241-.1-.667-.184-1.092-8.263,8.436-10.562,19.136-11.792,30.249-.793,7.149-1.172,14.366-4.735,21.032q1.724-16.86,3.436-33.709c-.276-.1-.54-.2-.816-.3-.816,1.77-1.7,3.505-2.425,5.3-3.023,7.47-4.241,15.389-5.93,23.2-1.115,5.16-3.275,10.091-5.034,15.1-.138.4-.827.62-1.264.931a3.911,3.911,0,0,1,0-1.552c4.149-9.953,4.528-20.756,6.919-31.215-5.045,8.815-7.85,18.446-9.769,28.422-2.138,11.137-5.448,21.859-13.975,31.468Zm104.264-137.087c13.539-.1,26.434,2.184,38.743,7.942-7.746-6.574-16.86-10.482-26.457-12.734s-19.446-3.31-29.813-4.988c8.827-.54,17.044-.69,25.261,1.138a97.9,97.9,0,0,1,27.3,10.022,8.756,8.756,0,0,0,1.54.77,3.306,3.306,0,0,0,1.057-.034c-.08-.471,0-1.149-.287-1.4a79.574,79.574,0,0,0-28.089-16.228c-1.552-.506-3.115-1.011-5.436-1.77,4.816-1.793,8.137,1.379,12.975,1.356-11.987-5.723-23.469-9.183-35.685-8.654-14.929.644-29.755,2.448-42.96,10.3a59.2,59.2,0,0,0-11.275,8.712c-5.769,5.712-7.919,12.861-6.5,21.388,5.057-16.918,17.285-25.434,33.306-29.744a10.915,10.915,0,0,1-1.368.965c-.678.333-1.425.54-2.126.839-9.286,3.965-17.63,9.16-23.273,17.871a23.693,23.693,0,0,0-4.206,11.045c5.815-11.838,15.263-19.446,27.365-24.158-13.263,7.7-24.514,17.01-27.353,33.226,3.8-6.712,8.091-13,14.918-17.124-.494,2.425-2.712,3.574-4.114,5.333-1.437,1.781-2.965,3.505-4.275,5.379a29.384,29.384,0,0,0-3.39,6.333c2.253-1.3,3.3-3.942,7.1-4.735-5.62,6.195-8.838,12.562-10.033,19.8-.609,3.747-.54,7.62-1.241,11.343-1.46,7.643-3.23,15.217-5.172,24.181,1.333-2.207,2.023-3.3,2.655-4.4,13.32-23.193,31.583-41.19,56.212-52.017,5.988-2.632,12.849-3.368,19.354-4.735,13.378-2.816,26.951-2.712,40.524-2.322.747.023,1.494,0,3.678,0a57.2,57.2,0,0,0-17.619-7.677c-11.608-3.207-23.514-3.011-35.306-2.184-6.574.46-13.033,2.62-19.526,4.046a23.371,23.371,0,0,1-5.436.9c12.366-5.609,25.353-7.861,38.949-7.965Zm41.616-240.454c10.091.322,17.826,3.367,22.79,11.573-6.448-5.85-13.32-10.562-23.17-9.332,13.734,6.827,25.572,15.228,33.41,28.606,1.609-10.734.839-20.411-8.976-27.261-7.7-5.379-15.492-6.942-24.043-3.586ZM424.431,693.28c5.666-2.264,11.378-4.505,17.228-6.218a161.962,161.962,0,0,1,18.389-4.206c5.988-1.023,12.079-1.4,18.515-2.1-7.114-1.425-13.964-2.184-20.848-1.414-6.712.759-13.378,1.965-20.113,2.6a109.017,109.017,0,0,1,35.892-5.574c-11.056-2.988-22.411-1.517-33.582-2.482,14.412-3.482,28.652-1.758,42.891,1.184-10.539-5.31-21.814-6.884-33.49-6.942a47.726,47.726,0,0,1,11.412-.736,84.266,84.266,0,0,1,11.918,1.207c3.862.747,7.6,2.161,11.481,3.034-6.758-5.3-15.4-6.241-22.894-9.861,5.505-.391,10.516,1.505,15.446,3.287,4.976,1.781,9.723,4.195,14.86,6.459-.839-3.31-3.172-4.747-5.758-5.93q-15.119-6.913-30.272-13.78c-6.091-2.758-12.378-5.126-18.285-8.229-5.08-2.666-10.171-4.068-15.906-3.517-9.3.9-18.6,1.666-27.583,4.54-21.319,6.815-35.754,20.664-43.006,41.892a82.892,82.892,0,0,0-4.747,24.629c-.046,1.517-.379,3.023-.483,4.551-.9,13.148-.057,25.963,7.286,37.5a15.576,15.576,0,0,0,2.954,3.321c-7.516-18.86-.023-34.41,10.608-49.247-2.885,6.3-6.091,12.481-8.585,18.929a39.727,39.727,0,0,0-1.919,20.837c.494-6.218,1.2-12.378,4.195-18.021-1.218,10.964-3.885,22,3.54,31.95a36.1,36.1,0,0,1,6.1-17.883c-.6,5.976-4.241,11.481-2.368,18.481a11.9,11.9,0,0,1,.54-2.781,16.177,16.177,0,0,1,1.6-2.2,9.58,9.58,0,0,1,.218,2.529c-.908,5-.9,5.62.839,10.677,11.6-16.2,27.583-25.721,46.592-30.4,9.493-2.333,18.814-2.3,27.606,3.126a35.119,35.119,0,0,0,10.045,4c3.977.965,5.114-.08,5.7-4.149.517-3.574.69-7.218,1.264-10.78,2.6-15.837,10.091-29.077,21.526-40.214,1.322-1.287,2.436-2.8,3.655-4.206-1.712-.586-3.413-1.609-5.16-1.689-6.287-.276-12.654-.874-18.86-.2a142.676,142.676,0,0,0-40.685,11.16c-3.494,1.494-6.769,3.517-10.148,5.275-.965.506-1.977.931-3.62,1.689,2.885-3.379,9-7.275,16.021-10.068Zm.057-55.729c-4.344-2.988-7.792-5.252-11.114-7.677a86.577,86.577,0,0,1-24.089-27.261c-1.6-2.793-2.862-6.367-5.333-7.9-2.253-1.379-5.93-.31-8.953-.609a23.712,23.712,0,0,1-7.218-1.448c-2.666-1.161-3.321.057-3.885,2.138-3.6,13.424-7.47,26.79-10.746,40.283-2.873,11.826-5.137,23.813-7.608,35.732-1,4.85-2.264,9.689-2.62,14.6-.264,3.655.736,7.413,1.172,11.114l1.379.138c3.735-18.285,12.332-33.559,27.617-44.627,14.987-10.849,32.433-13.481,51.4-14.5Zm-10.114,143.5c-3.011,2.069-5.93,4.494-9.217,6.241-3.62,1.919-7.4,1.287-10.849-.942-.287-.184-.437-.6-.655-.908.425-.184.885-.575,1.287-.517,2.586.368,5.229,1.448,7.7,1.138,4.907-.621,7.7-4.172,9.528-8.585-4.275,3.54-8.493,7.022-14.711,5.574,6.976-1.678,12.481-5.045,15.056-12.907a12.011,12.011,0,0,0-6.447,4.724c-7.183,9.516-23.032,4.689-25.192-5.9a16.622,16.622,0,0,0-.046,14.136,8.11,8.11,0,0,1,.333,2.069c-.563-.356-1.138-.678-1.666-1.069a4.663,4.663,0,0,1-.713-.85c-.161.437-.563.954-.448,1.31a50.359,50.359,0,0,0,2.149,5.861c.827,1.8,1.931,3.482,3.172,5.666-8.562-5.4-10.056-16.354-4.9-32.4-10.194,8.8-12.952,26.2,1.2,36.915A17.746,17.746,0,0,0,390.688,804a25.213,25.213,0,0,0,20.538-9.493,18.282,18.282,0,0,0,2.31-4.528c.069-.161-.885-1.092-1.207-1.011a37.3,37.3,0,0,1-6.62,1.333c3.758-2.517,8.6-3.839,8.677-9.252Zm3.4-9.964c.287.08.655.2.827.057a51.128,51.128,0,0,0,4.436-3.574,157.243,157.243,0,0,1,23.549-17.94c2.9-1.862,2.712-2.092-.414-3.85-2.9-1.62-5.091-1.391-7.677.873-6.287,5.505-12.872,10.665-19.3,16.01-1.322,1.1-2.689,2.218-.494,4.091.46.391-.448,2.4-.931,4.333Zm4.9-15.481c4.976-4.4,10.309-8.4,15.952-12.975-3.551-2.138-7.309-2.23-10.78-2.08A63.055,63.055,0,0,0,395.113,751c-4.965,3.31-9.332,7.091-11.378,13.1a8.716,8.716,0,0,0,.919,7.631c3.321,5.677,13.6,7.137,17.986,2.609,6.367-6.551,13.182-12.677,20.021-18.733Zm38.065-.46c-.7-6.137-3.8-8.125-9.4-4.965a61.5,61.5,0,0,0-8.091,5.39c-7.758,6.172-15.4,12.493-23.078,18.768a6.645,6.645,0,0,0-2.7,5.965c1,14.941-9.413,23-22.423,25.916a9.725,9.725,0,0,0-6.367,3.988c-12.55,16.849-24.032,34.421-35.03,52.3-.988,1.609-1.942,3.241-3.287,5.505,13.067-9.079,25.25-17.963,37.846-26.2,21.308-13.929,44.673-23.089,69.486-28.617,3.161-.7,6.321-1.414,9.482-2.1,4.367-.942,4.517-1.1,3.459-5.6-1.919-8.16-4.16-16.251-5.792-24.468-1.7-8.574-3.1-17.228-4.1-25.905Zm-108.022,102.8c10.4-15.975,20.342-32.261,32.008-47.374a19.5,19.5,0,0,0,1.31-1.873c1.4-2.287,1.356-2.356-1.368-3.275a11.053,11.053,0,0,1-2.138-.793c-1.735-1.034-2.862-.874-4.183.954-5.574,7.723-11.642,15.1-16.964,23a264.326,264.326,0,0,0-21.561,37.708c-3.23,7.068-6.1,14.309-9.137,21.48,10.355-7.85,15.3-19.469,22.02-29.813ZM334.959,869.6c7.275-17.354,17.067-33.272,27.893-48.581q5.948-8.413,12.332-16.5c1.621-2.057,1.724-3.322-.253-5.241-4.563-4.436-6.746-10.068-7.206-16.377a9.477,9.477,0,0,1,.126-3.425c1.092-3.436,1.218-6.482-1.092-9.723-2.023-2.85-3.747-5.528-7.206-6.988-5.206-2.184-8.045-6.93-10.723-11.573a38.8,38.8,0,0,1-5.39-18.492c-.115-3.8-.839-7.6-.8-11.389.034-4.563.6-9.125.908-13.688.046-.747,0-1.506,0-2.31-3.77,1.425-4.482,4.62-4.942,7.907-.954,6.792-1.9,13.573-2.747,20.377-.8,6.425-1.506,12.861-2.184,19.3-.2,1.9-.092,3.827-.253,5.723a4.987,4.987,0,0,0,1.965,4.494,36.462,36.462,0,0,1,4.08,4.022c3.356,4.068,5.666,8.539,5.551,14.044-.138,6.884-.034,13.768-.1,20.653a5.851,5.851,0,0,1-.793,1.977c-.552-.6-1.448-1.1-1.62-1.793-1.839-7.516-4.54-14.539-11.079-20.446-.161,3.6-.241,6.677-.46,9.734-.218,3.034-.77,6.057-.873,9.091-.529,16.228-.942,32.456-1.448,48.684-.368,11.826-.816,23.652-1.218,35.467.333.081.667.149,1,.23,2.184-5.057,4.4-10.1,6.528-15.182Zm-6.528-80.289c.149-2.666.1-5.356.2-8.034a3.557,3.557,0,0,0-2.391-3.54c-.965-.471-1.758-.736-1.885.828-.333,3.988-.828,7.965-1.092,11.953-.506,7.8-.885,15.619-1.356,23.423-.713,11.987-1.2,24.009-2.356,35.95a14.162,14.162,0,0,0,1.586,9.022c1.391,2.448,2.471,5.068,3.758,7.746a7.955,7.955,0,0,0,.287-1.287c.379-13.55.6-27.112,1.172-40.662.494-11.815,1.4-23.606,2.08-35.41Zm-6.919-1.609c.241-3.425.184-6.873.368-10.309a3.169,3.169,0,0,0-2.287-3.517c-3.057-1.011-6.114-2.345-9.263-2.712-5.861-.689-9.482,4.206-7.8,9.838q6.534,21.894,12.941,43.822c1,3.448,1.586,7.022,2.4,10.769.506-7.022.977-13.8,1.494-20.584.7-9.1,1.483-18.2,2.138-27.319ZM327.73,746c-.287,2.448-.724,4.873-1,7.321-.448,3.9-.31,4.08,3.655,6.08,1.689-14.975,3.379-30.008,5.057-44.914-4.172,1.62-4.6,5.379-5.08,8.9-1.011,7.516-1.747,15.079-2.632,22.607Zm5.93-67.912c-6.965-10.321-14.63-20.17-24.365-28.054-7.712-6.252-15.814-12.01-23.894-17.791-9.332-6.677-18.986-12.929-26.732-21.526-3.31-3.666-6.39-7.551-10.045-11.907a22.335,22.335,0,0,0,.23,4.034c4.114,16.067,11.355,30.789,19.768,44.96a281.538,281.538,0,0,0,32.042,43.9c4.827,5.413,9.516,10.941,14.309,16.389a16.212,16.212,0,0,0,2.551,2.31c2.023,1.483.839-1.643,1.85-1.356a13.225,13.225,0,0,1,2.494,1.3,17.387,17.387,0,0,0,8.758,1.6c-6-4.126-10.78-8.838-13.849-15.332,1.276,1.161,2.586,2.287,3.839,3.471,3.333,3.149,6.6,6.379,10,9.447.517.471,1.609.3,2.448.425a7.1,7.1,0,0,0-.517-2.149,90,90,0,0,0-17.274-20.549,73.237,73.237,0,0,1-8.723-8.884c10.619,7.631,20.251,16.251,27.744,27.767.529-4.045-1.483-6.689-3.264-9.3-5.953-8.769-13.654-15.952-21.285-23.193-5.264-5-10.482-10.033-15.722-15.056-5.655-3.643-14.148-12.573-15.01-15.906,5.252,5.16,10.4,10.229,15.561,15.308h0a17.826,17.826,0,0,1,2.873,1.8q12.171,11.344,24.238,22.779c6.1,5.815,11.585,12.148,15.826,20.388.919-6.183-2.115-10.114-5.137-13.872-2.264-2.816-5.068-5.206-7.608-7.8a5.555,5.555,0,0,1-1.816-3.494c2.781,2.138,5.563,4.264,9.355,7.183-1.023-2.391-1.609-3.747-2.368-5.517,3.138,1.023,4.149,3.563,5.655,5.563,1.414,1.885,2.7,3.873,4.31,5.654-.563-4.953-3.62-8.746-6.218-12.585Zm15.722-60.05a75.9,75.9,0,0,1-5.7,27.25c-2.666,6.264-3.034,12.9-4.425,19.354-.678,3.149-.586,6.516-1.552,9.551-1.126,3.551-.552,6.275,2.62,9.114,1.506-7.539,2.77-14.435,4.275-21.273,3.459-15.791,6.953-31.571,10.619-47.316,1.644-7.045,3.793-13.964,5.643-20.952,1.092-4.114,1.023-4.137-2.551-6.137-.655-.368-1.379-.632-2.574-1.172-2.31,10.608-5.988,20.676-6.356,31.582Zm-1.1-63.935c.46,5.505.931,11.01,1.678,16.469.517,3.758.494,8.206,2.563,10.964s6.539,3.609,9.769,5.609c5.551,3.425,11.435,5.183,17.986,4.505,1.655-.172,2.643-.644,1.712-2.482-6.344-12.424-12.148-25.192-22.515-35.019-2.172-2.057-4.379-4.091-6.574-6.126-3.505.529-4.884,2.781-4.609,6.08ZM332.488,456.6c.3-.172.586-.356.885-.529-2.2-3.942-4.287-7.953-6.6-11.826-5.367-9-10.907-17.894-16.228-26.916-1.3-2.207-2-1.85-3.6-.322a14.053,14.053,0,0,1-8.689,3.862c-4.413.425-8.6,1.712-11.527,5.494-1.425,1.839-1.379,2.494.919,3a88.189,88.189,0,0,1,19.94,6.781c9.413,4.62,17.607,10.608,23.675,19.285a7.436,7.436,0,0,0,1.241,1.149Zm-38.26-14.826c8.275,2.3,16.469,4.907,24.1,9.01a13.186,13.186,0,0,0,2.425.575c-6.091-6.091-13.24-8.643-20.388-12.125,4.643-1.253,7.6,3.069,12.964,2.379-4.988-2.264-8.827-4.287-12.849-5.758-4.287-1.575-8.723-2.747-13.159-3.9-5.85-1.517-10.711,1.011-13.677,6.873,7.114-.885,13.872,1.092,20.572,2.954Zm-20.607-2.885c-2.264,2.494-4.54,4.988-7.091,7.8,15.814-2.574,31.077.092,46.431,3.919-2.391-1.034-4.747-2.126-7.172-3.08a77.39,77.39,0,0,0-7.528-2.712c-7.689-2.138-15.3-4.712-23.388-5-.437-.012-.85-.575-1.264-.919ZM230.465,435.2c-15.826,5.746-29.778,14.55-42.524,25.514a132.373,132.373,0,0,0-19.975,22.02c-9.8,13.274-15.86,28.284-19.147,44.363-1.092,5.344-1.218,10.884-1.4,16.389,2.908-13,5.815-25.916,13.021-37.375-2.31,7.919-6.114,15.366-6.838,23.848,1.264-2.391,2.528-4.781,3.77-7.172,10.918-21.043,28.491-33.582,51.109-39.133,11.815-2.9,23.871-4.942,35.881-6.907,14.24-2.333,27.928-6.252,40.777-12.815,7.965-4.068,16.044-4.333,24.468-1.977,3.264.908,6.631,1.483,9.941,2.207-9.286-6.068-18.676-11.619-30.088-12.033,6.746-1.678,12.918.092,18.837,2.954,4.471,2.161,8.758,4.7,13.194,6.942a39.25,39.25,0,0,0,7.436,2.781c-7.758-7.539-17.136-11.872-27.56-14.309a100.4,100.4,0,0,0-31.893-2.149,156.985,156.985,0,0,0-24.078,4.528c-6.08,1.517-11.918,4.057-17.871,6.114a4.659,4.659,0,0,1-2.643.1,133.023,133.023,0,0,1,35.065-11.78c-2.011-.092-4.023-.08-6.022-.3-6.873-.747-12.114-4.333-16.216-9.7-2.781-3.632-2.747-3.735-7.24-2.1Zm4.528-21.066a11.59,11.59,0,0,0-3.252.149,25.187,25.187,0,0,1,.781,2.505c.345,1.655.632,3.31.873,4.988a23.86,23.86,0,0,0,10.953,17.481c-.954-1.264-1.9-2.528-2.85-3.793,4.471,2.712,8.643,5.723,14.171,6.792-3.367-2.862-6.413-5.459-9.459-8.057.207-.322.414-.655.621-.977,4.907,2.724,8.781,8.206,16.653,5.965-7.068.184-10.447-4.149-14.447-7.424-.276-.218-.115-.965-.161-1.471.345.046.77-.023,1.023.161,1.253.862,2.482,1.758,3.678,2.7,2.954,2.31,3.126,2.391,8.068,2.931a51.131,51.131,0,0,0-3.287-4.724c-3.655-4.149-7.447-8.171-11.137-12.3-1.712-1.908-3.413-3.241-6.321-3.126-1.942.08-3.9-1.322-5.919-1.8Zm-119.469,8.034a2.755,2.755,0,0,0,2.3.85c3.551-.655,7.057-1.575,10.585-2.3a13.044,13.044,0,0,0,8.344-5.632,12.885,12.885,0,0,1,6.482-5.367c3.275-1.115,4.735-3.827,5.62-6.781a60.908,60.908,0,0,0,1.62-8.4c.931-6.39,1.62-12.826,2.712-19.193.345-1.977.023-3.735-1.414-4.494-.977-.517-2.977.057-4.068.8-7.16,4.9-15.205,6.884-23.675,7.689-2.655.253-5.264.839-7.919,1.069-4.241.356-6.3,3.379-8.022,6.6-1.092,2.046-1.529,4.448-2.264,6.677,2.448-.034,5.195.632,7.287-.253,4.172-1.77,7.976-4.413,11.941-6.666a5.423,5.423,0,0,1,2.322-1.069,14.138,14.138,0,0,1,3.333.873,11.819,11.819,0,0,1-1.988,2.632c-3.678,2.7-7.447,5.264-10.631,7.482,2.6-.184,3.827-.621,9.286-4.425,3.08-2.149,5.942-4.62,9.068-7.068-3.138,7.907-16.1,15.458-29.56,17.665,15.895.483,26.112-9.551,36.409-20.538-2.609,10.252-20.929,22.262-35.019,23.572,6.3,1.471,11.458,1.126,16.446-2.069,4.9-3.126,9.4-6.85,15-11-3.735,6.505-9.091,9.689-14.182,13.09-5.356,3.586-11.516,3.586-18.262,3.08,2.988,4.8,5.551,9.022,8.263,13.148ZM31.592,339.678a76.051,76.051,0,0,0-.172,24.48c1.85,10.47,8.378,17.78,17.067,23.365.391.253,1.023.149,1.54.207a4.329,4.329,0,0,0,0-1.54c-1.126-3.229-2.459-6.4-3.413-9.677a15.353,15.353,0,0,1-.218-5.586c2.23,4.758,2.253,10.309,6.356,14.32-.6-1.919-1.276-3.816-1.77-5.769-.471-1.839-.437-3.85-1.172-5.563-1.08-2.517,2.563-.839,2.333-3.184-.276-2.908.8-5.942,1.9-8.953.069,3.678-.161,7.378.264,11.01,1.011,8.781,4.39,16.228,12.964,20.2a36.555,36.555,0,0,0,5.367,1.425,33.409,33.409,0,0,0-2.322-2.977c-4.781-4.712-6.528-10.746-7.068-17.113-1.057-12.6.747-24.767,6.39-36.214.161-.31.529-.517,1.4-1.333a18.518,18.518,0,0,1-.644,3.229,60.257,60.257,0,0,0-5.413,23.239c-.126,10.275.08,20.86,9.16,28.33.563.46,1.23.8,2.758,1.781-7.355-19.446-5.379-37.1,4.724-53.8l1.184.276c-.942,1.988-1.942,3.954-2.839,5.976-6.769,15.263-6.976,30.675-.873,46.178,1.448,3.666,3.448,6.907,7.827,7.585,1.643.253,2.505-.046,1.816-2.126-1.862-5.689-1.575-11.516-.609-17.354l1.666,15.423c.379-.023.759-.046,1.138-.057v-11.9h.942v9.263c.264.035.529.069.8.092q1.19-5.965,2.379-11.941c.333.057.667.1,1,.161-.172,1.46-.368,2.919-.517,4.39-.161,1.517-.322,3.034-.4,4.551-.08,1.471-.092,2.965-.046,4.436.322,11.527,8.585,18.044,16.285,24.974-.942-1.54-1.77-3.161-2.85-4.6a32.739,32.739,0,0,1-5.942-15.343c-.954-6.528,2.46-11.78,5.942-16.86a46.23,46.23,0,0,1,3.54-4.505c4.758-5.356,8.574-11.217,10.309-18.274.23-.919.827-1.735,1.115-2.643,1.62-5.241,5.252-8.08,10.413-9.666a87,87,0,0,0,13.837-5.459,40.647,40.647,0,0,0,8.608-6.459c1.965-1.793,2.069-3.8.54-6.562a62.523,62.523,0,0,1-6.114-14.768c-2.586-10.183-2.54-20.411,1.781-30.318a20.526,20.526,0,0,0,.873-4.252,41.39,41.39,0,0,0-3.724,2.172c-9.321,6.792-17.5,14.826-25.457,23.112-.839.873-1.816,1.632-2.735,2.437,10.367-16.1,25.859-26.882,40-39.122a84.6,84.6,0,0,0-17.538,11.389c-9.4,7.5-18.572,15.286-27.847,22.951-.3.241-.517.632-.85.759a15.545,15.545,0,0,1-1.954.437c.276-.678.379-1.54.862-1.988,3.62-3.4,7.172-6.9,11.01-10.033,9.688-7.953,19.5-15.734,28.928-24.193-7.666,4.494-15.458,8.781-22.963,13.516-7.539,4.758-14.791,9.953-22.744,15.343,1.724-4.057,5.149-5.482,7.792-7.608,2.827-2.276,5.884-4.252,8.872-6.321s5.976-4.126,9.022-6.091a98.355,98.355,0,0,0,8.976-6.068c-9.665,3.413-18.515,8.47-27.2,13.757-8.6,5.229-16.86,11-25.273,16.538,2.77-4.77,7.631-8.183,39.559-28.02-4.62.667-8.436,3.379-12.55,5.31-4.149,1.954-8.194,4.137-12.355,6.091-4.206,1.965-7.9,5.011-12.3,6.574-.207-.368-.4-.747-.609-1.115q11.516-6.62,23.043-13.228c-.023-.149-.057-.3-.092-.437-3.425.747-6.827,1.643-10.275,2.23a175.492,175.492,0,0,1-25.032,2.436A40.827,40.827,0,0,0,55.67,289.6a41.764,41.764,0,0,0-6.9,7.585c-9.723,12.55-14.86,27.1-17.193,42.547Zm-3.1-47.3a63.193,63.193,0,0,0,10.619,6.677c3.287,1.655,5.068,1.161,6.884-1.632A44.362,44.362,0,0,1,67.06,280.272a70.264,70.264,0,0,0-7.309.736c-8.24,1.655-16.492,3.161-24.951,2.85a28.535,28.535,0,0,0-3.436.092c-2.345.2-5.137.655-5.471,3.161C25.674,288.765,27.053,291.247,28.489,292.374ZM154.13,154.321a88.278,88.278,0,0,0-25.641-.6,179.165,179.165,0,0,0-38.766,9.769A141.5,141.5,0,0,0,70.312,172c-7.758,4.206-12.343,11.033-14.021,20.63C67.462,182.283,79.782,176.9,94.378,177.3c-14.366,2.839-28.468,6.137-37.49,19.492,15.734-12.815,34.456-15.343,53.833-15.286-2.678.391-5.344.988-8.034,1.149a85.731,85.731,0,0,0-33.513,8.723,30.171,30.171,0,0,0-13.182,12.493c.724-.563,1.494-1.092,2.172-1.712a48.037,48.037,0,0,1,18.55-9.964,119.644,119.644,0,0,1,34.973-4.816,50.517,50.517,0,0,1,13.883,2.218c-6.666,0-13.32.057-19.986-.011-12.424-.126-24.227,2.942-35.639,7.39-5.126,2-9.953,4.976-12.826,10.1-.207.356.057,1.011.207,1.506a1.726,1.726,0,0,0,1.011-.126c13.309-8.551,28.341-9.516,43.5-9.746,7.6-.115,15.24-.379,23.986,2.184-4.321,0-7.4.437-10.321-.092a56.571,56.571,0,0,0-19.331.08c-6.758,1.1-13.631,1.517-20.365,2.724a67.223,67.223,0,0,0-11.458,3.609,12.405,12.405,0,0,0-7.022,5.873c18.814-9.953,38.076-11.229,57.924-7.436-3.126,0-6.252.057-9.378,0-11.677-.23-23.331-.08-34.571,3.655a66.724,66.724,0,0,0-10.4,4.632c-1.724.931-3.011,2.655-4.275,4.229,22.423-8.022,51.454-6.873,66.59-2.241a22.358,22.358,0,0,1-4.023-.034,113.584,113.584,0,0,0-27.319-2c-9.884.609-19.756,1.632-29.226,4.884a57.51,57.51,0,0,0-6.3,2.724c-5.6,2.724-7.16,7.424-6.585,13.32,19.2-11.481,39.8-10.8,60.74-7.723-.931.126-1.85.31-2.793.356a14.294,14.294,0,0,1-3.436-.046c-7.6-1.54-15.125-.8-22.756-.023A89.463,89.463,0,0,0,59.8,232.07a17.914,17.914,0,0,0-4.953,2.643c6.654-1.632,13.263-4.3,19.975-4.62,6.85-.322,13.918-3.436,21.986.678-16.239.253-31.5,0-44.4,9.734,12.01-4.655,24.353-6.942,37.306-5.482-3.885.494-7.781.942-11.665,1.494-4.137.6-8.332,1.046-12.389,2.011a39.382,39.382,0,0,0-11.642,4.781c3.678-.816,7.413-1.471,11.022-2.505,3.747-1.069,7.4-.724,11.16-.057-10.148.276-19.343,3.954-28.594,7.516a17.611,17.611,0,0,0-10.263,9.355c-2.482,5.356-5.471,10.47-8.24,15.688-.632,1.184-1.3,2.356-1.827,3.574-2.2,5-2.161,4.942,3.413,4.482,4.747-.4,9.539-.356,14.274-.862,7.195-.77,14.343-2.011,21.549-2.712a99.914,99.914,0,0,1,11.435.034,121.012,121.012,0,0,0,54.971-11.585c4.482-2.138,8.976-4.252,13.286-6.712,7.976-4.551,16.849-6.068,25.629-7.792,2.643-.517,5.655.414,8.413,1.023,6.5,1.448,12.941,3.253,19.469,4.6,2.149.448,4.505-.034,6.758-.2a1.532,1.532,0,0,0,1.126-.942,1.714,1.714,0,0,0-.747-1.356c-2.689-1.448-5.379-2.931-8.171-4.149-9.229-4.034-18.664-7.459-28.732-8.85,8.677-2.138,16.4,1.862,24.537,3.528a463.11,463.11,0,0,0-45.225-21.181,15.287,15.287,0,0,1,3.436.414,489.3,489.3,0,0,1,47.086,19.538c4.976,2.391,9.689,5.367,14.412,8.24,1.506.919,2.8,1.885,4.919.816a79.192,79.192,0,0,0-13.987-11c-8.964-5.609-18.756-9.424-28.456-13.458a102.814,102.814,0,0,1-11.378-5.275c8.091,1.712,15.676,4.93,23.239,8.056,7.528,3.115,14.8,6.827,21.974,10.171-5.505-8.08-20.17-19.032-33.927-25.135,1.839-1.092,3.275-.264,4.712.345a82.045,82.045,0,0,1,19.584,11.8,9.377,9.377,0,0,0,2.839,1.735c-2.413-4.16-6.459-6.631-10.045-9.5-3.551-2.85-7.482-5.229-11.252-7.815,5.068.172,11.688,4.482,26.25,16.8-7.195-11.769-18.469-18.929-29.882-26.031,7.539,2.069,13.964,6.195,20.825,10.068-7.47-11.24-14.826-22.561-22.434-33.7-4.85-7.1-10.125-13.906-15.1-20.906a11.79,11.79,0,0,0-8-5.057Zm-23.675-39.306c-4.172-3.3-8.746-6.08-13.148-9.1l-1.207,1.276c1.448,1.391,2.839,2.85,4.356,4.172,4.609,4.023,9.585,7.666,13.814,12.033,7.034,7.275,13.86,14.768,20.3,22.572a526.911,526.911,0,0,1,40.444,56.246c10.125,16.182,19.791,32.663,29.663,49.006a24.022,24.022,0,0,0,1.85,2.873c.276.345,1.276.609,1.46.437a27.99,27.99,0,0,0,4.436-5.149c.448-.77-.31-2.505-.931-3.563-5.505-9.4-10.757-18.963-16.734-28.054-10.183-15.481-20.423-30.95-31.41-45.845-8.148-11.045-17.527-21.17-26.342-31.709a177.618,177.618,0,0,0-26.56-25.181ZM115.249,69.2c-.379.207-.759.4-1.138.609a13.648,13.648,0,0,0,1.207,3.264C123.271,84.525,131.2,95.972,139.3,107.3q16.981,23.773,34.2,47.362c5.965,8.16,12.481,15.941,18.308,24.193,8.263,11.688,16.113,23.664,24.147,35.525.517.77,1.034,1.54,1.563,2.31.333-.3.678-.586,1.011-.885-29.778-52.155-65.59-100.046-103.287-146.6ZM218.582,210.636c-4.586-18.078-11.24-35.065-28.433-45.569,4.9,7.516,9.907,14.975,14.665,22.584,4.724,7.574,9.194,15.309,13.769,22.974Zm-22.836-55.005c-2.862.827-5.735,1.575-8.838,2.425,6.206,5.379,12.217,10.6,18.618,16.148a16.841,16.841,0,0,0-.391-3.207c-1.494-4.321-3.218-8.562-4.62-12.918-.839-2.609-2.356-3.149-4.77-2.448Zm-7.126-49.465c-.437.724-.885,1.437-1.264,2.069.644,2.689,1.057,5.16,1.839,7.493,6.493,19.354,12.9,38.743,19.653,58.016,6.379,18.193,13.136,36.249,19.745,54.35,1.965,5.379,4.137,10.677,6,16.09.85,2.471,1.954,2.574,4.275,1.862,7.8-2.414,7.689-2.23,4.712-9.493-9.631-23.492-19.1-47.052-28.721-70.543-7.746-18.906-15.607-37.743-23.434-56.614a4.9,4.9,0,0,0-.77-1.529,20.453,20.453,0,0,0-2.023-1.689Zm16.389,1.023C201.756,92.7,199.331,78.02,196.653,63.4a97.025,97.025,0,0,1-1.184-10.8c-.138-2.08-.6-3.609-2.735-4.54-1.356-.586-2.425-1.827-3.632-2.77-1.655-1.287-2.471-.7-4.137.678-3.494,2.919-3.161,5.459-1.977,9.482,3.126,10.585,5.551,21.388,7.873,32.18.667,3.115,1.46,5.264,4.781,6.172,2.781.759,4.344,2.9,4.942,5.792.862,4.241-1.138,6.275-5.517,5.517a13.949,13.949,0,0,0-2.2-.046,5.8,5.8,0,0,0,.034,2q19.118,46.339,38.317,92.644a1.855,1.855,0,0,0,.356.437c.241-.1.471-.207.713-.31-2.563-7.758-5.206-15.492-7.689-23.273-7.321-22.905-14.332-45.914-19.6-69.383Zm25.733,48.029c.529-2,.1-3.2-2.276-3.563-2.046-.322-3.977-1.333-6.011-1.827s-3.046.391-2.6,2.413c.575,2.6,1.4,5.137,2.218,7.677q6.516,20.394,13.1,40.788a14.754,14.754,0,0,0,.977,1.954c.23-.069.46-.149.69-.218-1.54-5.425-3.149-10.838-4.586-16.285-2.689-10.194-4.275-20.457-1.517-30.927Zm1.965,2.379c-2.919,9.976.149,19.86,2.781,29.617C234.545,177.226,233.615,167.228,232.707,157.6ZM254.589,36.875c.241-.862.345-1.758.517-2.643l-.816-.207c-2.322,7.4-4.93,14.711-6.884,22.2-2.827,10.861-5.494,21.8-7.631,32.812a218.338,218.338,0,0,0-2.862,23.227c-.9,10.631-2.161,21.3-1.942,31.927.414,20.768,2.023,41.512,7.195,61.74,2.873,11.252,6.229,22.377,9.436,33.536.31,1.08.2,3.08,2.345,2.333,1.7-.6,4-.8,3.471-3.609-.172-.931-.379-1.862-.575-2.793-3.574-16.952-7.4-33.847-10.6-50.868-1.54-8.206-2.1-16.619-2.7-24.974-.873-11.976-2.138-23.986-1.862-35.95.4-17.871,1.632-35.731,4.988-53.407q3.206-16.877,7.93-33.329Zm-2.712,55.085c2.586-8.252,6.516-15.883,13.217-22.342-2.965-.988-5.114-.529-6.723,1.655-2.586,3.528-5.6,6.873-7.447,10.757a60.348,60.348,0,0,0-6.045,25.951c-.057,8.758-.678,17.515-1.057,26.273l1.1.276a74.593,74.593,0,0,0,.839-7.8c.138-11.941,2.574-23.48,6.114-34.777ZM417.7,146.885c-11.608-2.046-22.607,1.379-33.9,2.161a79.031,79.031,0,0,1,32.755-5.068c-2.609-4.333-7.08-4.436-11.263-4.781-8.884-.736-17.458,1.115-25.87,3.8-1.954.621-3.908,1.23-6.884,2.172C376.494,142.2,384.321,139,391,138.1c6.356-.85,12.769-2.758,19.687.184-3.8-6.493-10.424-12.24-16.975-13.125a76.778,76.778,0,0,0-20.273-.23c-9.459,1.276-17.389,6.585-25,12.16a6.192,6.192,0,0,1-2.862,1.356,60.558,60.558,0,0,1,32.4-16.7c-4.114-3.62-8.206-3.712-12.447-2.781a54.058,54.058,0,0,0-27.813,15.021c-1.46,1.494-3.057,2.862-4.609,4.275-.069.069-.3-.046-.46-.08,4.793-10.309,28.548-24.618,42.478-21.768-2.126-7.712-7.551-10.068-15.745-8.85A48.845,48.845,0,0,0,340.6,114.1a19.556,19.556,0,0,1-2.77,1.011c6.7-6.827,16.228-10.286,28.732-10.9-8.5-2.126-13.918-.253-22.032,2.988a76.862,76.862,0,0,0-26.043,17.423c-.885.885-1.873,1.666-3.39,3,4.747-10.47,25.629-23.331,45.409-28.261-6.965-1.276-12.861.31-18.573,2.712a76.237,76.237,0,0,0-21.653,13.837,11.525,11.525,0,0,1-5.126,2.873,21.665,21.665,0,0,1,1.689-2.218,85.138,85.138,0,0,1,16.182-12.746c6.252-3.839,12.723-6.965,20.159-7.643.379-.034.724-.517,1.092-.793-.483-.241-1-.736-1.437-.678-11.447,1.552-22.469,4.482-32.3,10.815-3.517,2.276-6.769,4.965-10.194,7.378a1.857,1.857,0,0,1-1.724.011c-1.023-1.437-1.034-1.575-2.2-.609-2.494,2.069-4.919,4.229-7.355,6.379a26.55,26.55,0,0,1-4.333,3.379c3.31-6.1,9.16-9.769,14.964-15.309-11.757,1.023-19.251,7.643-26.893,13.608-8.034,6.275-11.32,15.86-15.711,24.595,3.528-14.964,11.8-26.457,25.342-34.191a57.642,57.642,0,0,0-22.538,7.873,68.745,68.745,0,0,0-19.434,16.711c-2.08,2.62-3.425,5.3-3.115,8.861.827,9.3,1.287,18.641,2.092,27.939.7,8.148,1.678,16.285,3.069,24.422q1.258-8.792,2.528-17.584l1.31.126c-.333,4.517-.793,9.033-.954,13.562a110.463,110.463,0,0,0,.425,14.32q1.879-10.637,3.781-21.262a12.182,12.182,0,0,1,.747-2.735c.149-.345.827-.448,1.264-.667.115.345.368.713.322,1.034-.793,5.264-1.839,10.5-2.4,15.791a155.866,155.866,0,0,0-.724,17.032c2.862-14.47,5.7-28.847,15.711-40.593-2.23,5-4.8,9.872-6.608,15.021a128.12,128.12,0,0,0-4.413,16.55c-1.138,5.563-1.712,11.24-2.54,16.964,4.551-12.022,9.045-23.871,13.55-35.72a23.489,23.489,0,0,1,1.23-2.54c.069-.138.414-.276.483-.23.253.184.655.506.621.7a18.691,18.691,0,0,1-.736,2.724c-2.368,6.654-4.77,13.3-7.137,19.952a10.725,10.725,0,0,0-.69,3.827c4.678-9.666,9.171-19.389,14.4-28.709.391.184.77.368,1.161.54q-5.12,11.619-10.229,23.227c.276.172.552.356.828.529,1.31-2.057,2.609-4.114,3.931-6.16,1.356-2.08,2.689-4.183,4.114-6.218,1.529-2.2,3.092-4.367,4.758-6.459,1.529-1.908,3.218-3.678,4.839-5.505.3.23.6.448.9.678-2.977,4.252-6.068,8.424-8.884,12.769a134.112,134.112,0,0,0-7.965,14.056c5.517-4.494,11.78-6.6,18.619-7.367,1.057-.115,2.207-1.3,2.908-2.276,7.574-10.573,18.136-17.308,29.468-23.055.276-.138.678-.023,1.977-.023-6.62,4.586-12.6,8.723-18.573,12.861.2.333.379.667.575,1.011,1.264-.621,2.54-1.207,3.781-1.862,3.9-2.034,7.735-4.183,11.688-6.091a10.282,10.282,0,0,1,4.632-.759c-8.758,4.528-17.423,8.941-24.227,16.2-.781.839-1.609,1.643-2.356,2.517-1.207,1.4-1.034,2.1.942,2.666,6.493,1.873,12.792,1.057,19.17-.632a220.642,220.642,0,0,0,49.373-19.641,69.045,69.045,0,0,1,22.733-7.447c9.321-1.46,18.216-4.31,25.779-10.321,6.379-5.057,18.09-9.194,27.928-9.275a106.68,106.68,0,0,0-32.893-11.263Zm24.767,33.157c-.368-.218-.724-.448-1.092-.667.85-1.873,1.839-3.712,2.528-5.643,1.287-3.6,1.184-7.172-1.138-10.355-.46-.621-1.6-.747-2.425-1.1.046.77-.184,1.712.161,2.3,2.379,3.977,2.862,7.861-.172,11.711a7.971,7.971,0,0,1-1.264,1.138.929.929,0,0,1-.517.184c-.2-.276-.529-.667-.448-.9.379-1.069.931-2.08,1.333-3.149a7.063,7.063,0,0,0-1.115-7.528c-1.873-2.241-3.287-2.712-5.93-1.184-5.4,3.115-10.631,6.528-15.7,9.677,7.942,2.873,15.619,5.6,23.239,8.47,1.506.563,2.62.517,3.482-.793a108.237,108.237,0,0,0,6.367-10.125,7.958,7.958,0,0,0-.54-7.712c-.827-1.391-1.483-3.172-3.678-2.919.287,1.218.494,2.459.874,3.643,1.9,5.965-.3,10.677-3.954,14.964Zm16.056-10.55c0-3.862-2.471-7.838-5.344-8.5a2.18,2.18,0,0,0-1.6.264c-.23.172-.207,1-.012,1.4,3.218,6.712.012,12.091-3.6,17.343-.85,1.23-2.1,2.184-3.08,3.344-.253.3-.172.9-.253,1.356a3.049,3.049,0,0,0,1.08.161c5.3-1.322,12.815-10.344,12.8-15.354ZM417.581,301.959c-1.529,1.437-3.195,2.712-4.793,4.069-5.091,4.344-10.55,7.562-18.664,5.08,3.092,3.954,6.379,5.563,9.8,6.988,9.643,4.034,19.779,4.045,29.893,3.2a18.539,18.539,0,0,0,12.114-5.942c.632-.678,1.494-1.506,1.552-2.31.069-1.057-.563-2.149-.885-3.229a13.169,13.169,0,0,0-2.057,1.643c-5.85,7-13.424,9.734-22.365,9.068a10.3,10.3,0,0,1-2.735-.7,15.816,15.816,0,0,1-2.276-1.574c8.723.172,16.619.345,22.928-5.31,1.77-1.586,3.586-3.184,4.091-6.7-8.861,10.631-19.791,12.01-31.686,10.194,7.781-.632,15.584-1.2,23.721-5.953-6.137.586-10.918,3.8-16.619.6,2.207-1.253,4.045-.862,5.735-.885a18.478,18.478,0,0,0,11.953-4.815c1.253-1.057,1.506-2.172-.092-3.184-5.643-3.586-13.768-5.735-19.607-.241Zm-59.338-26.388a36.266,36.266,0,0,0,13.745,3.551c7.413.517,14.791,1.4,22.181,2.138a33.138,33.138,0,0,1,14.5,5.034c7.827,4.953,16.389,8.137,24.917,11.539,6.229,2.482,12.251,5.505,16.113,11.458,4.068-6.85,3.264-8.528-2.6-13.872-4.712-4.287-10.8-7.08-16.4-10.332-2.609-1.517-5.505-2.563-8.022-4.264a61.135,61.135,0,0,1,29.962,17.239c1.011-8.62-6.942-11.033-10.711-16.216,4.907,1.689,8.229,5.229,11.9,8.884a16.721,16.721,0,0,0-1.253-3.057c-5.815-8.677-13.987-14.493-23.354-18.756-3.758-1.712-7.585-3.253-11.378-4.873a50.027,50.027,0,0,1,17.055,5.815c7.321,3.954,13.769,8.953,18.561,15.872.839,1.207,1.689.77,1.85-.368a6.1,6.1,0,0,0-.356-3.712,66.792,66.792,0,0,0-5.022-6.93,34.2,34.2,0,0,1-3.356-4.3c4.839,1.931,7.195,6.3,10.344,10.4a19.07,19.07,0,0,1,1.632-3.505c3.08-4.137,1.23-7.528-1.655-10.573-2.494-2.62-5.333-4.907-8.022-7.344a13.8,13.8,0,0,1-3.459-4.068,8,8,0,0,1,2.517,1.034c4.229,3.85,8.6,7.585,12.458,11.792,1.827,1.988,2.448,1.4,3.885-.069,3.574-3.678,7.034-7.562,11.068-10.688,2.46-1.908,2.551-3.62,1.345-5.735-1.494-2.62-3.367-5.034-5.057-7.516,3.712,1.207,5.149,2.931,8.045,9.757q.3-3.448-4.563-11.711c4.022,1.9,5.218,5.172,6.356,8.263.793,2.149,1.586,2.092,3.3,1.138,5.275-2.977,7.068-9.516,6.516-13.7-1.069-8-4.563-14.895-9.631-21.089-6.482-7.93-14.4-14.24-22.8-19.917-8.24-5.574-16.8-10.746-26.307-13.872A116.577,116.577,0,0,0,413.7,178.5c-3.459-.529-7.195.425-10.769.965-12.136,1.827-23.871,4.884-33.7,11.688h14.4c-5.321.977-10.976,1.793-16.515,3.092a147.069,147.069,0,0,0-16.791,5.149c14.021-.988,28.008-4.229,41.846,1.2-19.32-2.609-38.03.678-56.614,5.988a30.757,30.757,0,0,0,3.988-.023,214.822,214.822,0,0,1,35.421-2.023,117.911,117.911,0,0,1,13.642,1.356,30.609,30.609,0,0,1,8.137,2.781c-19.722-3.724-39.283-1.529-58.867,1.115,20.342.218,40.524,1.586,59.993,8.286-9.436-1.4-18.837-3.184-28.318-4.114a251.934,251.934,0,0,0-29.181-.908c6.723,1,13.481,1.793,20.147,3.046a197.512,197.512,0,0,1,21.181,4.8c6.689,2.034,13.757,3.184,19.791,7.344-23.526-6.861-47.3-12.068-72.945-12.263,2.942,3.034,5.091,5.448,7.459,7.608a6.6,6.6,0,0,0,3.517,1.54c4.356.483,8.746.759,13.125,1.069a175.68,175.68,0,0,1,31.571,4.988,4.014,4.014,0,0,1,2.322,1.862,19.783,19.783,0,0,1-3.207-.207,114.989,114.989,0,0,0-23.193-3.092c-5.723-.08-11.435-.667-17.147-.954a6.668,6.668,0,0,0-2.011.552,14.452,14.452,0,0,0,.8,2.1c1.184,2.092,3.287,1.529,5.137,1.666a94.894,94.894,0,0,1,24.066,4.7,5.9,5.9,0,0,1,2.873,2.034c-4.011-.69-8.011-1.46-12.045-2.034-4.9-.713-9.815-1.3-14.734-1.862-2.253-.253-1.885.885-1.322,2.448,2.379,6.631,4.839,13.263,6.815,20.021a95.483,95.483,0,0,1,2.414,12.918,5.185,5.185,0,0,0,3.264,4.252ZM319.788,406.659c1.322.172,2.586.736,3.9.9,3.551.437,6.252-1.057,6.93-4.482.655-3.275,2.276-6.608.678-10.1-.172-.379.218-1.023.345-1.552.506.471,1.379.874,1.471,1.414a30.783,30.783,0,0,1-.759,14.067c3.8-4.77,3.138-9.3,3.011-13.677-.023-.931-.575-1.827-.69-2.758-.057-.448.345-.954.529-1.425.4.368,1.126.7,1.172,1.115.437,3.724,2.448,7.344.919,11.229a1.077,1.077,0,0,0-.126.552c.149,1.057.333,2.115.506,3.172,1.046-.379,2.368-.483,3.092-1.2,2.413-2.414,5.08-4.758,6.815-7.631,5.229-8.654,7.344-18.354,8.62-28.273,2.241-17.354,1.368-34.777.931-52.155-.253-10.068-2.092-20.078-3.08-30.134A199.467,199.467,0,0,0,348,251.976c-4.494-16.239-13.458-29.537-28.112-38.329-9.263-5.551-19.285-7.919-30.192-5.689-7.114,1.448-11.953,5.632-15.573,11.6-.747,1.23-1.379,2.54-2.2,4.057,11.183-2.666,20.906,1.138,30.5,5.482-3.3.345-6.137-1.494-9.229-2.138a82.084,82.084,0,0,0-9.528-1.747,50.814,50.814,0,0,0-10.3.333,32.687,32.687,0,0,1,18.055,6.873c-4.264-1.4-8.482-3-12.815-4.172-6.39-1.724-8.367-.7-11.78,4.735-2.4,3.827-3.988,8.355-9.183,10.447,5.39,4.275,11.481,7.149,14.159,13.539-3.172-2.632-6.229-5.4-9.551-7.827a52.325,52.325,0,0,0-7.424-4.206c-.552-.276-1.46.149-2.207.264.333.586.529,1.345,1.023,1.724,11.9,9.3,19.251,22.02,26.353,34.938a4.333,4.333,0,0,1,.322,1.655c.023.149-.172.322-.425.77a68.535,68.535,0,0,1-3.873-6.137c-4.195-8.47-10.194-15.665-15.964-23.032-.471-.6-1.046-1.115-1.563-1.678-2.885-3.1-6.3-6.861-10.263-6.562-6.08.448-12.619,1.46-16.642,7.47-1.345,2.011-3.62,3.39-4.953,5.4a23.085,23.085,0,0,0-3.505,11.941c-.149,3.23-.035,6.471-.035,10.665-2.781-7.631-2.54-12.941.6-21.745-2.7,2.908-3.494,4.724-5.643,12.826-.724-3.241-.713-3.735.471-7.712.322-1.092.9-2.115,1.264-3.2.46-1.379,1.253-2.827,1.1-4.16-.126-1.172-4.655-2.54-6.229-1.735a21.459,21.459,0,0,0-6.471,4.413c-3.931,4.459-4.988,10.183-5.815,15.883a7.582,7.582,0,0,1-.862,3.413c-.207-2.011-.4-4.022-.724-7.16a72.58,72.58,0,0,0-3.459,20c-1.54-6.8-.379-13.424.747-20.17-1.046,2.54-2.092,5.068-3.138,7.608-.241-.057-.494-.126-.736-.184.46-1.931.621-4,1.425-5.769,1.425-3.115,3.252-6.045,4.907-9.045.782-1.414,2.241-2.885,2.138-4.229-.1-1.322-6.884-1.322-8.252,0-3.609,3.448-6.942,7.114-9.148,11.677a29.969,29.969,0,0,1-3.161,5.31c.241-5.8,3.793-10.022,6.815-14.435-4.574,1.483-8.436,8.5-12.631,18.791-.057-5.4,2.425-10.022,5.356-14.263,2.126-3.08,5.126-5.551,7.712-8.332.356-.379.839-.977.736-1.345a1.763,1.763,0,0,0-1.218-1.011c-4.816-.759-9.47-.575-13.826,2.1A45.405,45.405,0,0,0,161.083,274c-6.275,9.482-10.1,19.722-9.068,31.3a56.848,56.848,0,0,0,10.137,27.066A133.167,133.167,0,0,0,182.9,355.975c13.32,12.136,27.893,22.607,42.282,33.341a54.363,54.363,0,0,1,15.09,17.032c2.414,4.275,5.7,8.091,8.861,11.907,3.287,3.977,7.126,7.5,10.263,11.573,2.414,3.138,4.1,6.838,6.126,10.275.345.586.759,1.138,1.138,1.7.529-.483,1.092-.942,1.6-1.46,3.046-3.161,3.321-6.758,1.356-10.493-2.3-4.4-4.793-8.7-7.206-13.033-.414-.747-.839-1.494-1.793-3.184,5.563,4.528,10.413,12.573,12.481,20.1,3.138-2.3,6.218-4.505,9.217-6.792,1.448-1.1,1.494-2.287.345-3.9-1.954-2.724-3.574-5.689-5.344-8.551.31-.23.621-.46.942-.69,1.264,1.643,2.54,3.287,3.8,4.93l.483-.207c-.575-1.747-1.172-3.494-1.7-5.252a12.874,12.874,0,0,1-.713-5.735c1.092,2.379,2.126,4.781,3.287,7.126a20.475,20.475,0,0,0,2.609,4.425,3.7,3.7,0,0,0,2.942,1.057c3.724-.69,7.413-1.621,11.079-2.574,4.172-1.08,5.057-2.218,4.264-6.551a71.829,71.829,0,0,0-2.988-11.619c-4.31-11.826-8.884-23.56-13.343-35.341a4.288,4.288,0,0,1-.23-2.253c3.8,4.666,5.31,10.459,7.62,15.826,2.333,5.436,4.517,10.941,6.494,16.515,2.034,5.712,3.735,11.55,5.746,17.86,1.253-6.976-3.069-12.343-3.827-19.274,3.321,3.758,4.08,7.758,5.482,11.424.517,1.345.138,3.3,2.345,3.3,2.092,0,3.586-1.816,3.126-4.459a126.091,126.091,0,0,0-3.138-13.332c-1.609-5.494-3.551-10.9-5.31-16.343a3.417,3.417,0,0,1,.253-2.781,28.876,28.876,0,0,1,2.023,3.988c3.321,9.746,7.459,19.239,8.8,29.56.207,1.609.816,2.368,2.425,2.574Zm28.33,58.809c-8.769-18.009-18.55-35.513-30.192-51.89a17.648,17.648,0,0,0-1.954-2.8c-.552-.517-2.011-1.034-2.241-.782a5.625,5.625,0,0,0-1.712,3.149c-.034.977.977,2,1.552,2.988,7.873,13.5,16.1,26.824,23.549,40.57,9.918,18.285,19.182,36.927,28.824,55.361,2.264,4.333,4.942,8.436,7.424,12.654.471-.333.931-.678,1.4-1.011-8.85-19.423-17.32-39.041-26.664-58.223Zm44.029,43.972q8.533-18.446,17.871-36.513c2.414-4.666,4.068-8.93.7-14.01-2.345,3.954-4.827,7.769-6.953,11.78-8.493,16.021-16.975,32.054-23.526,49.006-.621,1.6-1.264,3.207-2.034,4.735-1.632,3.229-3.758,3.459-6.1.874-1.655-1.816-3.494-3.448-5.195-5.218q-15.429-16.05-30.835-32.123c.379-.322.759-.655,1.126-.977,4.459,4.413,8.907,8.827,13.389,13.217a10.3,10.3,0,0,0,1.758,1.149c-.092-.69-.2-1.379-.253-2.08a8.132,8.132,0,0,1,.069-1.046c.31.046.759-.023.908.161.6.736,1.046,1.6,1.678,2.3.253.287.839.264,1.276.391.034-.368.218-.816.069-1.08-1.942-3.471-3.666-7.126-6.022-10.309a17.852,17.852,0,0,0-5.815-4.528c-10.263-5.608-21.308-9.275-32.444-12.654a19.228,19.228,0,0,0-4.252-.264c9.022,7.827,17.8,15.263,25.169,24.17,8.079,9.769,16.849,18.768,27.9,25.238a73.6,73.6,0,0,0,7.62,3.954c7.045,3.1,7.6,3.8,8.459,12.355-.3-.126-.667-.161-.85-.368-1.2-1.368-2.333-3.908-3.528-3.931-2.655-.057-1.954,3.183-3.011,4.85a3.987,3.987,0,0,0-.6,2.184c.023.437.747,1.23,1.1,1.2a35.316,35.316,0,0,0,7.332-.988,5.651,5.651,0,0,0,2.919-3c4.1-9.447,7.792-19.09,12.114-28.445Zm112.309-7.114c-14.194-8.057-29.181-14.24-45.351-17.009-10.573-1.8-21.17-2.551-31.766.506-13.09,3.781-22.561,11.585-28.456,24.48,6.861-.529,13.389-1.092,20.308,1.678a18.551,18.551,0,0,1-8.7-.1c-3.632-.874-7.183-.816-10.55,1.092a6.146,6.146,0,0,0-3.4,4.988c-.3,3.31.793,4.287,4.195,3.494,6.8-1.575,13.527-1.643,20.193,1.31-4.884,0-9.757-.115-14.63.057a21.294,21.294,0,0,0-6.091,1.2c-.827.287-1.333,1.552-1.977,2.367a11.423,11.423,0,0,0,2.482.874c10.275,1.161,19.676,4.137,29.5,12.688-1.62-.724-3.275-1.391-4.861-2.184-6.3-3.2-12.55-6.482-19.687-7.539a26.55,26.55,0,0,0-12.447.7c-3.6,1.184-5.678,3.655-7.034,7.011-.644,1.6-.046,1.9,1.437,2.046,9.562.954,17.952,4.953,25.859,10.137a27.076,27.076,0,0,1,3.149,2.471,3.449,3.449,0,0,1,1,1.965c-7.919-4.4-15.469-9.482-25.135-11.309,3.609,3.069,6.677,5.677,9.734,8.286-.253.333-.494.667-.747.988a16.286,16.286,0,0,1-2.528-1.609c-6.8-6.287-14.688-8.436-23.8-6.723-2.977.563-6.1.31-9.148.517-4.551.31-9.079.759-13.067,3.31,6.551,2.057,10.8,7.1,14.538,12.274a241.921,241.921,0,0,1,12.987,20.894c4.3,7.436,8.217,15.1,12.378,22.629,7.149,12.918,17.963,22.147,30.318,29.79,11.93,7.378,25.146,12.01,37.892,17.63q17.291,7.637,34.421,15.607a87.741,87.741,0,0,1,7.9,4.758c2.287-8.9-.31-16.964-3.551-24.836a49.21,49.21,0,0,0-15.24-20.1c13.343,7.493,19.814,19.618,22.928,34.686,1.1-9.482-1.011-18.044-3.563-26.3-4.183-13.5-9.344-26.7-17.642-38.375a30.983,30.983,0,0,1-3.253-5.379c2.011.552,3.115,2.126,4.229,3.735a157.26,157.26,0,0,1,21.193,44.73c1.011-5.781-1.6-21.733-5.815-35.639a154.446,154.446,0,0,0-14.8-33.72,16.441,16.441,0,0,1,2.494,2.3A100.6,100.6,0,0,1,502.2,595.51a176.064,176.064,0,0,1,10.252,40.972c.736,5.654.873,11.389,1.31,17.538,3.184-10.792,4.632-28.02,3.069-40.65a183.742,183.742,0,0,0-9.666-39.179c7.493,12.573,10.5,26.457,12.5,40.754,2,14.366.184,28.445-2.919,43.753,9.16-14.171,10.941-42,5.241-70.451,2.264,2.816,3.609,6.838,4.413,12,1.483,9.493,1.46,19.032,1.322,28.594-.115,8.459-1.2,16.734-4.425,24.629a6.4,6.4,0,0,0-.023,1.919c7.93-12.1,11.206-25.824,16.366-38.789-.965,11.068-5.16,21.227-8.194,31.732a109.527,109.527,0,0,0,20.733-40.88c.713-2.689-3.011-9.815-5.482-10.631a5.2,5.2,0,0,0-2.2.172,8.358,8.358,0,0,1-9.091-4.505c-4.425-8.4-5.723-17.308-3.08-26.583a6.7,6.7,0,0,1,5.6-5.149c2.689-.4,4.206,1.747,5.436,3.586a8.058,8.058,0,0,1,1.4,4.792c-.655,7.114,2.471,13.481,3.954,20.136.471,2.126,3.436,3.7,5.861,6.126,1.069-15.757-1.126-29.939-6.873-43.478a107.559,107.559,0,0,0-19.044-30.479,96.978,96.978,0,0,0-24.216-19.113Zm-9.941,167.233c1.345,4.413,2.345,7.8,3.413,11.171.138.437.782,1.149.954,1.092,1.54-.575,3.287-1,4.459-2.046,1.471-1.322.345-3.069-.7-4-2.333-2.08-4.953-3.816-8.126-6.206Zm140.167-31.583c-13.814,7.769-27.79,15.274-42.007,22.262-14.561,7.16-29.41,13.746-44.282,20.216-9.436,4.114-19.159,7.574-28.744,11.332-.667.264-1.276.667-1.919,1,.092.322.2.632.287.954,7.08-1.735,14.251-3.172,21.239-5.241,23.376-6.93,45.328-17.3,66.567-29.077,14.182-7.873,27.893-16.619,41.708-25.158a113.166,113.166,0,0,0,11.964-8.85,8.044,8.044,0,0,0,2.276-4.264c.207-.9-.747-2.057-1.172-3.091a28.5,28.5,0,0,0-2.2,2.046c-6.631,7.643-15.067,13.01-23.71,17.871Zm20.262-27.25a1.874,1.874,0,0,0-1.483.391c-1.149,1-2.218,2.1-3.287,3.207a302.616,302.616,0,0,1-31.111,27.951A12.345,12.345,0,0,0,617.7,643.7c13.021-6.528,25.928-13.067,36.582-23.112a30.05,30.05,0,0,0,2.781-2.9C658.783,615.554,657.588,611.612,654.944,610.727ZM522.1,687.212a353.435,353.435,0,0,0,60.142-31.881c1.908-1.264,3.735-2.655,5.528-4.08a2.879,2.879,0,0,0,.942-3.965c-2.3-5.08-2.379-5.229-6.838-1.781A416.69,416.69,0,0,1,523.2,683.385c-2.184,1.161-4.54,2.023-6.746,3.138-.575.287-.919,1.023-1.563,1.781.873.368,1.414.839,1.793.724a47.653,47.653,0,0,0,5.413-1.839Zm-4.321-4.62c4.643-3.344,9.573-6.333,13.987-9.941A206.9,206.9,0,0,0,568.8,633c13.24-18.412,24.02-38.145,31.3-59.614,4.034-11.9,7.424-24.043,7.781-36.777.092-3.31,1.8-6.586.069-11.125a46.223,46.223,0,0,0-.862,6.333c.241,12.711-4.149,24.342-8.355,36.007-8.125,22.515-21.181,42.259-34.869,61.613-5.39,7.631-10.964,15.148-16.619,22.584a110.261,110.261,0,0,1-27.709,25.445c-1.276.839-2.574,1.655-3.781,2.586a22.565,22.565,0,0,0-2.115,2.08c1.3.908,2.54,1.609,4.138.46Zm49.144-93.173c-1.149,6.93-2.414,13.837-3.494,20.768-.345,2.23-.276,4.517-.437,7.424,15.653-27.227,12.343-58.579-2.885-84.484,2.115,8.137,4.333,15.4,5.838,22.8a91.592,91.592,0,0,1,.965,33.479ZM530.5,665.755a99.6,99.6,0,0,0,24.583-30.709,42.152,42.152,0,0,0,4.482-23.882c-.736-7.516-5.08-12.964-11.217-17.251.885,1.4,1.712,2.827,2.655,4.183,9.516,13.734,8.125,24.055.264,36.731a31.224,31.224,0,0,1-4.16,5.471c-11.93,12.137-23.537,24.618-36.881,35.283-.6.483-1.483.782-1.793,1.391a19.7,19.7,0,0,0-1.1,3.471c1.034-.149,2.287.023,3.057-.506,6.781-4.632,13.849-8.93,20.1-14.194Zm23.652-55.545a127.643,127.643,0,0,1-17.239,35.674C547.325,638.586,558.082,623.656,554.151,610.21Zm-30-142.2c-4.54-.919-11.8.69-14.1,7.126-1.011,2.839-1.517,5.85-2.253,8.781.23,1.529.356,2.322,2.276,2.643,3.632.621,4.77,4.034,6.344,6.861.9,1.621,1.942,3.149,2.919,4.712a50.5,50.5,0,0,0,3.23-4.459,88.67,88.67,0,0,0,5.643-10.55,24.146,24.146,0,0,0,1.529-8.309c.115-3.781-1.931-6.08-5.586-6.815ZM593.79,494.5a2.5,2.5,0,0,0-1.505-1.448c-1.609-.517-3.287-.8-5.494-1.3,4.3,12.93,5.068,25.5-.678,37.915.46-3.586.69-7.218,1.425-10.746,1.816-8.746-.115-16.975-3.161-25.169,3.092,16.377.506,32.146-5.252,47.581.218-1.62.4-3.253.655-4.861,1.241-8.091,2.747-16.148,3.678-24.273.724-6.333-.9-12.527-2.425-18.642-.379-1.517-1.138-2.758-3.034-2.965-2.391-.264-4.77-.759-7.643-1.241,2.2,6.689,3.954,12.746,3.253,19.147-.356,3.207-.9,6.4-1.506,9.574-.115.621-.908,1.1-1.379,1.655-.149-.667-.563-1.391-.425-1.977a43.8,43.8,0,0,0-.885-23.629c-1.057-3.471-2.425-5.769-6.758-6.39-6.6-.931-13.056-3-18.538-7.149-2.126-1.609-4.08-3.448-6.114-5.172-1.586-1.333-3.184-2.655-5.551-4.632,1.506,9.574-2.471,16.538-6.769,23.5a45.671,45.671,0,0,0-4.252,9.907c-1.23,3.758,0,7,2.781,9.884,4.367,4.54,8.953,8.976,12.677,14.021,10.344,14.033,17.561,29.525,19.5,47.063a102.461,102.461,0,0,1,.816,17.688c-.333,5.4,2.356,9.424,4.229,14,2.758-11.9,4.379-23.779,3.781-35.881a104.555,104.555,0,0,0-8.068-36.7c-.747-1.747-1.287-1.862-2.655-.471-.379.391-2.287-.115-2.965-.759a54,54,0,0,1-6.149-6.723,45.4,45.4,0,0,1-8.677-21.561c-.621-4.793,1.08-6.1,5.517-4.448a27.118,27.118,0,0,1,5.586,2.9,54.384,54.384,0,0,1,15.964,16.263c2.586,4.1,4.85,8.436.333,13.01-.552.563.184,2.781.782,4.023a122.415,122.415,0,0,1,9.125,25.859,87.329,87.329,0,0,1,1.885,22.181c-.023.919.069,1.85.115,2.781h.345q1-6.43,2.011-12.872c1.954,7.815-.483,15.389-.827,23.17,1.08-2.885,2.161-5.758,3.448-9.194,1.54,4.54-1.517,7.873-1.609,13.021,2.77-4.8,5.022-8.3,6.873-12.01,7.528-15.067,14.067-30.537,17.515-47.109.885-4.275,1.149-8.689,1.609-13.044a18.717,18.717,0,0,0-2.816-12.585c-1.62-2.528-2.77-5.379-4.6-9.01-.207,5.321-.494,9.6-3.931,13,.6-3.115,1.115-6.241,1.8-9.321,1.322-5.873-.747-11.321-2.034-16.86ZM621.8,522.232c-.253-4.942-.793-9.884-1.414-14.8a28.14,28.14,0,0,0-4.747-12.757,17.122,17.122,0,0,0-10.723-7.137c-3.126-.69-5.563.586-7.62,2.9-1.839,2.069-1.2,4.252-.356,6.413.379.977.736,1.4,1.942.287,4.689-4.344,7-4.413,10.918.276a31.1,31.1,0,0,1,5.7,9.815c2.218,6.677,3.77,13.585,5.356,20.446.77,3.333-.1,3.942-3.528,3.31-1.241-.23-2.712.046-3.747-.506-2.494-1.333-3.333-1.241-3.241,1.988.414,14.527-3.517,28.284-7.85,42.2,4.16-3.666,8.137-7.195,12.136-10.7A22.237,22.237,0,0,0,622.6,547.39c.184-8.378-.356-16.78-.793-25.169Zm54.81,33.95c-19.664-4.448-38.685-3.448-56.476,7.011a56.751,56.751,0,0,0-24.158,27.525c-7.6,18.1-17.963,34.548-29.744,50.167a210.794,210.794,0,0,1-23.124,25.434c-1.241,1.184-2.574,2.253-3.873,3.379l.793,1.034A362.011,362.011,0,0,0,573.264,648.6c2.758-2.057,5.459-4.183,8.24-6.206,2.735-1.988,4.321-4.195,2.563-7.758a18.458,18.458,0,0,1-1.241-4.988c-.621-3.471.414-6.091,2.839-7.5,2.459-1.425,5.034-.908,7.792,1.6a15.108,15.108,0,0,1,1.172,1.253c3.08,3.517,3.1,3.54,6.206.54,8.528-8.275,16.653-16.895,22.733-27.192a73.025,73.025,0,0,0,3.241-6.677c.448-.988.345-2.184-1.023-1.724-1.747.6-3.276.609-3.724-1.184a9.632,9.632,0,0,1,.345-4.9,5.333,5.333,0,0,1,2.356-2.4c3.873-2.436,7.769-4.884,11.769-7.091,2.873-1.586,4.137-1.126,5.126,2.1,1.517,4.908,2.816,9.9,3.908,14.906.678,3.115-1.276,5.379-4.517,4.827-2.563-.437-3.149.644-3.931,2.459a140.675,140.675,0,0,1-12.366,22.158c1.563-1.379,3.115-2.781,4.7-4.126s3.333-2.574,4.861-4c15.987-14.906,30.663-30.962,42.742-49.259.529-.793,1.149-1.54,1.643-2.356,2.034-3.4,1.839-4.011-2.08-4.9Zm-77.646,75.7c.264.667.425,1.011.54,1.368,2.344,7.287,2.276,7.218,7.815,1.988,10.631-10.033,19.86-21.135,26.319-34.352.839-1.712,1.368-3.563,2.23-5.264,1.2-2.356.172-4.011-1.425-5.586-2.126-2.092-3.678-1.977-4.712.781-5.471,14.55-15.872,25.434-26.572,36.122-1.08,1.08-2.23,2.092-3.252,3.229a7.822,7.822,0,0,0-.942,1.712Zm83.668-71.75c-5.781,7.9-11.16,15.734-17.055,23.17A263.141,263.141,0,0,1,627,622.369c-7.643,6.321-15.263,12.642-22.79,19.1a8.955,8.955,0,0,0-2.1,3.827c-1.793,5.195-2.7,5.838-8.068,6.333a9.6,9.6,0,0,0-4.586,1.758c-5.482,4.068-10.826,8.332-16.228,12.527a150.611,150.611,0,0,0,37.743-20.687c13.941-10.413,27.284-21.6,38.984-34.49,10.206-11.252,21.032-22.055,28.79-35.318,1.345-2.3,2.436-4.781,3.977-6.942,2.115-2.965,1.264-5.551-.092-8.344ZM722.43,673c1.586,1.057,3.333,1.908,4.792,3.1,5.022,4.1,5.7,9.585,4.666,15.561a39.312,39.312,0,0,0-.713,7.126,74.782,74.782,0,0,1,16.033-16.377,32.166,32.166,0,0,0,2.494-2.356c5.54-5.413,5.54-11.953-.035-17.343a26.919,26.919,0,0,0-2.655-2.023c1.655,4.7,3.241,8.907,1.517,15.033-.758-3.172-1.264-5.195-1.712-7.229-1.1-5.045-3.413-7.011-10.1-7.792,7.608,4.1,10.39,9.711,8.482,18.687-1.287-7.562-2.517-13.8-10.918-16.665,3.93,3.954,6.091,7.666,6.5,12.136a26.8,26.8,0,0,1,0,4.505c-.034.4-.724.747-1.115,1.115-.241-.437-.69-.85-.713-1.3-.115-3.655-.517-7.195-2.655-10.367-2.873-4.264-7.057-5.861-11.907-4.321a7.978,7.978,0,0,0-1.551.736c-2.115,1.241-4.206,2.505-6.31,3.758,1.965,1.333,3.919,2.689,5.9,4.011ZM670.724,694.82c12.458-8.194,24.756-16.642,37.409-24.5A226.421,226.421,0,0,1,730.9,658.273a17.913,17.913,0,0,1,11.642-1.793c8.091,1.7,12.792,5,14.159,15.205a51.664,51.664,0,0,0,6.068-22.79c.241-5.976-3.551-9.93-8.5-12.631-6.114-3.333-12.826-4.781-19.722-5.413-5.482-.506-10.964-1-16.366-1.908,15.757-.977,31.238-.713,44.547,10.493.3-4.8-.885-8.3-4.816-11.125a35.693,35.693,0,0,0-16.228-6.631c-7.585-1.057-15.148-1.667-22.79-.253a19.725,19.725,0,0,1-9.24-.873,31.379,31.379,0,0,1,4.689-1.241,136.771,136.771,0,0,1,13.677-1.115c9.987-.08,19.848.816,28.64,6.31a7.064,7.064,0,0,0,1.54.747c.287.092.793.057.931-.126.184-.253.287-.85.126-1.034a13.549,13.549,0,0,0-2.7-2.735c-6.172-3.9-13.148-4.988-20.25-5.379-13.883-.747-27.342,1.8-40.6,5.609-1.712.494-3.471.793-5.206,1.184-.057-.4-.126-.8-.184-1.207,20.745-6.873,41.65-11.838,63.556-5.137-2.747-5.873-10.321-12.378-19.354-17.228a45.884,45.884,0,0,0-26.606-5.126c-9.16.851-16.642,5.884-24.675,9.665a44.054,44.054,0,0,1,22.078-11.527c8.355-1.816,16.573-.609,24.974,1.793-3.172-8.378-18.549-23.055-33.306-30.284A82.526,82.526,0,0,1,692.468,571c-2.345,3.08-3.149,3-5.724.138a12.265,12.265,0,0,1-1.115-1.54c-5.16,7.31-10.321,14.654-15.515,21.963-.885,1.241-1.931,2.368-2.873,3.563-1.54,1.942-3.057,3.908-4.586,5.861,1.6,1.494,3.1,3.1,4.816,4.471,5.677,4.54,7.735,18.481,2.77,26.054-1.483,2.264-3.39,3.977-6.022,3.54-2.9-.483-3.77-2.908-3.574-5.7a5.8,5.8,0,0,0-.333-1.4,316.9,316.9,0,0,1-43.052,28.089c-14.895,8.148-29.985,15.952-45.1,23.963,7.666-.172,15.653-2.149,23.675,2-6.022,0-11.527-.425-16.929.115a82.657,82.657,0,0,0-16.056,3.7c6.344.69,12.711,1.184,19.009,2.126,6.516.977,12.884,2.632,19.285,6.942-7.413-1.6-13.792-3.321-20.3-4.264a139.189,139.189,0,0,0-19.986-1.115c17.963,2.712,34.686,9.941,52.27,13.86a105.64,105.64,0,0,0,18.619,2.816c14.148.552,27.112-3.609,38.926-11.378Zm-35.1,147.109c.081.563.172,1.115.379,2.39,1.839-2.287,3.425-4.114,4.816-6.068a4.626,4.626,0,0,0,.69-2.551c0-6.666-1.575-12.849-5.643-18.274a15.469,15.469,0,0,1-2.31-4.482c2.184.77,3.333,2.54,4.574,4.321a30.372,30.372,0,0,1,5.792,14.171c.034.322.713.575,1.092.85.172-.333.517-.69.471-1a16,16,0,0,0-.7-3.885c-2.08-5.229-4.3-10.413-6.666-16.09,2.919,1.609,4.011,4.31,5.367,6.6a72.649,72.649,0,0,1,3.77,8.332c.529,1.241.977,1.678,2.505.942,4.034-1.954,5.85-4.609,5.367-9.39-.758-7.539-3.321-14.47-5.85-21.457-.31-.873-.713-1.7-1.241-2.942,2.368,1.85,2.839,2.31,3.31,3.54,2.7,6.93,5.6,13.8,6.4,21.319a25.1,25.1,0,0,0,1.2,4.057c5.16-3.965,4.482-8.919,3.31-13.78-1.724-7.16-5.62-13.332-9.367-19.561a10.66,10.66,0,0,1-1.816-4.919,16.912,16.912,0,0,1,1.862,2.115c3.138,5.011,6.482,9.93,9.24,15.148,1.667,3.149,2.448,6.781,3.551,10.229.919,2.885,1.586,3.333,3.85,1.575a53.345,53.345,0,0,0,5.632-5.54,4.2,4.2,0,0,0,.931-4.724c-2.482-7.011-4.8-14.067-7.206-21.1a10.826,10.826,0,0,1-.862-3.206c3.494,3.034,4.735,7.355,6.356,11.4,1.678,4.172,3.011,8.482,4.712,12.677.149-6.815-1.954-13.148-4.114-19.5,4.034,4.1,5.16,9.436,6.5,14.665a18.589,18.589,0,0,1,.207,2.287c.184,1.506,1.207,1.816,2.471,1.6,2.839-.471,5.264-1.6,5.471-4.873a77.821,77.821,0,0,0,.23-11.907c-.31-3.367-1.609-6.643-2.368-9.976a27.57,27.57,0,0,1-.253-3.862c3.609,6.091,4.7,12.148,5.413,18.147.414,3.482-.667,7.148-1.149,10.723-.3,2.241.575,3.459,2.643,2.839a7.578,7.578,0,0,0,4.034-2.77,18.923,18.923,0,0,0,3.023-12.975c-2.471-19.584-10.194-37.1-20.5-53.6a64.67,64.67,0,0,0-17.136-18.3c-5.206-3.747-11.206-5.655-17.4-6.988a4.545,4.545,0,0,0-1.712-.1c-17.216,3.069-33.26-2.092-49.35-6.965a10.43,10.43,0,0,0-4.655-.609c4.413,2.092,8.861,4.126,13.24,6.3s8.689,4.459,13.021,6.7c-.2.425-.391.839-.575,1.264q-5.362-2.224-10.723-4.459c7.93,7.723,17.033,14.217,22.607,24.158-2.517-1.046-4.16-3.2-5.873-5.195-9.884-11.573-22.273-19.653-36.065-25.756-.448-.2-1.069-.023-2.632-.023,10.861,5.758,19.883,12.274,26.388,21.8-4.551-2.115-7.057-6.746-11.206-9.367-4.356-2.747-8.528-5.873-13.1-8.171a92.177,92.177,0,0,0-14.918-5.8,110.116,110.116,0,0,0-15.079-3.149,89.141,89.141,0,0,0-15.389-.862c5.769.885,11.516,1.977,17.308,2.62,13.585,1.494,25.078,7.631,35.662,15.791,16.86,13.021,27.824,29.858,31.571,50.9,1.563,8.781,2.689,17.745.8,26.755-1.391,6.7-2.345,13.493-3.563,20.239-.333,1.839-.138,3.229,1.494,4.517,7.482,5.919,10.792,14.079,12.125,23.239Zm-19.837-2c3.436,2.4,6.815,4.953,10.447,7.022,4.264,2.425,6.815.586,6.735-5.632-1.161-6.735-3.62-14.09-9.3-19.929-2.436-2.505-2.988-2.253-4.183.839-1.586,4.091-3.034,8.263-4.884,12.24-1.1,2.356-.839,4.046,1.184,5.459ZM476.643,860.41a34.861,34.861,0,0,1-3.287,1.46,39.09,39.09,0,0,1-6.953,2.057c-2.034.276-3.31.69-3.034,2.494-.046,5.241,3.183,7.264,7.528,5.344,3.3-1.46,4.448-4.505,5.6-7.482.437-1.138.126-2.574.161-3.873Zm.483-28.974c.713,5.482,1.46,10.964,1.873,16.458.356,4.758.9,9.654.2,14.309-.552,3.678-2.873,7.091-4.436,10.7,5.333-3.057,6.137-9.516,9.849-13.849a34.3,34.3,0,0,1-6.6,14.952c1.609-1.08,3.218-2.161,5.241-3.517-2.6,5.563-6.379,7.758-15.3,8.758,3.23,2.333,5.62,4.85,8.551,5.976a23.706,23.706,0,0,0,9.585,1.057c1.942-.1,3.965-1.345,5.677-2.482,8.309-5.505,14.355-13.09,19.308-21.607,1.046-1.8,1.908-3.712,3.034-5.919.287,7.7-10.9,22.147-23.825,31.249.184.31.3.758.575.931,6.884,4.011,7.091,4.172,12.274-2.046,9.918-11.9,19.6-24.02,26.617-37.915,7.091-14.01,12.435-28.663,15.033-44.259a137.806,137.806,0,0,0,2.264-26.158,9.168,9.168,0,0,1,.54-3.908c.241,7.919,1.483,15.826-.161,23.733-1.632,7.815-2.793,15.745-4.793,23.457A129.59,129.59,0,0,1,526.132,859c-7.114,11.045-15.217,21.457-23.3,32.732,1.862-.667,3.666-.839,4.8-1.793a78.818,78.818,0,0,0,10.033-9.321,175.934,175.934,0,0,0,22.951-34.881,2.475,2.475,0,0,1,1.816-1.437,35.107,35.107,0,0,1-1.345,4.068,159.153,159.153,0,0,1-25.342,38.042,44,44,0,0,1-7.528,6.16c-1.735,1.253-1.207,2.092.1,3.011,3.3,2.333,5.666,2.2,9.309-.873a62.577,62.577,0,0,0,12.4-14.205c1.333-2.092,2.666-4.183,4.046-6.241.161-.241.609-.287.931-.414.138.345.437.724.368,1.011a8.249,8.249,0,0,1-.85,2.08c-4.781,7.884-10.091,15.32-17.538,20.975a10.013,10.013,0,0,0-1.287,1.482c.678.126,1.437.529,2.011.345a26.924,26.924,0,0,0,12-8.447c2.977-3.425,5.632-7.126,8.758-10.459a38.357,38.357,0,0,1-12.148,16.481,44.725,44.725,0,0,1-5.31,3.39c-1.54.873-1.264,1.575-.046,2.436.781.552,1.494,1.2,2.253,1.77,5.356,4.057,8.551,3.988,13.987.207a53.047,53.047,0,0,1,6.333-3.839,164.375,164.375,0,0,0,55.488-45.408c11.665-14.78,18.676-31.9,22.4-50.3a101.51,101.51,0,0,0,2.356-23.871c-.736-19.71-6.7-37.409-20-52.35-10.654-11.976-23.331-20.814-38.857-25.169-5.091-1.425-10.355-2.241-15.906-3.413,2.54,2.908,4.792,5.471,7.034,8.045-.276.3-.54.609-.816.908-3.39-2.678-5.93-6.666-11.286-7.838,4.367,6.942,9.493,12.872,9.562,21.089-4.459-9.654-9.24-18.986-19.584-23.894a80.226,80.226,0,0,1,5.3,6.735,99.372,99.372,0,0,1,5.16,9.562c.356.736.034,1.8.034,2.724a10.864,10.864,0,0,1-1.69-1.724c-1.678-2.781-3.08-5.735-4.93-8.39a36.492,36.492,0,0,0-6.229-6.643c3.287,7.861,8.045,14.952,10.033,23.342a111.137,111.137,0,0,1,3.149,25.882c-2.207-3.517-2.034-3.54-2.414-6.631-.69-5.666-1.3-11.366-2.482-16.929A55.432,55.432,0,0,0,529,704.6c-.092,1.816-.172,3.218-.241,4.632-.368,6.85-.655,13.711-1.126,20.549-.506,7.4-3.528,14.01-6.93,20.457q-4.258,8.085-8.493,16.182c-.207-2.942-.1-3.919,1.46-6.988,2.172-4.252,4.6-8.378,6.735-12.654,3.919-7.815,5.505-16.2,5.769-24.871.115-4,.023-8.01-.207-12.056-2.3,10.056-5.448,19.687-11.619,28.089,3.321-9.263,6.838-18.423,8.206-28.284-2.666,4.16-4.781,8.643-10.424,11.792,1.264-1.977,1.816-3.057,2.574-3.977,3.632-4.4,5.448-9.585,6.654-15.044.46-2.08.184-3.678-2.126-4.609-4.586-1.839-6.815-5.413-6.769-10.286.023-2.747-1.2-3.712-3.781-3.793a31.082,31.082,0,0,0-22.032,8.148c-11.458,10.033-18.377,22.94-21.94,37.524a81.678,81.678,0,0,0-.517,34.157c2.839,15.55,6.758,30.893,9.884,46.4,1.425,7.08,2.1,14.309,3.034,21.48ZM420.742,882.89c11.229-11.757,22.457-23.515,33.95-35.007,5.252-5.252,11.171-9.849,16.722-14.814,1.356-1.218,4.057-2.712,2.781-4.379-1.149-1.506-2.9,1.138-4.137,2.057-4.264,3.161-8.3,6.654-13,9.643a10.744,10.744,0,0,1,1.517-2.253c3.862-3.4,7.792-6.735,11.711-10.079,1.011-.874,2.126-1.643,3.08-2.574,1.827-1.793.563-3.827-.253-5.275-1.011-1.793-2.253.172-3.275.7-2.333,1.218-4.586,2.609-7.195,4.115.368-3.356,3.287-3.6,4.942-5.057.977-.862,2.414-1.207,3.425-2.046.736-.609,1.621-1.689,1.552-2.482-.126-1.54-1.437-2.126-2.977-1.873-2.632.437-5.275.816-7.873,1.379-28.675,6.252-55.465,16.987-79.588,33.9-11.872,8.332-24.181,16.136-34.548,26.434-10.6,10.527-20.457,21.676-27.1,35.26a24.76,24.76,0,0,0-1.816,5.183c6.689-7.436,13.872-13.987,23.342-17.7-3.666,2.839-7.528,5.459-10.93,8.574a89.472,89.472,0,0,0-9.666,10.458,10.569,10.569,0,0,0-1.793,5.861c-.172,3.942,1.9,5.379,5.861,4.62a36.9,36.9,0,0,0,15.24-6.3c7.045-5.218,14.148-10.458,20.653-16.32,10.229-9.206,19.848-19.1,30-28.387,8.16-7.47,16.734-14.5,25.146-21.71a12.441,12.441,0,0,1,2.241-1.241c.172.264.356.529.529.8-3.494,3.08-7.022,6.114-10.459,9.24q-13.136,11.964-26.192,24c-10.528,9.734-20.848,19.7-31.571,29.2a72.34,72.34,0,0,1-19.009,12.332c18.6-4.792,33.146-16.136,46.994-30.008-4.747,12.389-34.26,31.491-51.477,33.961,4.965,4.379,11.125,3.609,17.975.885a73.612,73.612,0,0,0,19.6-11.757c2.77-2.276,5.62-4.471,8.93-7.114-2.356,4.977-7.114,9.1-18.71,16.584-7.034,4.54-14.47,7.781-23.388,6.942,3.2,2.172,5.229,2.471,9.3,1.643,7.8-1.574,14.711-5.264,21.48-9.194a15.448,15.448,0,0,1,5.827-1.85c5.287-.8,10.424-2.276,14.32-6.4,12.6-13.343,25.158-26.721,37.835-40Zm-102.068,44.8V956.64c3.023-1.368,6.471-1.908,7.9-3.9,1.2-1.667-.057-5.034-.057-7.643,0-3.839.046-7.677-2.437-10.918-1.437-1.885-3.034-3.655-5.4-6.494Zm17.906,16.125c7,3.31,5.436,3.678,12.8-2.77C344.555,942.09,340.579,942.941,336.579,943.814Zm31.065,7.47c4.069-.483,8.183-.724,12.194-1.494,13.757-2.632,26.951-.552,39.88,4.333a183.689,183.689,0,0,0,37.042,9.528c19.009,2.931,38.122,5.252,57.108,8.309,15.826,2.551,31.514,5.953,46.282,12.481,16.55,7.321,30.985,17.377,40.961,32.893,1.85,2.873,3.356,5.988,5.31,8.827-3.6-13.32-9.608-25.388-19.412-35.961,9.275,3.1,21.859,26.1,25.146,48.592a71.993,71.993,0,0,0-8.148-38.133c-8.551-16.515-21.2-29.376-36.168-40.018-26.721-19.009-56.442-30.835-88.6-37.03a191.229,191.229,0,0,0-46.753-3.057c-15.607.839-31.134,2.781-46.3,6.9a9,9,0,0,0-3.655,1.862c1.379-.23,2.758-.448,4.137-.689,4.873-.816,9.734-1.655,14.619-2.414.414-.069.908.356,1.356.563-.391.379-.724,1.023-1.184,1.115-6.321,1.368-12.757,2.31-18.952,4.068a128.668,128.668,0,0,0-18.607,7.183c24.71-6.643,49.638-11.252,75.313-10.344-20.182,2.149-40.421,3.965-60.085,9.562,17.216-1.368,34.283-3.931,51.753-2.529a320.357,320.357,0,0,1,51.879,7.965c16.722,4.149,33.111,9.344,48.339,17.779-1.023-.31-2.08-.529-3.069-.931A290.62,290.62,0,0,0,463.932,942c-9.78-1.666-19.538-3.218-29.491-3.425-6.1-.126-12.205-1.023-18.274-.793-16.216.609-32.375,2.046-47.983,6.9a76.891,76.891,0,0,0-14.274,6.264,14.807,14.807,0,0,0,3.207-.23c9.16-2.643,18.251-5.574,27.48-7.953a102.113,102.113,0,0,1,16.872-2.781c3.31-.276,6.735.77,10.171,1.667-15.481-.586-29.985,3.275-44.006,9.654ZM319.8,1003.347c.644,7.781,1.333,15.561,1.977,23.342.437,5.321.793,10.654,1.218,15.975.816,10.263,1.471,20.538,2.54,30.778,1.241,11.93,2.85,23.813,4.31,35.72q1.845,15.033,3.7,30.054c.3,2.425.644,4.85.965,7.286,2.276-.046,4.563.034,6.827-.184,2.724-.264,3.517-1.161,3.207-3.666-.827-6.8-1.816-13.6-2.7-20.388-.977-7.551-1.954-15.113-2.85-22.675q-1.638-13.912-3.149-27.824c-.494-4.551-.954-9.1-1.333-13.665-.873-10.458-1.678-20.906-2.517-31.364-.368-4.563-.7-9.125-1.2-13.676a5.559,5.559,0,0,0-1.379-3c-2.839-3.057-5.827-5.988-9.344-9.539a19.746,19.746,0,0,0-.287,2.827ZM313.26,964.26c-5.252,4.16-4.735,9.5-3.3,14.677,2.046,7.367,6.907,13.182,11.964,18.653a285.242,285.242,0,0,0,28.916,26.962q21.5,17.619,42.708,35.571c9.608,8.16,19.136,16.423,28.364,25.009,13.171,12.275,25.514,25.319,34.777,41.34-.253-4.781-2.149-8.6-10.849-20.044-4.6-6.045-9.769-11.654-14.8-17.619,7.988,3.965,19.745,18.71,27.974,33.709,1.149-7.206-3.1-17.481-13.366-33.031,6.379,4.206,11.01,12.263,16.193,27.882.3-9.8-1.126-18.86-2.643-27.859a164.43,164.43,0,0,0-18.458-52.132c-6.574-11.918-14.619-22.836-23.135-33.41-2.034-2.528-4.275-4.907-6.195-7.516-11.562-15.642-26.847-27.031-42.8-37.662-1.586-1.057-3.4-1.758-5.034-2.758-2.414-1.494-4.919-1.62-8.091-.874,5.643,5.689,10.826,11.229,14.09,18.5a30.3,30.3,0,0,1-2.551-2.3c-3.919-4.425-7.712-8.976-11.723-13.32-2.023-2.2-4.505-3.241-7.7-2.172-3.241,1.092-6.62,1.747-9.941,2.6-2.528.644-2.586,2.23-1.724,4.287A50.59,50.59,0,0,0,346.82,978.8c9.413,9.516,19.2,18.653,28.732,28.054,12.539,12.355,25.169,24.629,37.363,37.329,5.769,6.011,10.608,12.929,15.872,19.434l-.782.862a29.011,29.011,0,0,1-3.207-3.069c-14.3-18.561-31.077-34.709-48.282-50.5q-16.481-15.119-32.2-31.077c-3.954-4.034-6.758-9.194-10.068-13.86a11.1,11.1,0,0,0-2.4-2.758c1.793,10.527,7.9,18.756,14.205,26.824,6.379,8.16,14.194,14.883,22.1,21.745a13.938,13.938,0,0,1-2.517-1.149c-13.493-9.447-24.756-21.009-32.9-35.4-4.275-7.551-4.942-10.482-5.471-18.412-4.758,3.4-6.034,7.321-4.632,13.125,1.9,7.873,6.425,14.228,11.458,20.285,4.023,4.839,8.309,9.459,13.412,15.217-1.965-.977-2.931-1.218-3.574-1.816A125.747,125.747,0,0,1,324.512,981.1c-3.6-5.425-5.8-11.16-5.137-17.791a26.019,26.019,0,0,0-.184-3.1c-2.276,3.241-3.161,5.861-2.62,9.079a44.216,44.216,0,0,0,5.62,14.906c2.368,4.068,4.988,7.976,7.677,12.251-7.7-4.609-15.469-19.756-16.607-32.226Zm-150.649-3.482c-2.253,4.218-4.114,8.654-6.471,12.8-4.252,7.482-9.16,14.481-16.331,19.687,12.688-1.919,24.526-5.758,34.053-14.63a24.806,24.806,0,0,0,5.4-8.022c4.264-9.6,8.309-19.3,12.205-29.042a108.316,108.316,0,0,1,12.343-22.02,26.741,26.741,0,0,0-8.781,7.275C189.8,933.6,186.9,941.492,183.9,949.354c-2.172,5.689-4.379,11.355-8.872,15.929,1.448-3.517,3-7,4.333-10.562s2.4-7.252,3.735-10.838c1.379-3.724,2.942-7.378,3.528-11.723a23.817,23.817,0,0,0-3.4,3.862c-3.655,6.47-7.275,12.987-10.642,19.607-2.678,5.264-4.942,10.746-10.183,14.355,2.4-4.379,4.953-8.689,7.149-13.171a143.946,143.946,0,0,0,5.838-14.079c-5.643,5.068-9.286,11.5-12.757,18.032ZM263.795,858.767c-10.528-2.758-21.308-4.494-32.272-3.816-10.4.644-20.411,2.735-29.111,9.01-6.114,4.413-9.194,9.5-10.171,17.6,11.481-17.044,28.02-21.664,46.96-20.687-17.458,1.712-34.341,4.6-44.294,21.756,3.356-2.758,6.493-5.873,10.125-8.183a57.092,57.092,0,0,1,11.838-5.643c4.229-1.46,8.562-3.207,13.366-2.092-16,3.264-30.123,9.263-37.513,25.33a45.193,45.193,0,0,1,4.655-4.39c4.172-2.977,8.482-5.781,12.8-8.551.414-.264,1.3.218,1.965.345-.345.437-.609,1.057-1.057,1.264a46.437,46.437,0,0,0-16,11.872,7.161,7.161,0,0,0-1.552,2.54c3.54-2.551,6.884-5.39,11.527-5.494A33.326,33.326,0,0,0,190.6,902.98a13.225,13.225,0,0,0-1.575,3.046c-2.908,10.412-8.424,19.641-13.136,29.238-.379.77-.667,1.6-1.345,3.253,6.011-5.333,11.091-10.194,16.527-14.6a115.062,115.062,0,0,1,51.948-24.112c6.654-1.241,13.78-.781,20.607-.184,11.194.988,22.365,2.459,33.237,5.551,3.448.977,6.827,2.161,10.4,2.942-9.987-10.447-22.446-16.412-36.26-19.837-13.573-3.367-27.319-4.942-41.317-2.6,6.539-3.356,23.5-3.287,40.4-.126,13.78,2.574,26.054,8.528,37.352,17.078-2.793-8.125-25.848-22.94-48.328-29.008,4.344-1.31,7.85.23,11.263,1.391,15.044,5.114,28.64,12.631,39.582,24.434a13.709,13.709,0,0,0,2.276,1.161c-3.011-4.252-4.988-7.677-7.574-10.539-5.769-6.379-11.711-12.631-19.377-16.872-.667-.368-1.552-.736-1.816-1.345-3.816-8.5-11.792-11.033-19.676-13.09Zm11.631-43.248A186.5,186.5,0,0,0,214.571,794.5c-21.641-3.39-46.443-3.161-68.762,6.057,14.481-2.4,28.744-.586,42.983,2.322q-13.292-.638-26.572-1.264v.414c7.643,1.437,15.4,2.459,22.917,4.413a245.035,245.035,0,0,1,25.572,8.171c8.987,3.425,16.791,9.16,24.422,14.895,16.941,12.757,33.824,25.583,50.293,38.938,11.7,9.493,22.974,19.584,31.479,32.582a19.113,19.113,0,0,0-.3-3.563,29.7,29.7,0,0,0-7.953-13.746c-5.08-4.9-10.493-9.447-15.757-14.148a12.7,12.7,0,0,1-2.632-2.9c8.792,3.77,14.929,10.953,22.02,17-7.436-13.7-19.1-23.675-31.077-34.64,9.47,3.758,26.9,22.308,37.168,37.915a57.649,57.649,0,0,0-2.482-6.838A88.491,88.491,0,0,0,302.48,860.2a156.8,156.8,0,0,0-32.3-27.284c-.632-.4-1.207-.873-2.046-1.471,3.367.126,5.045.954,11.619,5.942,3.8,2.885,7.643,5.746,11.229,8.884,3.459,3.011,6.723,6.264,9.872,9.6a135.059,135.059,0,0,1,9.378,10.815c2.77,3.632,5.1,7.6,7.884,11.263-3.4-13.8-11.183-25.032-21.411-35.283,10.642,3.609,23.423,27.411,26.652,48.914,4-13.4-1.069-28.41-7.218-38.317-10.114-16.285-23.951-28.583-40.719-37.743Zm-37.26-115.963c8.057,3.494,13.55,10,18.791,16.515,9.861,12.274,17.458,26.02,23.8,40.409a59.952,59.952,0,0,1,3,9.826,3.439,3.439,0,0,1-.828,3.011c-.713.494-2.241.276-3.184-.149a18.935,18.935,0,0,1-4.31-2.816c-7-6-14.389-11.378-22.859-15.159a6.335,6.335,0,0,1-1.322-1.172q4.816-.115,25.181,13.677c-5.689-7.068-12.32-10.792-19.193-13.906-6.723-3.046-13.8-5.31-20.986-8.022,9.574-1.977,33.881,10.183,44.213,22.3-1.529-7.263-4.229-12.883-9.3-17.239-6.907-5.919-15.251-8.551-23.963-10.206-7.114-1.345-14.263-2.011-21.963.839,8.689,4.218,14.205,11.344,20.607,17.469,3.31,3.172,6.562,6.413,10.068,9.367a25.467,25.467,0,0,0,19.136,6.206c7.011-.632,13.263,4.8,15.561,11.033a501.879,501.879,0,0,1,17.653,56.223,10.8,10.8,0,0,0,1.689,3.563c2.161,3.115,4.459,6.149,6.7,9.217.264-.069.529-.149.8-.218-.988-6.367-1.747-12.792-3.011-19.1-3.31-16.481-8.654-32.41-13.757-48.4-.655-2.057-1.356-3.908-4.045-4.046a4.053,4.053,0,0,1-2.322-1.54c-.69-.793-1.77-2.31-1.506-2.7,1.31-1.873,2.253-.023,3.08.747,2.149,2.011,3.494.655,4.6-1.057,2.632-4.069,6.413-5.815,11.286-5.8-6.505-4.563-14.906-3.954-20.124,1.31-.4.4-.586,1.046-1.011,1.368a4.481,4.481,0,0,1-1.483.448c-.115-.506-.46-1.115-.287-1.506a5.167,5.167,0,0,1,1.575-2.333c2.942-1.816,2.919-3.988,1.517-6.827-3.885-7.884-7.4-15.952-11.435-23.756A222.512,222.512,0,0,0,257.5,700.9c-5.241-6.631-11.355-12.366-17.5-18.1-1.483-1.379-2.6-.77-3.2.506-1.264,2.735-2.666,5.54-3.161,8.459-.827,4.884-.161,5.781,4.517,7.8ZM7.193,627.863c4.678,7.85,11.171,14.067,18.067,19.86C43.878,663.4,65.347,674.26,87.39,684.109a370.648,370.648,0,0,0,71.635,23.744c9.677,2.126,19.377,4.172,29.353,4.494,4.953.161,9.907.942,14.837.816a51.885,51.885,0,0,0,18.469-3.39,8.589,8.589,0,0,0,4.057-3.126c-1.4.322-2.8.724-4.229.954-11.757,1.919-23.491,1.689-35.341.425-16.527-1.758-32.674-5.241-48.718-9.4a341.348,341.348,0,0,1-49.327-16.5,6.4,6.4,0,0,1-3.287-3.092c4.505,1.793,8.987,3.643,13.516,5.367a395.012,395.012,0,0,0,60.361,17.412c8.367,1.735,16.791,3.356,25.273,4.4,11.55,1.437,23.227,2.574,34.743.057,4.195-.919,8.1-3.218,12.056-5.068.621-.287.782-1.575,1.149-2.391-.793.011-1.712-.241-2.345.08-6.838,3.413-14.09,4.252-21.653,4.482-17.228.529-33.7-3.138-50.006-8.08a2.156,2.156,0,0,1-1.62-1.506c2.724.621,5.448,1.218,8.16,1.85,13.745,3.172,27.525,6.1,41.731,6.149,7.1.023,14.5-1.517,19.618-3.977a6.266,6.266,0,0,0-1.62-.287c-17.619,1.931-34.421-2.391-51.189-6.746a180.593,180.593,0,0,1-24.963-8.206,18.423,18.423,0,0,1,3.586.4,349.54,349.54,0,0,0,40.4,10.275c8.424,1.54,16.895,3.161,25.526,2.758a43.588,43.588,0,0,0,8.964-1.62,8.722,8.722,0,0,0,3.85-2.356c.69-.7.69-2.069,1-3.138-.862.138-1.724.218-2.563.425a66.438,66.438,0,0,1-23.756,1.712c-22.377-2.471-43.466-9.631-64.671-16.515-1.08-.356-2.149-.77-3.2-1.23-.241-.1-.356-.483-.977-1.356,6.183,1.827,11.826,3.321,17.366,5.172a278.768,278.768,0,0,0,42.064,10.654c7.482,1.253,15.205,1.126,22.825,1.333,2.356.069,4.735-.816,7.08-1.471-22.032.184-42.409-7.091-62.947-13.573-5.091-1.609-10.091-3.517-15.113-5.321-.3-.1-.494-.506-1.172-1.264a23.911,23.911,0,0,1,4.218.667,364.264,364.264,0,0,0,50.488,14.642,140.7,140.7,0,0,0,19.216,2.758c3.517.253,7.172-.713,10.688-1.471,1.908-.414,2.563-1.85,1.919-4-1.437-4.781-4.551-8.355-8.057-11.619-7.953-7.367-17.412-12.355-27.158-16.837a16.82,16.82,0,0,1-5.838-3.712c2.391.793,4.781,1.574,7.689,2.54-5.563-5.769-42.11-20.147-64.889-26.273a15.558,15.558,0,0,1,3.8.046c15.906,4.126,31.514,9.171,46.42,16.113,8.654,4.022,17.147,8.4,25.641,12.757a97.2,97.2,0,0,1,24.7,18.308c-2.758-6.482-7.838-11.01-13.159-15.171-13.355-10.424-28.364-18-43.788-24.813a513.955,513.955,0,0,0-48.178-18.331,552.938,552.938,0,0,0-72.555-18.63,289.968,289.968,0,0,0-30.1-3.471c-4.3-.322-8.723.678-13.056,1.253a8.977,8.977,0,0,0-3.678,1.517c-2.149,1.448-2.425,3.459-.3,5.1A165.79,165.79,0,0,0,26.6,610.486,679.061,679.061,0,0,0,89.16,643.01a22.565,22.565,0,0,1,5.586,3.448c-14.918-5.252-28.9-12.539-43.087-19.343A380.957,380.957,0,0,1,10,603.946c1.873,3.747,5.275,5.953,8.528,8.08,11.861,7.758,24.56,14.021,37.5,19.779,10.642,4.735,21.331,9.367,31.985,14.09,1.552.69,3.011,1.6,4.827,2.563-5.965-.034-62.429-24.02-78.83-35.789,3.436,5.218,13.5,12.619,32.916,24.25,11.826,7.091,24.445,12.458,37.329,17.871a26.13,26.13,0,0,1-3.816-.609A180.365,180.365,0,0,1,46.82,639.643c-10.539-5.815-20.871-12.056-30.008-19.975-3.885-3.367-7.355-7.195-11.045-10.78a19.657,19.657,0,0,0-2.034-1.54,10.246,10.246,0,0,0-1.023,2.528c-.713,6.539,1.2,12.447,4.505,18.009Z" transform="translate(-0.039 0.04)" fill="#dbd0bd" fill-opacity="0.3"/></svg>