<svg xmlns="http://www.w3.org/2000/svg" xmlns:xlink="http://www.w3.org/1999/xlink" width="1042.55" height="1002.451" viewBox="0 0 1042.55 1002.451">
  <defs>
    <clipPath id="clip-path">
      <rect id="Rectangle_129" data-name="Rectangle 129" width="693.746" height="803.298" fill="#dbd0bd"/>
    </clipPath>
  </defs>
  <g id="Group_97" data-name="Group 97" transform="translate(695.678 0) rotate(60)" opacity="0.284">
    <g id="Group_95" data-name="Group 95" transform="translate(0 0.001)" clip-path="url(#clip-path)">
      <path id="Path_33" data-name="Path 33" d="M693.715,793.223a53.4,53.4,0,0,0-4.409-17.732,129.849,129.849,0,0,0-13.454-23.986c-.371-.545-.75-1.095-1.125-1.648-.4-.54-.794-1.09-1.191-1.644l-.14-.192c-.758-1.033-1.526-2.089-2.3-3.157q-1.282-1.669-2.6-3.375c-.877-1.147-1.767-2.3-2.713-3.441s-1.88-2.307-2.835-3.481-1.975-2.324-2.979-3.506-2.015-2.381-3.074-3.563-2.133-2.368-3.21-3.576c-8.692-9.612-18.608-19.546-29.5-29.624q-4.121-3.756-8.356-7.606-4.271-3.761-8.648-7.614-4.494-3.78-9.075-7.64-4.383-3.474-8.853-7.022a1.719,1.719,0,0,0-.17-.48c-1.108-2.006-2.669-4.239-4.474-6.829-1.6-2.285-3.38-4.836-5.2-7.727-8.67-13.764-18.168-35.176-12.25-71.8,6.559-40.6,1.146-56.026-4.549-61.813a11.518,11.518,0,0,0-4.71-3.005c7.431-20.636-29.755-48.774-50.038-64.124-4.985-3.767-8.923-6.75-10.794-8.552-9-8.661-17.906-27.034-18.992-29.306-.253-1.984-.5-3.969-.719-5.953,0-.022-.014-.043-.018-.065a1.378,1.378,0,0,0-.039-.184c-.013-.048-.026-.1-.044-.143s-.043-.1-.065-.153-.057-.1-.083-.148l-.092-.13c-.035-.044-.07-.088-.109-.131s-.078-.074-.122-.114a1.036,1.036,0,0,0-.126-.109c-.044-.03-.092-.061-.14-.092s-.1-.057-.153-.082a1.514,1.514,0,0,0-.148-.062c-.057-.022-.118-.044-.179-.061-.026,0-.044-.013-.07-.017a.643.643,0,0,0-.087-.013l-.183-.026c-.065,0-.126,0-.188,0a.577.577,0,0,0-.087,0,.307.307,0,0,0-.065.013,1.6,1.6,0,0,0-.205.035c-.039.008-.087.022-.126.03l-.2.079a.754.754,0,0,0-.1.052,1.583,1.583,0,0,0-.2.126.23.23,0,0,1-.057.044,1.362,1.362,0,0,0-.2.191.23.23,0,0,0-.031.03,2.413,2.413,0,0,0-.152.218c-.014.022-.022.039-.035.061-.031.065-.061.131-.088.2-.017.048-.03.092-.044.14,0,.022-.017.044-.022.07-9.149,41.744-13.118,70.539-12.874,93.361.231,21.29,3.807,36.588,9.673,59.266,5.678,21.984,23.249,41.883,36.981,54.709q2.5,2.329,4.932,4.462-5.528-2.8-11.116-5.49c-15.713-7.518-31.8-14.243-47.853-20.261-8.05-2.961-16.061-5.818-24.06-8.4-2.071-.7-4.147-1.361-6.219-2.006-26.184-16.035-52.5-45.59-70.984-79.941q-3.978-7.4-7.445-14.924a273.425,273.425,0,0,1-6.472-37.029,302.214,302.214,0,0,1-.3-66.689A222.1,222.1,0,0,1,349.981,330.4c4.535-6.218,16.728-20.618,24.7-20.628,9.149-.013,16.916-2.63,20.771-6.991a10.921,10.921,0,0,0,2.852-7.191,32.67,32.67,0,0,0,15.024-.558c9.184-2.42,22.79-9.917,35.455-31.9,7.649-13.275,15.163-21.888,21.6-27.479a45,45,0,0,0,11.094,1.055c6.973-.205,12.909-3.048,18.652-5.8,4.583-2.2,8.905-4.269,13.737-5.124a1.682,1.682,0,0,0,1.344-1.208,1.6,1.6,0,0,0,.043-.541,1.777,1.777,0,0,0-1.67-1.583L491.2,221c-7.405-.637-26.11-1.614-41.391,2.921a1.821,1.821,0,0,0-.6-.275c-28.735-7.209-48.638-1.4-60.277,4.736-11.544,6.092-17.366,13.559-18.5,15.111-12.634,8.36-21.208,27.6-25.495,57.186a281.875,281.875,0,0,0-2.7,41.813,236.359,236.359,0,0,0-7.571,38.7,305.894,305.894,0,0,0,.427,68.464c.85,7.378,1.849,13.9,2.809,19.315-2.364-5.958-4.553-11.945-6.612-17.95-6.31-18.412-11.369-36.99-16.336-55.245-4.888-17.963-9.947-36.541-16.123-54.792-.536-1.587-1.116-3.187-1.727-4.81,1.557-4.135,11.831-30.711,25.813-50.038,9.747-13.462,19.738-31.186,23.855-46.838,2.058-7.832,2.652-15.146,1.007-21.147,1.234-3.149,6.681-19.136,2.813-47.867-2.477-18.425-8.308-38.316-17.331-59.126C322.214,85.666,306.287,58.7,285.939,31,284.648,9.078,276.99.9,276.663.557A1.828,1.828,0,0,0,274.43.251a1.611,1.611,0,0,0-.732,1.823,174.143,174.143,0,0,1-1.06,21.631c-1.025,9.254-3.541,32.957-3.863,35.965-2.848,5.146-6,10.641-9.289,16.363-11.6,20.217-24.758,43.134-31.4,62.881a104.759,104.759,0,0,0-5.342,29.511,155.509,155.509,0,0,0,6.245,51.129c2.106,6.912,4.1,13.1,7.239,18.927a99.827,99.827,0,0,0,9.293,13.449c1.976,2.543,4.021,5.172,5.849,7.859,11.77,17.291,21.6,35.312,29.659,50.658,0,.009.013.017.017.026a.158.158,0,0,1,.009.026,183.565,183.565,0,0,1,14.461,31.461c6.145,18.155,11.19,36.68,16.066,54.6q2.545,9.354,5.168,18.8a143.463,143.463,0,0,0-10.009-14.178,120.337,120.337,0,0,0-11.308-12.294c-1.84-3.9-20.6-43.313-32.93-53.3-15.516-12.56-43.719-17.963-68.6-22.734-16.816-3.223-32.695-6.267-38.167-10.846-2.844-3.267-5.3-6.228-7.322-8.74q-1.728-2.152-3.459-4.282s-.009,0-.009-.009c-16.629-20.388-34.247-39.354-52.223-41.1a1.766,1.766,0,0,0-1.539.637,1.62,1.62,0,0,0-.235,1.6,98.318,98.318,0,0,0,12.228,20.859c7.732,10.3,21.051,24.064,40.6,31.185a1.776,1.776,0,0,0,1.788-.327c11.687,32.45,30.344,53.34,44.652,65.5,15.059,12.8,27.994,18.522,31.5,19.939,2.2,7.064,15.381,8.722,19.843,9.285,5.757.728,10.388.392,14.583-1.043,1.483-.514,3.035-1.2,4.535-1.862,3.088-1.37,6.28-2.782,9.21-2.856,12.189-.31,23.986,4.6,30.121,7.679,1.4,1.575,2.708,3.132,3.925,4.641a136.1,136.1,0,0,1,17.322,27.81c2.111,7.061,4.344,14.125,6.76,21.168a359.307,359.307,0,0,0,13.667,34.417,1.626,1.626,0,0,0,.092.192q2.584,5.579,5.429,11.1a468.23,468.23,0,0,0-43.942-40.784q-4.939-4.023-10.231-8.077Q279.108,438.311,265.2,429.5a1.1,1.1,0,0,0-.166-.1,303.882,303.882,0,0,0-39.776-21.417c-27.907-12.312-55.049-18.4-80.67-18.094-.035,0-.065.009-.1.009-.061,0-.118.013-.175.022a1.324,1.324,0,0,0-.183.039L144,390a1.773,1.773,0,0,0-.2.092.742.742,0,0,0-.078.044,1.312,1.312,0,0,0-.21.144.152.152,0,0,0-.039.03,1.567,1.567,0,0,0-.2.21l-.014.013a1.6,1.6,0,0,0-.358,1.06,1.69,1.69,0,0,0,.685,1.277.1.1,0,0,1,.026.017,1.431,1.431,0,0,0,.24.148.334.334,0,0,0,.074.039,2.039,2.039,0,0,0,.209.083c.031.008.052.021.083.031.07.017,7.217,2.15,20.514,16.445,16.59,17.836,46.829,26.3,62.79,21.944,13.715-3.737,32.926.153,35.856.785,10.026,6.34,19.236,12.878,27.44,19.149q3.873,2.963,7.566,5.922a439.37,439.37,0,0,1,56.035,53.418c16.014,27.034,36.65,50.518,57.84,65.978-2.154-.646-4.3-1.277-6.454-1.879-7.846-2.246-15.613-4.292-23.245-6.167s-15.128-3.576-22.451-5.1-14.5-2.861-21.4-4.073-13.572-2.416-19.969-3.554c-47.265-8.412-79.985-14.239-84.76-15.085-4.3-4.683-37.331-40.317-49.7-43.2s-35.085-11.879-42.237-17.492c-.528-.419-1.195-.981-1.971-1.631-9.023-7.61-35.468-29.886-98.834-34.043.366-13.449-20.178-31.935-26.742-37.483a129.624,129.624,0,0,1-11.43-10.964.533.533,0,0,1-.074-.07c-.048-.039-.092-.087-.144-.126s-.087-.061-.131-.092a1.152,1.152,0,0,0-.148-.092,1.03,1.03,0,0,0-.153-.069c-.052-.022-.109-.044-.161-.061a1.141,1.141,0,0,0-.161-.039,1.215,1.215,0,0,0-.17-.031,1.353,1.353,0,0,0-.183-.013c-.035,0-.07,0-.109,0a.188.188,0,0,0-.048.009c-.065,0-.126.013-.188.021s-.1.017-.157.035a.747.747,0,0,0-.157.053,1.573,1.573,0,0,0-.157.065,1.342,1.342,0,0,0-.135.075,1.552,1.552,0,0,0-.157.109.2.2,0,0,0-.039.026.5.5,0,0,0-.07.07.854.854,0,0,0-.131.126c-.035.043-.065.087-.1.13s-.061.088-.092.135-.048.1-.07.149a1.527,1.527,0,0,0-.057.152,1.111,1.111,0,0,0-.039.157,1.012,1.012,0,0,0-.026.152,1.325,1.325,0,0,0-.009.183c0,.035,0,.066,0,.1.026.388.911,9.921,22.63,42.463,3.34,5.01,8.277,10.1,14.3,15.163,1.962,21.809,32.28,72.995,58.6,90.208a43.293,43.293,0,0,0,7.244,3.877c.986.405,1.993.816,3.013,1.234,19.188,7.872,43.078,17.662,63.121,11.579,4.692-1.422,9.319-3.031,13.794-4.583a213.007,213.007,0,0,1,23.314-7.109c2.2-.493,4.688-1.09,7.327-1.722,4.641-1.1,9.7-2.312,14.252-3.228,1.949-.388,3.811-.728,5.5-.981,3.149.589,31.574,5.914,73.954,13.842a199.793,199.793,0,0,0-52.219,10.706q-2.119.759-4.239,1.592a134.251,134.251,0,0,0-38.05,1.905c-26.868,5.39-45.15,19.254-52.89,40.1-1.618,2.787-21.718,38.089-14.23,61.686-1.042,4.091-6.026,24.941-1.809,33.205q-.955,5.363-1.684,10.981c-.179.331-.353.663-.519,1.007-9.049,18.888,3.053,46.506,3.572,47.67a.45.45,0,0,0,.044.078,1.785,1.785,0,0,0,.1.183,1.162,1.162,0,0,0,.092.118c.039.047.074.092.118.139a.972.972,0,0,0,.13.109c.044.035.083.07.131.1s.109.061.166.1a.469.469,0,0,0,.1.052.067.067,0,0,0,.04.013,1.171,1.171,0,0,0,.178.066c.052.013.1.035.153.048s.113.013.174.022.109.017.161.022.114-.009.17-.013a1.057,1.057,0,0,0,.17-.013.864.864,0,0,0,.153-.035,1.154,1.154,0,0,0,.179-.048l.044-.013c.035-.013.061-.035.1-.048.057-.03.113-.052.166-.087s.092-.061.136-.092l.13-.1c.039-.039.078-.083.118-.123s.07-.083.1-.122a1.8,1.8,0,0,0,.1-.161c.017-.03.039-.057.057-.087A84.116,84.116,0,0,0,153.9,752.1c.021-.082.043-.174.065-.261.776-3,1.26-6.066,1.727-9.045q.164-1.066.34-2.133c1.129-6.921,2.22-15.09,1.731-23.227a19.789,19.789,0,0,0-1.805-7.924,32.369,32.369,0,0,1,5.233-1.975c19.332-5.5,28.238-15.491,32.306-22.9a33.175,33.175,0,0,0,4.217-14.173c4.811-2.909,28.085-18.334,33.48-47.369,5.181-27.888,13.624-44.408,15.189-47.3,3.6-1.583,7.222-3,10.824-4.269,28.923-10.187,56.728-10.719,65.04-10.628q7.634,1.427,15.73,2.944c6.9,1.273,13.955,2.651,21.221,4.239s14.675,3.331,22.228,5.259,15.238,4.016,23,6.323c3.894,1.116,7.78,2.355,11.714,3.559,3.908,1.273,7.863,2.5,11.8,3.863,7.906,2.625,15.821,5.53,23.763,8.531,15.848,6.105,31.7,12.9,47.164,20.47,15.451,7.584,30.527,15.874,44.875,24.766q6.849,4.245,13.454,8.67,4.7,3.133,9.267,6.354c-4.392-1.814-9.289-3.8-14.457-5.831-13.223-5.2-28.2-10.689-40.954-14.361-1.217-.348-2.778-.785-4.662-1.282-4.317-2.7-54.569-33.571-93.1-30.88-5.826.406-11.849.559-17.671.7-15.011.375-30.54.768-45.1,5.516-19.563,6.38-36.214,21.67-49.916,35.787l-.409.419c-1.308,1.348-2.809,2.891-4.414,4.579-7.78,8.138-18.085,19.528-21.369,27.465a.053.053,0,0,1-.009.013l-.009.022c-.009.031-.013.057-.021.087a.935.935,0,0,0-.048.144c0,.021-.013.043-.017.07s-.013.078-.017.113-.009.092-.009.135a.454.454,0,0,0,0,.075.923.923,0,0,0,.009.113.674.674,0,0,0,.013.135l.013.079a1.067,1.067,0,0,0,.031.1c.014.044.026.087.044.131l.026.079c.018.035.039.074.057.1a.743.743,0,0,0,.039.082c.009.017.017.027.026.044s.026.039.04.057a.792.792,0,0,0,.082.1,1.213,1.213,0,0,0,.1.118c.008.008.013.026.021.035s.009,0,.014.008l.092.078c.043.035.087.07.13.1.017.013.035.031.048.039.031.017.065.031.1.048a1.025,1.025,0,0,0,.148.082c.026.009.048.022.07.031,0,0,0,0,.013.008.026.009.057.013.087.022a1.191,1.191,0,0,0,.153.047c.026.009.052.013.078.022a.7.7,0,0,0,.109.013c.048,0,.1.014.144.014a.676.676,0,0,0,.083.008,1.088,1.088,0,0,0,.113-.008.694.694,0,0,0,.14-.009.529.529,0,0,1,.083-.008l.113-.027a1.31,1.31,0,0,0,.131-.039.476.476,0,0,0,.078-.022c.039-.017.078-.039.113-.057a.5.5,0,0,0,.087-.035c9.363-4.958,16.829-7.64,23.493-8.779,11.356-1.954,20.361.571,32.363,3.943,11.975,3.358,26.877,7.544,49.641,8.709,30.692,1.575,48.865-4.963,58.7-10.719a44.813,44.813,0,0,0,11.818-9.651,7.756,7.756,0,0,0,3.995,3.664c7.854,3.471,23.275-1.47,31.133-9.974,9.324-10.091,30.759-14.148,34.007-14.715,7.645,2.552,15.617,5.469,23.209,8.391,13.493,5.185,25.8,10.375,33.018,13.484,2.023,1.531,4.034,3.066,6.009,4.614q4.664,3.767,9.241,7.47,4.468,3.827,8.84,7.579,4.317,3.866,8.53,7.649l8.146,7.549c10.658,10.043,20.327,19.912,28.739,29.393q1.57,1.779,3.109,3.524c1.025,1.164,1.984,2.346,2.965,3.5.964,1.164,1.949,2.294,2.865,3.441s1.827,2.285,2.722,3.41c.907,1.108,1.761,2.237,2.6,3.353s1.666,2.2,2.481,3.284q1.177,1.648,2.32,3.249c.379.532.754,1.064,1.129,1.587.358.537.711,1.065,1.065,1.587q2.354,3.468,4.356,6.773a108.4,108.4,0,0,1,8.055,15.8,45.78,45.78,0,0,1,3.676,15.059,13.239,13.239,0,0,1-.384,4.222v0a.28.28,0,0,1-.013.035,4.179,4.179,0,0,0,2.39,5.372,4.315,4.315,0,0,0,5.651-2.128,18.19,18.19,0,0,0,.942-7.6M392.753,300.577c-3.79,4.287-11.871,5.827-18.164,5.836-6.747.009-14.635,7.012-20.322,13.253q2.766-6.358,6.1-12.664c4.719-2.024,18.094-7.078,32.428-6.476l-.039.052m1.16-1.675c-13.388-.824-26.092,3.306-32.272,5.735.611-1.108,1.23-2.22,1.867-3.319,4.985-1.84,19.276-6.568,31.238-5.242a7.5,7.5,0,0,1-.833,2.826M445.7,261.454c-9.507,16.5-20.964,26.964-33.131,30.27-9.1,2.469-15.5.074-15.56.057a1.789,1.789,0,0,0-1.735.222,1.6,1.6,0,0,0-.624,1.553c.044.287.074.567.1.837-11.064-1.191-23.65,2.455-29.89,4.618a167.6,167.6,0,0,1,25.691-32.886,125.643,125.643,0,0,1,16.1-3.271c3.777-.471,7.68-.637,11.456-.794a97.548,97.548,0,0,0,16.921-1.71,50.083,50.083,0,0,0,14.884-5.787q-2.093,3.232-4.208,6.89m6.716-10.623a46.64,46.64,0,0,1-17.823,7.885,96.57,96.57,0,0,1-16.611,1.666c-3.812.161-7.75.327-11.6.807a118.25,118.25,0,0,0-13.406,2.582c.977-.933,1.971-1.853,2.983-2.774,2.9-.938,6.114-1.928,9.407-2.769a99.174,99.174,0,0,1,13.126-2.128,115.019,115.019,0,0,0,11.675-1.771,142.76,142.76,0,0,0,22.171-6.563c1.073-.423,2.2-.886,3.341-1.4q-1.616,2.113-3.258,4.461m41.661-26.166a1.723,1.723,0,0,0,.689-.07l9.555.62c-1.989.837-3.921,1.761-5.826,2.677-5.656,2.713-11,5.277-17.213,5.46a42.331,42.331,0,0,1-7.5-.466,50.5,50.5,0,0,1,6.477-4.2c8.259-4.453,13.767-4.029,13.815-4.025m-11.814-.767c-6.436,2.726-14.9,8.238-24.077,19.323a56.476,56.476,0,0,1-6.559,2.992,141.6,141.6,0,0,1-21.9,6.48,113.146,113.146,0,0,1-11.5,1.736,100.07,100.07,0,0,0-13.362,2.177c-1.98.51-3.93,1.064-5.8,1.635a185.839,185.839,0,0,1,48.351-29.934c10.964-4.108,25.041-4.658,34.845-4.409m-38.076,2.032q-1.576.661-3.057,1.44a.25.25,0,0,1-.031.017,195.068,195.068,0,0,0-33.475,19.541c5.844-7.457,15.721-18.543,25.617-22.747a105.533,105.533,0,0,1,10.946,1.749M423.7,223.675c1.993,0,4.056.065,6.193.218-12.015,6.4-23.175,21.007-27.348,26.894-.092.065-.179.131-.266.205,3.044-6.873,9.93-19.742,21.421-27.318m-32.856,7.576a69.155,69.155,0,0,1,29.786-7.523c-12.5,9.315-19.192,24.4-21.212,29.572a170.049,170.049,0,0,0-22.9,22.826c.161-.584.322-1.194.493-1.836,2.512-9.542,5.883-25.294,4.518-37a59.632,59.632,0,0,1,9.311-6.035m-10.929,7.366c1.212,14.151-4.2,34.138-6.241,41.05-.837,1.072-1.67,2.158-2.486,3.257,1.779-8.464,4.178-23.659,2.246-37.609a44.552,44.552,0,0,1,6.48-6.7m-8.059,8.089c1.924,16.009-1.727,33.423-3.288,39.833q-2.734,3.9-5.277,7.963a184.548,184.548,0,0,0-17.409,36.585c.733-22.163,4.823-69.518,25.974-84.381m-27.527-29.367a1.612,1.612,0,0,0-.07,1.125,21.8,21.8,0,0,1,.72,3.419c-5.613,10.941-15.643,16.785-27.17,22.707-16.75,8.613-23.951,23.031-31.578,38.29-.493.985-.99,1.984-1.5,2.983.519-5.163,1.156-10.955,1.919-17.017a104.092,104.092,0,0,1,18.316-24.483c3.393-3.24,7.693-5.713,11.849-8.1a95.734,95.734,0,0,0,8.286-5.142A76.728,76.728,0,0,0,342.4,213.945a77.622,77.622,0,0,0,4.706-7.353,51.393,51.393,0,0,1-2.769,10.746m2.752-47.03a127.778,127.778,0,0,1,.728,31.151,76.291,76.291,0,0,1-6.864,11.509,74.913,74.913,0,0,1-16.916,16.8,94.535,94.535,0,0,1-8.138,5.05c-4.243,2.438-8.626,4.954-12.172,8.334a102.361,102.361,0,0,0-16.48,21.164c.685-5.133,1.461-10.384,2.324-15.556,7.27-7.632,44.016-47.169,57.334-79.772.065.445.122.881.183,1.317m-.724-4.762c-11.343,30.675-45.76,68.9-56.261,80.121.371-2.111.759-4.2,1.164-6.258.074-.375.148-.768.223-1.181,7.274-8.007,43.231-48.8,52.873-82.829.811,3.589,1.47,6.969,2,10.148m-2.861-13.8c-7.523,31.962-40.985,71.477-51.464,83.27,1.644-10.284,3.559-27.95,4.906-49.45,4.317-9.1,20.261-43.645,28.159-73.662q.9-3.408,1.635-6.72A257.091,257.091,0,0,1,343.5,151.749m-17.985-49.175c-5.961,28.3-21.7,64-28.285,78.245.087-1.6.178-3.223.261-4.858,2.521-6.86,8.944-24.949,14.113-44.578,3.8-14.462,6.921-29.751,7.287-42.006q3.585,6.79,6.624,13.2m-8.347-16.419c.31,25.124-13.2,66.318-19.385,83.814.432-9.6.733-19.724.837-30.108.327-31.417-1.108-71.617-8.888-97.73a444.477,444.477,0,0,1,27.435,44.024m-22.542,18.565C289.192,96.481,277.007,76,275.1,55.375q.563-1.053,1.1-2.085c3.066,19.812,14.57,39.672,18.142,45.477.109,1.984.2,3.973.283,5.953m-.493-9.642C289.318,86.8,279.668,68.4,277.6,50.586A104.118,104.118,0,0,0,283.954,35.9c5.835,14.784,8.805,36.659,10.179,59.179M276.122,24.141c.515-4.636.942-11.3,1.082-16.288,1.966,4.126,4.282,11,5.107,21.347-.04.031-.075.061-.109.092a.387.387,0,0,1-.044.039,1.967,1.967,0,0,0-.187.235c0,.009-.013.013-.017.022a1.508,1.508,0,0,0-.113.227.372.372,0,0,0-.031.065c-.022.052-.031.109-.048.161s-.03.1-.039.152c0,.009,0,.017,0,.026v.009c-.715,5.112-3.938,12.481-8.543,21.3.916-8.6,2.263-21.221,2.948-27.392M262.564,77.7c3.345-5.822,6.55-11.408,9.455-16.655a.158.158,0,0,1,.013-.026c.549-.995,1.09-1.976,1.614-2.948,2.974,22.451,17.091,44.1,21.107,49.886.4,10.981.471,21.827.366,31.787-.323,31.386-2.407,60.308-4.57,79.689-1.762-17.052-4.919-32.285-9.428-45.4-3.236-9.429-7.252-18.717-11.138-27.705-5.713-13.21-11.618-26.877-15.1-41.12a49.008,49.008,0,0,1-1.766-10.876c3.158-5.656,6.358-11.238,9.45-16.628M251.535,97.17a65.41,65.41,0,0,0,1.64,8.386c3.519,14.374,9.45,28.107,15.189,41.386,3.877,8.953,7.88,18.216,11.095,27.583,5.18,15.072,8.565,32.974,10.078,53.261-.6,4.518-1.186,8.212-1.718,10.924-.035.171-.07.349-.1.519-2-17.191-4.854-34.984-10.327-51.765-3.563-10.911-9.5-21.16-15.246-31.068-5.146-8.879-10.47-18.059-14.051-27.679a99.814,99.814,0,0,1-4.649-16.345c2.569-5.059,5.3-10.153,8.09-15.2m-20.117,42.843a203.863,203.863,0,0,1,10.763-25.119,104.607,104.607,0,0,0,4.265,14.356c3.633,9.751,8.992,19,14.173,27.937,5.7,9.834,11.6,20,15.1,30.75,6.045,18.526,8.87,38.346,10.9,57.208-1.291,7.348-2.39,14.945-3.314,22.189-4.789-12.115-9.843-24.531-17.806-35.015-2.5-3.293-5.225-6.5-7.855-9.607-4.815-5.682-9.8-11.552-13.519-18.072A137.045,137.045,0,0,1,230.214,171.4a85.288,85.288,0,0,1-2.6-16.08,99.753,99.753,0,0,1,3.807-15.3m48.442,160.9A475.93,475.93,0,0,0,254.282,258c-1.884-2.774-3.964-5.446-5.97-8.033a96.136,96.136,0,0,1-8.984-12.974c-2.992-5.547-4.932-11.574-6.982-18.308a142.632,142.632,0,0,1-5.181-25.215c5.355,15.211,15.4,25.66,24.548,35.154a146.048,146.048,0,0,1,11.025,12.324c10.2,13.424,17.152,30.963,19.324,36.851-1.064,9.585-1.788,17.867-2.2,23.113m2.63-26.842c-3.044-7.714-9.48-22.424-18.347-34.09A145.794,145.794,0,0,0,252.987,227.5c-10.732-11.143-22.716-23.607-26.628-43.65q-.4-7.5-.118-15.229c.074-2,.218-3.99.406-5.966a91.31,91.31,0,0,0,1.867,9.106A138.772,138.772,0,0,0,242.6,205.424c3.8,6.655,8.831,12.586,13.7,18.329,2.612,3.088,5.325,6.28,7.793,9.533,8.169,10.759,13.279,23.7,18.216,36.218.187.471.37.938.553,1.4-.131,1.064-.253,2.119-.375,3.162m12.725,57.313a205.038,205.038,0,0,0-11.077-22.407c-.392-.745-.794-1.5-1.195-2.263.114-1.657.541-7.688,1.335-16.079,1.217-2.346,2.395-4.7,3.541-7,7.5-15.015,14.588-29.2,30.854-37.557,10.938-5.622,20.562-11.191,26.55-21.033.323,16.3-11.674,40.475-25.185,59.144-11.962,16.528-21.234,38.216-24.823,47.195M95.432,251.694c15.595,3.327,31.443,20.545,46.549,39.049.794,2.787,1.644,5.487,2.539,8.12C114.708,287.79,99.588,260.4,95.432,251.694m164.842,86.444c8.975,7.27,22.228,32.411,28.517,45.01a84.128,84.128,0,0,0-22.171-12.838c-1.849-5.691-9.219-27.038-19.747-40.017a59.778,59.778,0,0,1,13.4,7.845m-16.938-9.319c10.658,11.4,18.665,33.244,21.195,40.728q-2.3-.8-4.627-1.435c-2.708-6.084-14.147-30.371-29.555-43.672,4.527,1.313,8.9,2.761,12.987,4.378m-50.047-12.664c10.423,2,21.993,4.217,32.913,7.135,15.525,11.474,27.867,36.305,31.548,44.273-1.583-.379-3.17-.707-4.766-.969-15.826-2.6-30.977-9.455-44.731-18.155-5.111-5.656-17.479-20.374-20.448-33.34q2.694.523,5.486,1.055m-7.348-1.417c2.237,10.933,10.9,22.874,17.012,30.217-16.406-11.212-30.553-24.723-41.1-36.117,6.249,2.224,14.657,4.047,24.09,5.9M147.9,298.048c13.027,15.8,39.158,44.029,71.076,60.383-8.848.2-30.2-2.416-55.489-27.365A158.7,158.7,0,0,1,147.9,298.048m31.378,53.959a147.187,147.187,0,0,1-11.806-14.893c15.063,13.392,28.338,18.974,37.348,21.268a48.27,48.27,0,0,0,17.182,1.553q5.227,2.532,10.637,4.575c-6.415,1.8-23.14,3.458-53.361-12.5m13.091,12.729c-3.07-2.607-6.341-5.638-9.7-9.1,31.9,15.826,47.906,11.766,52.585,9.821a102.728,102.728,0,0,0,17.209,4.448,66.774,66.774,0,0,1,13.916,3.908c-12.163-1.165-34.648-1.631-47.26,8.626a127.358,127.358,0,0,1-26.75-17.7m77.325,22.7c-3.641.092-7.161,1.652-10.567,3.162-1.5.667-2.913,1.291-4.252,1.753-3.707,1.27-7.7,1.544-12.957.881-13.366-1.683-16.611-4.936-16.982-7.374a1.76,1.76,0,0,0-1.147-1.365c-.035-.013-1.09-.406-2.922-1.239,14.326-10.937,41.814-8.333,50.7-7.139a89.775,89.775,0,0,1,22.337,16.014c-6.637-2.552-15.285-4.92-24.208-4.692m-118.21,5.883a174.752,174.752,0,0,1,40.431,6.337c-7.514.65-18.094,2.516-24.648,7.715a93.512,93.512,0,0,0-15.783-14.052m16.986,15.294c7.671-6.009,21.574-7.3,28.338-7.553.637.192,1.273.389,1.91.584a43.887,43.887,0,0,0-26.969,10.035q-1.707-1.479-3.279-3.066m4.636,4.2A42.073,42.073,0,0,1,204.7,403.6a259.338,259.338,0,0,1,36.689,16.014c-11.391-1.369-33.244-2.607-45.7,5.617a76.177,76.177,0,0,1-22.577-12.42m53.374,15.529c-7.34,2-17.937,1.068-28.686-2.394,13.981-8.208,39.436-5.307,47.845-4.051q5.108,2.793,10,5.722c-7.88-1.078-19.585-1.888-29.162.724M156.107,491.55c11.527,15.521,25.987,28.87,33.223,35.159-.24-.083-.476-.161-.716-.24-6.568-4.784-24.736-18.905-36.6-36.755,1.317.615,2.686,1.225,4.091,1.836m-18.312-10.405c.8.672,1.487,1.252,2.067,1.71a56.846,56.846,0,0,0,9.206,5.443c10.087,16.189,25.669,29.612,34.452,36.436-11.02-3.764-21.212-7.444-27.069-10.021-1.666-.733-3.916-1.7-6.773-2.914-2.577-1.1-5.687-2.429-9.2-3.951-12.585-8.421-50.841-35.04-62.72-54.822,36.223,8.054,53.222,22.376,60.034,28.119m-62.3-28.608c9.608,17.436,39.759,39.956,56.563,51.63-5-2.207-10.489-4.683-16.28-7.379C103.945,489.1,76.44,469.92,64.268,450.482q5.887.923,11.225,2.054M30.4,444.089a50.713,50.713,0,0,1-4.832-6.079C13.855,420.462,8.343,409.785,5.757,403.767c1.819,1.758,4.016,3.785,6.459,5.852,12.769,10.8,25.791,25.316,25.512,34.779-2.39-.131-4.828-.236-7.327-.31m3.4,3.481a272.308,272.308,0,0,1,28.255,2.577c9.577,16.092,29.8,32.1,43.741,41.918-26.153-12.62-55.66-28.778-72-44.495m7.13,10.593c19.368,15.085,47.618,29.681,71.682,40.893-13.793-.946-46.292-4.932-64.835-21.56a91.072,91.072,0,0,1-6.847-19.332m8.591,22.987c21.709,16.842,57.657,19.424,67.208,19.816q2.852,1.308,5.586,2.542c-10.414.794-37.278.824-68.777-14.662-1.435-2.6-2.774-5.177-4.017-7.7M54.966,491.4c34.382,16.24,63.012,14.365,70.452,13.5,9.045,4.043,16.978,7.427,22.9,9.961,2.843,1.213,5.089,2.172,6.737,2.9,2.037.894,4.566,1.915,7.449,3.018-12.132,3.388-52.69,12.481-90.984-4.327A222.971,222.971,0,0,1,54.966,491.4m18.678,27.766c22.891,9.285,46.057,9.651,61.9,8.212a152.823,152.823,0,0,0,29.611-5.6c1.775.662,3.655,1.348,5.617,2.05-2.782.99-7.2,2.455-12.8,3.968a181.355,181.355,0,0,1-33.562,5.857c-13.135.969-27.509.349-41.312-3.6-3.192-3.331-6.363-7-9.455-10.889m63.628,38.708c-10.449-2.621-20.877-6.894-30.17-10.706-1.025-.419-2.032-.833-3.022-1.234a37.017,37.017,0,0,1-5-2.538,74.879,74.879,0,0,1-13.654-10.985,119.65,119.65,0,0,0,32.559,3.271,166.618,166.618,0,0,0,26.367-2.953,191.294,191.294,0,0,0,20.575-5.154h0c3.846-1.2,6.721-2.233,8.351-2.848,4.226,1.5,8.753,3.057,13.336,4.61,7.571,2.56,15.3,5.1,22.132,7.3a281.486,281.486,0,0,0-30.287,9.11c-3.449,1.273-6.89,2.769-10.218,4.221-6.075,2.647-12.355,5.381-18.9,6.834a45.862,45.862,0,0,1-12.066,1.068m75.153-12.717c-2.626.628-5.107,1.222-7.283,1.71a214.775,214.775,0,0,0-23.7,7.218c-4.444,1.539-9.036,3.135-13.659,4.539-7.374,2.238-15.421,2.129-23.606.72a50.094,50.094,0,0,0,5.591-.9c6.72-1.492,13.079-4.261,19.232-6.938,3.3-1.444,6.72-2.931,10.122-4.187a286.672,286.672,0,0,1,32.708-9.69c1.967.637,3.838,1.234,5.582,1.793,3.349,1.068,6.232,1.98,8.434,2.673-.815.165-1.64.344-2.477.527-3.628.789-7.409,1.688-10.946,2.534m-18.809-17.016c-4.788-4-21.12-18.094-34.36-35.264a172.732,172.732,0,0,0,24.269,8.155c8.718,2.028,31.936,25.172,44.138,38.12-6.415-2.019-20.048-6.345-34.046-11.012m-30.828,85.794a1.38,1.38,0,0,0,.123-.257c.331-.9.689-1.784,1.059-2.656,14.618-8.282,35.468-14.3,45.682-16.951q-1.348,1.054-2.7,2.159c-7.436,2.975-28.547,11.583-45.468,20.069.789-1.465,1.278-2.306,1.308-2.364m-2.669,4.976c14.361-7.37,32.524-15.019,42.621-19.14a173.337,173.337,0,0,0-38.678,48.106c-2.9,1.714-9.236,5.365-16.467,8.905,1.579-14.661,8.6-30.156,12.525-37.871m-12.7,39.856c6.027-2.909,11.535-5.953,15.111-8.011q-1.334,2.564-2.612,5.216a55.882,55.882,0,0,1-12.638,6.467q0-1.819.14-3.672m1.526,15.708a1.605,1.605,0,0,0-.035-.929,33.409,33.409,0,0,1-1.6-9.328,53.337,53.337,0,0,0,11.212-5.29,195.544,195.544,0,0,0-13.079,39.2c-.022-8.05,2.246-18.857,3.5-23.65m3.624,65.594c-.113.71-.231,1.43-.34,2.15-.458,2.9-.934,5.9-1.666,8.739a72.017,72.017,0,0,1-3.859,10.872c-2.935-8.129-8.63-27.5-2.1-41.129a23.091,23.091,0,0,1,8.351-9.5,17.33,17.33,0,0,1,1.3,6.345c.476,7.828-.589,15.779-1.692,22.525m7.549-35.756a30.47,30.47,0,0,0-13.759,7.824c.248-1.566.505-3.127.785-4.662,0,0,0-.026.009-.043,4.649-25.726,13.214-46.873,23.611-64.186-.223,1.47-.432,2.948-.6,4.413a63.84,63.84,0,0,0-.628,8.849c.061,2.726.284,5.416.5,8.025a81.988,81.988,0,0,1,.389,12.664,90.116,90.116,0,0,1-3.315,19.476,29.768,29.768,0,0,1-2.416,6.188c-1.447.51-2.974,1-4.57,1.452m6.986-2.364a39.99,39.99,0,0,0,1.688-4.78c.218-.741.428-1.487.628-2.25a94.845,94.845,0,0,0,2.743-17.566,83.742,83.742,0,0,0-.384-12.912c-.21-2.586-.432-5.251-.493-7.933a61.75,61.75,0,0,1,.619-8.643c.331-2.835.772-5.709,1.3-8.574.632-.99,1.269-1.962,1.91-2.926-1.544,6.576-3.223,16.118-1.91,22.547,2.508,12.285,2.97,30.317-3.6,41.983q-1.21.537-2.5,1.055m5.12-2.3a40.2,40.2,0,0,0,2.49-6.96c2.918-11.09,2.2-24.343.218-34.059-1.6-7.784,1.557-20.881,3.079-26.463a169.834,169.834,0,0,1,22.9-26.084c-3.428,12.049-11.574,44.286-6.5,62.664a1.555,1.555,0,0,0-.179.772c.014.21.419,18.757-22,30.13m23.663-32.1c-4.309-17.4,2.992-47.465,6.437-59.934-2.782,13.777-7.767,42.755-4.095,58.386-1,.7-1.8,1.208-2.342,1.548m29.411-36.005c-6.088,17.183-18.678,28.312-25.533,33.357-3.808-18.181,3.685-54.412,5.512-62.738a172.667,172.667,0,0,1,21.687-16.022,48.22,48.22,0,0,0-4.326,16.781c-.287,4.191.632,8.12,1.526,11.923a43.452,43.452,0,0,1,1.5,9.481,59.216,59.216,0,0,1-.366,7.217m3.218-13.066c-.275-1.457-.606-2.882-.938-4.291-.872-3.737-1.7-7.261-1.443-10.963a44.763,44.763,0,0,1,6.725-20.6c1.561-.885,3.084-1.723,4.549-2.494,1.282-.681,2.564-1.331,3.855-1.962-3.087,6.559-8.644,20.17-12.747,40.313m7.143-41.3q-2.433,1.289-5.05,2.787a.45.45,0,0,0-.065.039,174.328,174.328,0,0,0-17.479,11.465c-7.327,1.784-30.955,7.928-47.911,16.956,8.29-17.052,24.435-28.094,48.093-32.856a132.754,132.754,0,0,1,30.44-2.307q-4.042,1.811-8.029,3.916m259.275,54.491a336.353,336.353,0,0,0-50.418-6.956c-2.085-3.427-9.131-12.429-27.972-17.972,27.78-.658,61.918,15.9,78.389,24.928m-83.906-24.644c20.126,4.714,28.46,13.54,31.321,17.566l-2.01-.1c-4.287-3.01-17.863-11.609-39.851-17.025,3.5-.1,7.034-.232,10.541-.436m-17.422.615c22.4,4.487,37.151,12.616,43.514,16.711-7.928-.3-16.232-.314-24.8.061-.911.039-1.823.092-2.739.144-5.8-3.035-25.538-12.739-44.522-14.806,9.389-1.531,19.053-1.867,28.547-2.111m-41.892,5.285c2.237-.728,4.5-1.343,6.794-1.875,18.033.114,38.983,9.407,47.718,13.7q-1.066.072-2.132.149c-2.879-1.574-9.752-4.728-20.659-6.2-12.1-1.64-31.465-1.356-57.216,8.2,7.876-5.971,16.385-11.007,25.494-13.977m-54.923,41.587c2.259-2.394,4.339-4.535,5.992-6.24l.41-.428a231.7,231.7,0,0,1,18.486-17.348c27.945-11.386,48.747-11.84,61.416-10.152a63.809,63.809,0,0,1,17.719,4.819,239.961,239.961,0,0,0-58.477,12.106,195.515,195.515,0,0,0-44.426,21.988q-7.5,5-14.461,10.689a195.7,195.7,0,0,1,13.34-15.434m2.983,13.55a66.437,66.437,0,0,0-13.3,3.855q6.011-4.873,12.228-9.1c26.637-18.172,55.716-27.784,83.649-32.258a160.874,160.874,0,0,0-57.81,39.074c-8.246-2.037-15.8-3.1-24.766-1.57m33.893,4.025c-2.494-.7-4.88-1.365-7.2-1.967,25.468-26.768,54.312-37.609,64.355-40.762-12.346,6.183-39.951,21.665-55.459,43.209-.571-.157-1.138-.319-1.7-.48m3.493.981c17.658-24.147,50.679-40.527,58.821-44.307a298.442,298.442,0,0,1,62.332.314c-10.99,2.369-30.78,7.85-41.072,18.151-14.466,14.475-30.27,28.3-48.089,32.337a202.291,202.291,0,0,1-31.992-6.494m45.341,7.6c-3.018-.153-5.9-.367-8.643-.619,16.493-5.181,31.163-18.142,44.661-31.648,11.744-11.753,37.2-17.2,45.341-18.692.174.022.358.044.532.07-9.258,2.12-27.57,7.649-38.407,19.786-13.066,14.64-29.332,26.838-41.4,31.195-.689-.031-1.382-.057-2.085-.092m70.457-22.935a1.651,1.651,0,0,0-.584.65c-.118.24-12.15,23.31-63.536,22.494,11.866-5.311,26.306-16.55,38.49-30.2,12.839-14.387,37.361-19.354,42.215-20.213,7.488,1.055,14.26,2.268,20.135,3.471-28.159,7.488-35.041,18.826-36.72,23.8m2.743,1.623a1.691,1.691,0,0,0-.837-1.635c1.648-4.117,7.147-12.377,25.4-19.058-13.043,6.625-21.364,17.832-24.5,22.621a6.19,6.19,0,0,1-.065-1.927m29.7-4.274c-7.344,7.946-21.264,11.757-27.086,9.184a4.778,4.778,0,0,1-1.64-1.156c3.258-5.233,17.052-25.128,39.951-27.666,5.887,1.347,10.475,2.586,13.489,3.454,1.762.506,3.572,1.051,5.412,1.626-8.26,1.95-22.538,6.341-30.126,14.557m78.843-81.612c-7.78,8.714-8.477,44.653-8.452,58.18q-2.191-3.873-4.7-8.46c-.51-9.708-1.426-48.913,15.22-68.219-.362,5.391-1.025,11.517-2.072,18.5M560.246,518.2c3.149,3.336,7.349,11.949,6.228,34.011-10.889,11.2-14.967,30.047-16.45,44.121a177.034,177.034,0,0,0-.833,23.344c-3.559-6.62-7.479-14.182-11.609-22.551-.388-12.764-1.291-75.393,17.68-88.319a13.331,13.331,0,0,1-1.417,4.465,1.642,1.642,0,0,0,.118,1.718,1.785,1.785,0,0,0,1.622.737c.092,0,2.259-.074,4.662,2.473m-4.862-11.487c-19.547,11.094-20.061,67.635-19.664,86.605q-1.655-3.408-3.345-6.973c-1.3-13.122-5.207-69.55,21.927-85.589a19.564,19.564,0,0,1,1.082,5.957m-1.684-7.593c-13.131,7.562-21.234,25.25-23.458,51.316a201.9,201.9,0,0,0-.031,31.3q-1.321-2.851-2.66-5.8c-4.518-9.956-9.341-21.208-14.165-33.462.584-10.972,3.99-57.54,19.947-68.83,9.058,8.325,17.012,17.234,20.366,25.477m-21.674-26.664c-15.08,11.091-19.154,50.623-20.178,66.074q-.935-2.42-1.866-4.893c.34-11.055,2.586-55.2,16.694-65.856,1.8,1.531,3.594,3.092,5.351,4.675m-37.413-30.03c2.023,1.945,6.036,4.98,11.116,8.826,5.644,4.269,12.643,9.568,19.594,15.386-13.218,10.458-16.254,47.3-16.947,62.7-11.744-31.744-22.843-69.087-28.835-108.236,3.764,6.8,9.315,15.783,15.072,21.321m-19.433-27.047A488.268,488.268,0,0,0,485.442,467.5c-3.629-4.418-9.551-10.1-17.462-12.621,1.687-11.448,4.051-24.457,7.2-39.5m-7.444,41.186c9.45,3.14,16.035,11.264,18.818,15.289q.975,3.709,1.984,7.375c-4.335-5.708-11.657-13.846-21.3-19.11q.235-1.753.5-3.554M467,461.913c11.561,6.524,19.621,17.252,22.874,22.132q.968,3.388,1.962,6.725c-5.159-7.344-13.968-17.858-25.447-23.929q.282-2.413.611-4.928m-.816,6.721c13.746,7.523,23.5,21.57,27.387,27.866a680.369,680.369,0,0,0,27.64,73.71c-10.035-11.121-31.4-32.315-52.965-37.936-3.681-17.9-5.172-35.782-2.063-63.64m2.451,65.485c23.733,6.654,47.792,33.052,54.945,41.4.261.58.527,1.182.789,1.753q1.236,2.721,2.46,5.364c-10.85-12.774-33.047-35.774-56.776-42.228q-.752-3.165-1.417-6.293m78.542,101.463q-9.537-5.8-19.446-11.217c-16.149-12.337-46.035-38.477-53.64-67.888-1.282-4.954-2.49-9.633-3.594-14.2,26.72,7.745,51.425,36.694,59.271,46.615,11.517,24.23,22.01,42.913,28.216,53.44q-5.331-3.434-10.807-6.755m20.876,13.445q-1.727-1.178-3.471-2.346c-1.6-2.621-4.012-6.651-7.034-11.923-.249-17.143.824-45.952,6.036-57.085-5.617,35.721,3.083,57.317,11.64,71.473,2.141,3.545,4.278,6.624,6.175,9.341q-6.522-4.807-13.345-9.459" transform="translate(0 -0.001)" fill="#dbd0bd"/>
    </g>
  </g>
</svg>
