<svg xmlns="http://www.w3.org/2000/svg" xmlns:xlink="http://www.w3.org/1999/xlink" width="655.752" height="759.304" viewBox="0 0 655.752 759.304">
  <defs>
    <clipPath id="clip-path">
      <rect id="Rectangle_129" data-name="Rectangle 129" width="655.752" height="759.304" fill="#dbd0bd"/>
    </clipPath>
  </defs>
  <g id="Group_96" data-name="Group 96" transform="translate(0 -0.001)" opacity="0.284">
    <g id="Group_95" data-name="Group 95" transform="translate(0 0.001)" clip-path="url(#clip-path)">
      <path id="Path_33" data-name="Path 33" d="M655.723,749.781a50.475,50.475,0,0,0-4.168-16.761,122.74,122.74,0,0,0-12.717-22.672c-.35-.515-.709-1.035-1.063-1.558-.375-.511-.75-1.031-1.125-1.554l-.132-.181c-.717-.977-1.443-1.974-2.176-2.984q-1.212-1.577-2.457-3.191c-.829-1.084-1.67-2.177-2.564-3.252s-1.777-2.181-2.679-3.29-1.867-2.2-2.815-3.314-1.9-2.251-2.906-3.368-2.016-2.238-3.034-3.38c-8.216-9.085-17.589-18.475-27.882-28q-3.9-3.55-7.9-7.19-4.037-3.555-8.174-7.2-4.248-3.573-8.578-7.222-4.143-3.284-8.368-6.637a1.625,1.625,0,0,0-.161-.453c-1.047-1.9-2.523-4.006-4.229-6.455-1.509-2.16-3.195-4.571-4.918-7.3-8.195-13.01-17.173-33.25-11.579-67.872,6.2-38.373,1.084-52.958-4.3-58.427a10.888,10.888,0,0,0-4.452-2.841c7.024-19.506-28.126-46.1-47.3-60.612-4.712-3.561-8.434-6.381-10.2-8.083-8.508-8.187-16.926-25.553-17.952-27.7-.239-1.876-.47-3.752-.68-5.627,0-.021-.013-.041-.017-.061a1.3,1.3,0,0,0-.037-.174c-.012-.045-.025-.091-.041-.136s-.041-.1-.062-.145-.054-.094-.078-.14l-.087-.123c-.033-.042-.066-.083-.1-.124s-.074-.07-.115-.108a.978.978,0,0,0-.12-.1c-.041-.028-.087-.058-.132-.087s-.091-.054-.144-.078a1.43,1.43,0,0,0-.14-.058c-.054-.021-.111-.041-.169-.058-.024,0-.041-.012-.066-.017a.611.611,0,0,0-.082-.012l-.173-.024c-.062,0-.12,0-.177,0a.55.55,0,0,0-.082,0,.289.289,0,0,0-.061.012,1.517,1.517,0,0,0-.194.033c-.037.008-.082.021-.12.028l-.19.075a.708.708,0,0,0-.095.049,1.5,1.5,0,0,0-.193.12.218.218,0,0,1-.054.042,1.282,1.282,0,0,0-.185.181.214.214,0,0,0-.029.029,2.277,2.277,0,0,0-.144.206c-.013.021-.021.037-.033.058-.029.062-.058.124-.083.19-.016.045-.029.087-.041.132,0,.021-.016.042-.021.066-8.648,39.457-12.4,66.676-12.169,88.248.218,20.124,3.6,34.585,9.143,56.02,5.367,20.78,21.976,39.589,34.956,51.713q2.362,2.2,4.662,4.217-5.225-2.647-10.507-5.19c-14.852-7.107-30.059-13.463-45.233-19.152-7.609-2.8-15.182-5.5-22.742-7.94-1.958-.66-3.92-1.286-5.878-1.9-24.75-15.157-49.623-43.093-67.1-75.563q-3.76-6.994-7.037-14.107a258.45,258.45,0,0,1-6.117-35,285.662,285.662,0,0,1-.284-63.036,209.937,209.937,0,0,1,11.171-48.431c4.287-5.878,15.812-19.489,23.344-19.5,8.648-.012,15.99-2.486,19.634-6.608a10.323,10.323,0,0,0,2.7-6.8,30.881,30.881,0,0,0,14.2-.528c8.681-2.288,21.542-9.373,33.513-30.157,7.23-12.548,14.333-20.689,20.418-25.974a42.533,42.533,0,0,0,10.486,1c6.591-.194,12.2-2.881,17.631-5.487,4.332-2.077,8.417-4.035,12.985-4.844a1.59,1.59,0,0,0,1.27-1.142,1.51,1.51,0,0,0,.041-.511,1.68,1.68,0,0,0-1.579-1.5L464.3,208.9c-7-.6-24.68-1.526-39.124,2.761a1.721,1.721,0,0,0-.565-.26c-27.161-6.814-45.975-1.327-56.976,4.477-10.912,5.759-16.415,12.816-17.487,14.284-11.942,7.9-20.046,26.085-24.1,54.054a266.441,266.441,0,0,0-2.547,39.523,223.412,223.412,0,0,0-7.156,36.584,289.139,289.139,0,0,0,.4,64.714c.8,6.974,1.748,13.137,2.655,18.257-2.235-5.631-4.3-11.291-6.25-16.967-5.965-17.4-10.747-34.964-15.442-52.219-4.621-16.98-9.4-34.54-15.24-51.791-.507-1.5-1.055-3.013-1.632-4.546,1.472-3.908,11.183-29.029,24.4-47.3,9.213-12.725,18.657-29.478,22.548-44.273,1.946-7.4,2.507-14.316.952-19.988,1.167-2.976,6.315-18.088,2.659-45.245-2.341-17.416-7.853-36.217-16.382-55.888-10.453-24.1-25.508-49.59-44.742-75.774C269.059,8.581,261.82.848,261.511.526A1.728,1.728,0,0,0,259.4.238a1.523,1.523,0,0,0-.692,1.723,164.6,164.6,0,0,1-1,20.446c-.969,8.747-3.347,31.152-3.652,34-2.692,4.864-5.673,10.058-8.781,15.467-10.969,19.11-23.4,40.772-29.684,59.438a99.022,99.022,0,0,0-5.05,27.894,146.992,146.992,0,0,0,5.9,48.328c1.991,6.534,3.879,12.387,6.843,17.891a94.358,94.358,0,0,0,8.784,12.712c1.867,2.4,3.8,4.889,5.528,7.428,11.125,16.344,20.417,33.378,28.035,47.884,0,.008.012.016.016.025a.15.15,0,0,1,.008.024,173.513,173.513,0,0,1,13.669,29.738c5.808,17.161,10.578,34.671,15.186,51.614q2.406,8.842,4.885,17.77a135.6,135.6,0,0,0-9.461-13.4,113.745,113.745,0,0,0-10.689-11.62c-1.74-3.685-19.469-40.941-31.127-50.377-14.667-11.872-41.325-16.979-64.842-21.488-15.895-3.046-30.9-5.924-36.077-10.252-2.688-3.088-5.009-5.887-6.921-8.261q-1.633-2.034-3.269-4.048s-.008,0-.008-.008c-15.718-19.271-32.371-37.2-49.363-38.848a1.669,1.669,0,0,0-1.455.6,1.531,1.531,0,0,0-.223,1.509,92.933,92.933,0,0,0,11.559,19.716c7.309,9.732,19.9,22.746,38.373,29.477a1.679,1.679,0,0,0,1.691-.309c11.047,30.673,28.682,50.418,42.207,61.915,14.234,12.095,26.461,17.507,29.77,18.847,2.082,6.677,14.539,8.244,18.756,8.776,5.441.688,9.819.371,13.785-.986,1.4-.486,2.869-1.134,4.287-1.76,2.919-1.295,5.936-2.63,8.706-2.7,11.521-.293,22.672,4.349,28.472,7.259,1.323,1.489,2.56,2.96,3.71,4.386a128.644,128.644,0,0,1,16.373,26.287c2,6.674,4.106,13.352,6.389,20.009a339.626,339.626,0,0,0,12.919,32.532,1.529,1.529,0,0,0,.087.182q2.442,5.274,5.132,10.491a442.6,442.6,0,0,0-41.535-38.551q-4.668-3.8-9.671-7.634-13.151-10.054-26.3-18.381a1.04,1.04,0,0,0-.157-.1,287.244,287.244,0,0,0-37.6-20.244c-26.378-11.637-52.035-17.392-76.252-17.1-.033,0-.061.009-.094.009-.058,0-.112.012-.165.021a1.255,1.255,0,0,0-.173.037l-.12.037a1.681,1.681,0,0,0-.19.087.7.7,0,0,0-.074.042,1.241,1.241,0,0,0-.2.136.144.144,0,0,0-.037.028,1.485,1.485,0,0,0-.193.2l-.013.012a1.517,1.517,0,0,0-.338,1,1.6,1.6,0,0,0,.647,1.207.1.1,0,0,1,.025.017,1.355,1.355,0,0,0,.227.14.316.316,0,0,0,.07.037,1.931,1.931,0,0,0,.2.079c.029.008.049.02.078.029.066.016,6.822,2.032,19.391,15.545,15.681,16.859,44.264,24.857,59.351,20.742,12.964-3.532,31.122.145,33.893.742,9.477,5.993,18.183,12.172,25.937,18.1q3.66,2.8,7.152,5.6a415.309,415.309,0,0,1,52.966,50.492c15.137,25.554,34.643,47.751,54.672,62.364-2.036-.61-4.069-1.207-6.1-1.776-7.416-2.123-14.758-4.057-21.972-5.829s-14.3-3.38-21.221-4.823-13.706-2.7-20.228-3.85-12.828-2.284-18.875-3.359c-44.676-7.952-75.6-13.459-80.118-14.259-4.065-4.427-35.286-38.109-46.976-40.83s-33.163-11.228-39.924-16.534c-.5-.4-1.129-.927-1.863-1.542-8.529-7.194-33.526-28.25-93.421-32.178.346-12.713-19.073-30.186-25.277-35.43A122.53,122.53,0,0,1,2.9,374.461a.5.5,0,0,1-.07-.066c-.045-.037-.087-.082-.136-.12s-.082-.058-.124-.087a1.089,1.089,0,0,0-.14-.087.974.974,0,0,0-.145-.066c-.049-.021-.1-.042-.153-.058a1.075,1.075,0,0,0-.153-.037,1.153,1.153,0,0,0-.161-.029,1.28,1.28,0,0,0-.173-.012c-.033,0-.066,0-.1,0a.176.176,0,0,0-.045.009c-.062,0-.12.012-.177.02s-.1.017-.148.033a.705.705,0,0,0-.148.05,1.489,1.489,0,0,0-.148.061,1.269,1.269,0,0,0-.128.07,1.467,1.467,0,0,0-.148.1.185.185,0,0,0-.037.024.474.474,0,0,0-.066.066.809.809,0,0,0-.124.12c-.033.041-.062.082-.091.123s-.058.083-.087.128-.045.095-.066.141a1.439,1.439,0,0,0-.054.144,1.047,1.047,0,0,0-.037.149.956.956,0,0,0-.025.144,1.253,1.253,0,0,0-.008.173c0,.033,0,.062,0,.1.025.366.862,9.378,21.39,40.138a71.384,71.384,0,0,0,13.52,14.332c1.855,20.615,30.512,69,55.39,85.267a40.923,40.923,0,0,0,6.847,3.665c.932.383,1.884.771,2.848,1.167,18.138,7.441,40.719,16.695,59.664,10.944,4.435-1.344,8.809-2.865,13.038-4.332a201.328,201.328,0,0,1,22.037-6.72c2.078-.466,4.431-1.031,6.925-1.628,4.386-1.043,9.172-2.185,13.472-3.051,1.842-.367,3.6-.688,5.2-.928,2.976.557,29.845,5.59,69.9,13.084a188.854,188.854,0,0,0-49.359,10.12q-2,.718-4.007,1.505a126.9,126.9,0,0,0-35.966,1.8c-25.4,5.095-42.677,18.2-49.994,37.908-1.529,2.634-20.528,36-13.451,58.308-.985,3.867-5.7,23.575-1.71,31.387q-.9,5.07-1.592,10.379c-.169.313-.333.627-.491.952-8.554,17.854,2.886,43.959,3.376,45.06a.427.427,0,0,0,.041.074,1.693,1.693,0,0,0,.1.173,1.107,1.107,0,0,0,.087.112c.037.045.07.087.112.131a.926.926,0,0,0,.123.1c.041.033.078.066.124.1s.1.058.157.091a.444.444,0,0,0,.091.049.063.063,0,0,0,.038.012,1.105,1.105,0,0,0,.169.062c.049.012.095.033.144.045s.107.012.165.021.1.016.153.021.108-.009.161-.013a1,1,0,0,0,.161-.012.812.812,0,0,0,.144-.033,1.1,1.1,0,0,0,.169-.045l.041-.013c.033-.012.058-.033.091-.045.054-.028.107-.049.157-.082s.087-.058.128-.087l.123-.1c.037-.037.074-.079.111-.116s.066-.078.095-.115a1.688,1.688,0,0,0,.091-.152c.016-.029.037-.054.054-.082a79.509,79.509,0,0,0,5.4-14.094c.02-.078.041-.165.061-.247.734-2.832,1.191-5.734,1.632-8.549q.155-1.008.322-2.016c1.068-6.542,2.1-14.263,1.637-21.955a18.706,18.706,0,0,0-1.707-7.49,30.6,30.6,0,0,1,4.947-1.867c18.274-5.2,26.691-14.642,30.537-21.646a31.358,31.358,0,0,0,3.986-13.4c4.547-2.75,26.547-17.33,31.646-44.775,4.9-26.361,12.878-41.976,14.358-44.713,3.4-1.5,6.827-2.84,10.231-4.036,27.339-9.629,53.621-10.132,61.478-10.046q7.216,1.349,14.869,2.782c6.525,1.2,13.191,2.506,20.059,4.007s13.871,3.149,21.011,4.971,14.4,3.8,21.74,5.977c3.681,1.055,7.354,2.226,11.072,3.364,3.693,1.2,7.432,2.366,11.151,3.652,7.473,2.482,14.955,5.227,22.461,8.063,14.98,5.771,29.968,12.2,44.581,19.349,14.6,7.169,28.855,15,42.417,23.41q6.474,4.013,12.717,8.2,4.439,2.962,8.76,6.006c-4.151-1.715-8.78-3.595-13.665-5.511-12.5-4.914-26.654-10.1-38.711-13.574-1.15-.329-2.626-.742-4.407-1.212-4.081-2.555-51.581-31.733-88-29.189-5.507.383-11.2.528-16.7.664-14.189.354-28.868.726-42.627,5.214-18.492,6.031-34.231,20.483-47.182,33.827l-.387.4c-1.237,1.274-2.655,2.733-4.172,4.328-7.354,7.692-17.095,18.459-20.2,25.961a.051.051,0,0,1-.008.012l-.008.021c-.008.029-.012.054-.02.083a.879.879,0,0,0-.046.136c0,.02-.012.041-.017.066s-.012.074-.016.107-.008.087-.008.128a.43.43,0,0,0,0,.07.866.866,0,0,0,.008.107.638.638,0,0,0,.012.127l.012.075a1.023,1.023,0,0,0,.029.1c.013.042.025.082.041.124l.025.075c.017.033.037.07.054.1a.693.693,0,0,0,.037.078c.008.017.016.025.025.042s.025.037.038.054a.752.752,0,0,0,.078.094,1.148,1.148,0,0,0,.1.112c.008.008.012.024.02.033s.008,0,.013.008l.087.074c.041.033.082.066.123.1.017.012.033.029.045.037.029.017.062.029.091.046a.972.972,0,0,0,.14.078c.025.009.046.021.066.029,0,0,0,0,.012.008.025.009.054.012.082.021a1.124,1.124,0,0,0,.145.045c.024.009.049.012.074.021a.666.666,0,0,0,.1.012c.046,0,.091.013.136.013a.645.645,0,0,0,.078.008,1.038,1.038,0,0,0,.107-.008.654.654,0,0,0,.132-.009.5.5,0,0,1,.078-.008l.107-.025a1.235,1.235,0,0,0,.124-.037.455.455,0,0,0,.074-.021c.037-.016.074-.037.107-.054a.477.477,0,0,0,.082-.033c8.85-4.687,15.907-7.222,22.207-8.3,10.734-1.847,19.246.54,30.591,3.727,11.319,3.174,25.4,7.131,46.923,8.232,29.011,1.488,46.189-4.691,55.488-10.132a42.359,42.359,0,0,0,11.171-9.122,7.331,7.331,0,0,0,3.776,3.463c7.424,3.281,22-1.389,29.428-9.427,8.813-9.539,29.074-13.373,32.145-13.909,7.226,2.412,14.762,5.169,21.938,7.932,12.754,4.9,24.387,9.807,31.209,12.745,1.912,1.447,3.813,2.9,5.68,4.362q4.409,3.561,8.735,7.061,4.223,3.617,8.356,7.164,4.081,3.654,8.063,7.23l7.7,7.136c10.075,9.493,19.213,18.821,27.165,27.783q1.484,1.682,2.939,3.331c.969,1.1,1.876,2.218,2.8,3.306.911,1.1,1.843,2.168,2.708,3.252s1.727,2.16,2.573,3.224c.857,1.047,1.665,2.115,2.457,3.169s1.574,2.082,2.345,3.1q1.113,1.558,2.193,3.071c.359.5.713,1.005,1.068,1.5.338.507.672,1.006,1.006,1.5q2.225,3.278,4.118,6.4a102.469,102.469,0,0,1,7.614,14.93,43.272,43.272,0,0,1,3.475,14.234,12.515,12.515,0,0,1-.363,3.99v0a.271.271,0,0,1-.012.033,3.95,3.95,0,0,0,2.259,5.078,4.079,4.079,0,0,0,5.342-2.012,17.193,17.193,0,0,0,.89-7.181M371.244,284.115c-3.583,4.052-11.221,5.508-17.169,5.516-6.377.008-13.834,6.628-19.209,12.527q2.615-6.01,5.762-11.971c4.46-1.913,17.1-6.69,30.652-6.121l-.037.049m1.1-1.583c-12.655-.779-24.663,3.125-30.5,5.421.577-1.047,1.162-2.1,1.764-3.137,4.712-1.74,18.22-6.208,29.527-4.955a7.086,7.086,0,0,1-.787,2.671m48.955-35.4c-8.987,15.594-19.816,25.487-31.317,28.612-8.6,2.334-14.654.07-14.708.054a1.691,1.691,0,0,0-1.64.21,1.515,1.515,0,0,0-.59,1.468c.042.272.07.535.095.791-10.458-1.125-22.355,2.321-28.253,4.365a158.42,158.42,0,0,1,24.284-31.085,118.764,118.764,0,0,1,15.215-3.092c3.57-.445,7.259-.6,10.829-.75a92.206,92.206,0,0,0,15.994-1.616,47.34,47.34,0,0,0,14.069-5.47q-1.979,3.055-3.977,6.513m6.348-10.042a44.086,44.086,0,0,1-16.847,7.453,91.282,91.282,0,0,1-15.7,1.575c-3.6.152-7.325.309-10.969.763a111.769,111.769,0,0,0-12.672,2.44c.924-.882,1.863-1.752,2.82-2.622,2.742-.886,5.779-1.822,8.892-2.618a93.744,93.744,0,0,1,12.407-2.012,108.717,108.717,0,0,0,11.035-1.674,134.943,134.943,0,0,0,20.957-6.2c1.014-.4,2.082-.837,3.158-1.32q-1.528,2-3.08,4.217m39.379-24.733a1.628,1.628,0,0,0,.651-.066l9.032.586c-1.88.791-3.706,1.665-5.507,2.531-5.346,2.564-10.4,4.988-16.27,5.161a40.013,40.013,0,0,1-7.086-.441,47.736,47.736,0,0,1,6.122-3.966c7.807-4.209,13.013-3.808,13.059-3.8m-11.167-.725c-6.084,2.576-14.086,7.786-22.759,18.265a53.383,53.383,0,0,1-6.2,2.828,133.847,133.847,0,0,1-20.7,6.126,106.951,106.951,0,0,1-10.87,1.641,94.591,94.591,0,0,0-12.63,2.057c-1.871.482-3.714,1.006-5.483,1.546a175.663,175.663,0,0,1,45.7-28.295c10.364-3.883,23.67-4.4,32.936-4.168m-35.991,1.921q-1.49.625-2.89,1.361a.24.24,0,0,1-.029.016A184.386,184.386,0,0,0,385.3,233.4c5.524-7.049,14.86-17.528,24.214-21.5a99.751,99.751,0,0,1,10.347,1.653M400.5,211.425c1.884,0,3.834.062,5.854.206-11.357,6.047-21.906,19.857-25.85,25.421-.087.062-.169.124-.252.194,2.877-6.5,9.386-18.661,20.248-25.822m-31.056,7.161a65.368,65.368,0,0,1,28.154-7.111c-11.814,8.8-18.141,23.063-20.05,27.952A160.732,160.732,0,0,0,355.9,261c.152-.552.3-1.129.466-1.735,2.374-9.019,5.56-23.909,4.27-34.977a56.366,56.366,0,0,1,8.8-5.7m-10.33,6.962c1.146,13.376-3.966,32.268-5.9,38.8-.792,1.014-1.579,2.04-2.35,3.079,1.682-8,3.949-22.363,2.123-35.549a42.111,42.111,0,0,1,6.125-6.332m-7.618,7.646c1.818,15.132-1.632,31.593-3.108,37.652q-2.585,3.685-4.988,7.527a174.44,174.44,0,0,0-16.456,34.581c.693-20.949,4.559-65.711,24.552-79.76m-26.019-27.758a1.524,1.524,0,0,0-.066,1.063,20.613,20.613,0,0,1,.681,3.232c-5.306,10.342-14.787,15.866-25.682,21.464-15.833,8.141-22.639,21.769-29.848,36.193-.466.931-.936,1.875-1.414,2.819.491-4.88,1.092-10.355,1.814-16.085a98.392,98.392,0,0,1,17.313-23.142c3.207-3.062,7.272-5.4,11.2-7.654a90.5,90.5,0,0,0,7.832-4.86,72.526,72.526,0,0,0,16.34-16.237,73.368,73.368,0,0,0,4.448-6.95,48.579,48.579,0,0,1-2.618,10.157m2.6-44.454a120.781,120.781,0,0,1,.688,29.445,72.108,72.108,0,0,1-6.488,10.879,70.81,70.81,0,0,1-15.99,15.882,89.351,89.351,0,0,1-7.692,4.773c-4.011,2.3-8.154,4.683-11.5,7.877a96.755,96.755,0,0,0-15.578,20.005c.647-4.852,1.381-9.815,2.2-14.7,6.872-7.214,41.605-44.585,54.194-75.4.062.42.115.833.173,1.245m-.684-4.5c-10.722,29-43.254,65.13-53.18,75.733.351-2,.717-3.974,1.1-5.915.07-.354.14-.725.211-1.117,6.875-7.568,40.863-46.132,49.977-78.293.767,3.393,1.389,6.587,1.892,9.592m-2.7-13.043c-7.111,30.211-38.74,67.563-48.646,78.709,1.554-9.721,3.364-26.419,4.637-46.741,4.081-8.6,19.152-41.255,26.617-69.628q.847-3.221,1.546-6.352a243.012,243.012,0,0,1,15.846,44.012m-17-46.482c-5.635,26.753-20.508,60.493-26.736,73.96.082-1.513.169-3.046.247-4.592,2.383-6.484,8.455-23.583,13.34-42.136,3.594-13.67,6.542-28.122,6.888-39.705q3.388,6.418,6.262,12.474m-7.89-15.52c.293,23.748-12.478,62.686-18.323,79.224.408-9.073.693-18.644.791-28.46.309-29.7-1.047-67.694-8.4-92.378A420.131,420.131,0,0,1,299.8,81.436M278.49,98.984c-5.136-7.787-16.654-27.148-18.455-46.642q.532-.995,1.039-1.97c2.9,18.727,13.772,37.5,17.148,42.986.1,1.876.194,3.755.268,5.627m-.466-9.114c-4.551-7.82-13.673-25.215-15.631-42.055a98.42,98.42,0,0,0,6.01-13.883c5.515,13.974,8.323,34.651,9.621,55.938M261,22.819c.486-4.382.89-10.676,1.023-15.4,1.859,3.9,4.048,10.4,4.827,20.178-.038.029-.07.058-.1.087a.371.371,0,0,1-.042.037,1.858,1.858,0,0,0-.177.223c0,.008-.012.012-.016.021a1.419,1.419,0,0,0-.107.214.35.35,0,0,0-.029.062c-.021.049-.029.1-.045.153s-.028.095-.037.144c0,.008,0,.016,0,.025v.008c-.676,4.832-3.722,11.8-8.075,20.137.866-8.129,2.139-20.059,2.787-25.891M248.184,73.448c3.162-5.5,6.191-10.784,8.937-15.743a.149.149,0,0,1,.012-.024c.519-.94,1.031-1.868,1.525-2.787,2.811,21.221,16.155,41.684,19.951,47.154.375,10.38.445,20.631.346,30.047-.305,29.667-2.275,57.006-4.32,75.325-1.665-16.118-4.65-30.517-8.912-42.916-3.059-8.912-6.855-17.692-10.528-26.188-5.4-12.486-10.981-25.4-14.275-38.868a46.324,46.324,0,0,1-1.669-10.281c2.985-5.346,6.01-10.622,8.933-15.717m-10.425,18.4a61.831,61.831,0,0,0,1.55,7.927c3.327,13.587,8.933,26.567,14.358,39.119,3.665,8.463,7.449,17.218,10.487,26.073,4.9,14.246,8.1,31.168,9.526,50.344-.569,4.271-1.121,7.762-1.624,10.326-.033.161-.066.33-.095.491-1.892-16.25-4.588-33.068-9.761-48.93-3.368-10.314-8.982-20-14.411-29.367-4.864-8.392-9.9-17.07-13.281-26.163a94.347,94.347,0,0,1-4.395-15.45c2.428-4.782,5.008-9.6,7.647-14.37m-19.016,40.5A192.7,192.7,0,0,1,228.917,108.6a98.879,98.879,0,0,0,4.031,13.57c3.434,9.217,8.5,17.956,13.4,26.407,5.388,9.3,10.961,18.9,14.275,29.065,5.714,17.511,8.385,36.246,10.305,54.075-1.22,6.946-2.259,14.127-3.132,20.974-4.527-11.451-9.3-23.187-16.831-33.1-2.362-3.112-4.939-6.146-7.424-9.081-4.551-5.371-9.263-10.92-12.779-17.082a129.539,129.539,0,0,1-13.153-31.423,80.617,80.617,0,0,1-2.461-15.2,94.29,94.29,0,0,1,3.6-14.465m45.789,152.088a449.864,449.864,0,0,0-24.177-40.562c-1.781-2.622-3.747-5.148-5.643-7.593a90.87,90.87,0,0,1-8.492-12.263c-2.828-5.243-4.662-10.94-6.6-17.3a134.82,134.82,0,0,1-4.9-23.834c5.062,14.378,14.555,24.254,23.2,33.228a138.054,138.054,0,0,1,10.421,11.649c9.638,12.688,16.213,29.267,18.265,34.832-1.006,9.061-1.69,16.889-2.082,21.848m2.486-25.372c-2.877-7.292-8.961-21.2-17.342-32.223a137.807,137.807,0,0,0-10.545-11.794c-10.145-10.533-21.472-22.314-25.17-41.259q-.377-7.086-.111-14.395c.07-1.892.206-3.771.383-5.639A86.311,86.311,0,0,0,216,162.359a131.172,131.172,0,0,0,13.315,31.815c3.59,6.29,8.347,11.9,12.952,17.325,2.469,2.919,5.033,5.936,7.366,9.011,7.721,10.169,12.552,22.4,17.219,34.235.177.445.35.887.523,1.327-.124,1.006-.239,2-.355,2.989m12.029,54.174a193.8,193.8,0,0,0-10.47-21.18c-.371-.7-.75-1.422-1.129-2.139.108-1.566.511-7.267,1.261-15.2,1.15-2.218,2.263-4.443,3.347-6.616,7.09-14.193,13.789-27.6,29.164-35.5,10.339-5.314,19.436-10.578,25.1-19.881.305,15.408-11.035,38.258-23.806,55.9-11.307,15.623-20.071,36.123-23.463,44.61M90.206,237.91c14.741,3.145,29.721,19.42,44,36.91.751,2.634,1.554,5.186,2.4,7.676-28.18-10.466-42.471-36.358-46.4-44.585M246.02,319.62c8.483,6.872,21.011,30.636,26.955,42.545a79.52,79.52,0,0,0-20.957-12.135c-1.748-5.379-8.714-25.557-18.665-37.826a56.5,56.5,0,0,1,12.667,7.416m-16.011-8.809c10.075,10.779,17.643,31.423,20.034,38.5q-2.17-.754-4.374-1.356c-2.56-5.751-13.372-28.707-27.936-41.28,4.279,1.241,8.413,2.61,12.276,4.139M182.7,298.84c9.852,1.888,20.788,3.986,31.11,6.744,14.675,10.846,26.341,34.317,29.82,41.849-1.5-.359-3-.668-4.505-.916-14.959-2.461-29.28-8.937-42.282-17.161-4.831-5.346-16.522-19.258-19.328-31.514q2.547.494,5.185,1m-6.946-1.34c2.115,10.334,10.305,21.621,16.081,28.563-15.508-10.6-28.88-23.369-38.852-34.139,5.907,2.1,13.855,3.825,22.771,5.577M139.8,281.724c12.313,14.931,37.013,41.618,67.183,57.076-8.364.186-28.546-2.284-52.45-25.867A150.011,150.011,0,0,1,139.8,281.724m29.659,51A139.133,139.133,0,0,1,158.3,318.651c14.238,12.659,26.786,17.935,35.3,20.1a45.627,45.627,0,0,0,16.241,1.468q4.941,2.393,10.054,4.324c-6.064,1.7-21.872,3.269-50.439-11.818m12.374,12.032c-2.9-2.465-5.994-5.33-9.168-8.6,30.15,14.959,45.282,11.122,49.705,9.284a97.106,97.106,0,0,0,16.266,4.2,63.113,63.113,0,0,1,13.154,3.694c-11.5-1.1-32.751-1.542-44.672,8.153a120.384,120.384,0,0,1-25.285-16.732m73.09,21.46c-3.442.087-6.769,1.562-9.988,2.989-1.413.63-2.753,1.22-4.019,1.657-3.5,1.2-7.28,1.459-12.247.833-12.634-1.591-15.7-4.666-16.052-6.97a1.664,1.664,0,0,0-1.084-1.29c-.033-.012-1.031-.384-2.762-1.171,13.541-10.338,39.524-7.877,47.92-6.748a84.857,84.857,0,0,1,21.114,15.137c-6.274-2.412-14.448-4.65-22.882-4.435m-111.736,5.56a165.181,165.181,0,0,1,38.217,5.99c-7.1.615-17.1,2.378-23.3,7.292a88.39,88.39,0,0,0-14.919-13.282m16.056,14.456c7.251-5.68,20.392-6.9,26.786-7.14.6.182,1.2.367,1.806.552a41.484,41.484,0,0,0-25.492,9.486q-1.614-1.4-3.1-2.9m4.382,3.966a39.768,39.768,0,0,1,29.861-8.706,245.138,245.138,0,0,1,34.68,15.137c-10.768-1.294-31.424-2.465-43.2,5.309a72,72,0,0,1-21.34-11.74m50.451,14.679c-6.938,1.888-16.955,1.01-27.115-2.263,13.215-7.758,37.276-5.017,45.224-3.829q4.829,2.64,9.456,5.408c-7.448-1.019-18.513-1.785-27.565.684m-66.524,59.747c10.9,14.671,24.564,27.289,31.4,33.233-.227-.078-.45-.153-.676-.226-6.208-4.522-23.381-17.87-34.593-34.742,1.245.582,2.539,1.158,3.867,1.735m-17.309-9.835c.754.635,1.406,1.183,1.954,1.616a53.73,53.73,0,0,0,8.7,5.145c9.535,15.3,24.263,27.99,32.565,34.441-10.417-3.557-20.05-7.036-25.586-9.472-1.575-.693-3.7-1.6-6.4-2.754-2.436-1.042-5.375-2.3-8.694-3.735-11.9-7.96-48.056-33.121-59.285-51.819,34.239,7.613,50.307,21.15,56.746,26.579M71.359,427.753c9.082,16.481,37.582,37.768,53.465,48.8-4.724-2.086-9.914-4.427-15.388-6.975-11.183-7.267-37.182-25.4-48.687-43.769q5.565.872,10.61,1.942m-42.623-7.985a47.933,47.933,0,0,1-4.567-5.746C13.1,397.434,7.886,387.343,5.441,381.654c1.719,1.662,3.8,3.578,6.1,5.532,12.07,10.206,24.379,23.929,24.115,32.874-2.259-.124-4.563-.223-6.925-.293m3.215,3.29a257.4,257.4,0,0,1,26.708,2.436C67.711,440.7,86.825,455.837,100,465.116c-24.721-11.929-52.612-27.2-68.053-42.058m6.74,10.013C57,447.329,83.7,461.126,106.447,471.724c-13.038-.894-43.757-4.662-61.284-20.38a86.084,86.084,0,0,1-6.472-18.274M46.811,454.8c20.52,15.92,54.5,18.36,63.527,18.731q2.7,1.237,5.281,2.4c-9.843.751-35.236.779-65.01-13.859-1.357-2.457-2.622-4.893-3.8-7.275m5.144,9.691c32.5,15.351,59.561,13.578,66.594,12.762,8.549,3.821,16.048,7.02,21.646,9.415,2.687,1.146,4.811,2.053,6.368,2.737,1.925.845,4.316,1.81,7.041,2.853-11.467,3.2-49.8,11.8-86-4.09A210.765,210.765,0,0,1,51.956,464.49m17.655,26.245c21.637,8.776,43.534,9.122,58.506,7.763a144.458,144.458,0,0,0,27.99-5.293c1.678.626,3.454,1.274,5.309,1.937-2.63.935-6.8,2.321-12.094,3.751a171.428,171.428,0,0,1-31.724,5.536c-12.416.916-26,.33-39.049-3.4-3.017-3.149-6.014-6.616-8.937-10.293m60.143,36.588c-9.877-2.477-19.733-6.517-28.518-10.12-.969-.4-1.921-.787-2.857-1.167a34.989,34.989,0,0,1-4.728-2.4,70.777,70.777,0,0,1-12.907-10.383,113.1,113.1,0,0,0,30.776,3.092,157.488,157.488,0,0,0,24.923-2.791,180.835,180.835,0,0,0,19.448-4.872h0c3.636-1.134,6.353-2.111,7.894-2.692,3.994,1.418,8.273,2.89,12.606,4.358,7.156,2.42,14.465,4.818,20.92,6.9a266.069,266.069,0,0,0-28.629,8.611c-3.26,1.2-6.513,2.618-9.658,3.99-5.742,2.5-11.678,5.087-17.87,6.459a43.35,43.35,0,0,1-11.406,1.01m71.037-12.02c-2.482.594-4.827,1.155-6.884,1.616a203.016,203.016,0,0,0-22.4,6.823c-4.2,1.455-8.542,2.963-12.911,4.291-6.971,2.115-14.576,2.012-22.313.68a47.347,47.347,0,0,0,5.285-.849c6.352-1.41,12.362-4.028,18.179-6.558,3.121-1.365,6.352-2.77,9.568-3.958a270.967,270.967,0,0,1,30.916-9.16c1.859.6,3.628,1.167,5.276,1.695,3.166,1.01,5.891,1.871,7.972,2.527-.771.156-1.55.326-2.341.5-3.43.746-7,1.6-10.346,2.395m-17.779-16.084c-4.526-3.776-19.964-17.1-32.479-33.332a163.274,163.274,0,0,0,22.94,7.709c8.24,1.917,30.187,23.793,41.721,36.032-6.064-1.909-18.95-6-32.182-10.408m-29.14,81.1a1.3,1.3,0,0,0,.116-.243c.313-.853.651-1.686,1-2.51,13.818-7.828,33.526-13.517,43.18-16.023q-1.274,1-2.556,2.041c-7.028,2.812-26.984,10.948-42.978,18.97.746-1.385,1.208-2.18,1.237-2.234m-2.523,4.7c13.574-6.966,30.743-14.2,40.286-18.092a163.844,163.844,0,0,0-36.56,45.471c-2.741,1.62-8.73,5.071-15.565,8.417,1.493-13.858,8.133-28.5,11.839-35.8m-12.008,37.673c5.7-2.75,10.9-5.627,14.283-7.573q-1.261,2.424-2.469,4.93a52.818,52.818,0,0,1-11.946,6.113q0-1.72.132-3.471m1.443,14.848a1.517,1.517,0,0,0-.033-.878,31.58,31.58,0,0,1-1.509-8.817,50.415,50.415,0,0,0,10.6-5,184.836,184.836,0,0,0-12.362,37.051c-.021-7.61,2.123-17.824,3.306-22.355m3.426,62c-.107.672-.218,1.352-.321,2.032-.433,2.738-.883,5.574-1.575,8.261a68.074,68.074,0,0,1-3.648,10.277c-2.775-7.684-8.158-26-1.983-38.877a21.827,21.827,0,0,1,7.894-8.982,16.381,16.381,0,0,1,1.233,6c.45,7.4-.556,14.914-1.6,21.291m7.135-33.8a28.8,28.8,0,0,0-13.005,7.4c.235-1.48.478-2.956.742-4.407,0,0,0-.024.008-.041,4.394-24.317,12.49-44.306,22.318-60.671-.211,1.389-.409,2.787-.569,4.172a60.344,60.344,0,0,0-.594,8.364c.058,2.576.268,5.12.47,7.585a77.5,77.5,0,0,1,.367,11.971,85.181,85.181,0,0,1-3.133,18.41,28.138,28.138,0,0,1-2.284,5.849c-1.368.482-2.811.948-4.32,1.373m6.6-2.234a37.807,37.807,0,0,0,1.6-4.518c.206-.7.4-1.406.594-2.127a89.651,89.651,0,0,0,2.593-16.6,79.155,79.155,0,0,0-.363-12.205c-.2-2.444-.408-4.963-.466-7.5a58.37,58.37,0,0,1,.585-8.17c.313-2.679.73-5.4,1.233-8.1.6-.936,1.2-1.855,1.805-2.766-1.459,6.216-3.046,15.236-1.805,21.312,2.37,11.612,2.807,28.657-3.4,39.684q-1.143.508-2.366,1m4.839-2.177a38,38,0,0,0,2.354-6.579c2.758-10.483,2.078-23.01.206-32.194-1.509-7.358,1.472-19.737,2.91-25.013A160.531,160.531,0,0,1,189.9,572.89c-3.24,11.39-10.94,41.861-6.146,59.232a1.47,1.47,0,0,0-.169.729c.013.2.4,17.729-20.8,28.48m22.367-30.343c-4.073-16.444,2.828-44.866,6.084-56.651-2.63,13.022-7.342,40.414-3.871,55.188-.944.66-1.7,1.141-2.214,1.463m27.8-34.033C207.2,613.2,195.3,623.717,188.821,628.486c-3.6-17.185,3.483-51.432,5.21-59.3a163.213,163.213,0,0,1,20.5-15.144,45.58,45.58,0,0,0-4.089,15.862c-.272,3.962.6,7.675,1.443,11.27a41.073,41.073,0,0,1,1.418,8.962,55.975,55.975,0,0,1-.346,6.822M216,584.605c-.26-1.377-.573-2.724-.886-4.056-.824-3.533-1.608-6.863-1.364-10.363a42.311,42.311,0,0,1,6.356-19.474c1.476-.837,2.915-1.628,4.3-2.357,1.212-.643,2.424-1.258,3.644-1.855-2.918,6.2-8.17,19.065-12.049,38.1m6.752-39.041q-2.3,1.218-4.773,2.634a.429.429,0,0,0-.061.037,164.8,164.8,0,0,0-16.522,10.837c-6.926,1.686-29.26,7.494-45.287,16.027,7.836-16.118,23.1-26.555,45.459-31.056a125.481,125.481,0,0,1,28.773-2.181q-3.821,1.712-7.589,3.7m245.076,51.507a317.936,317.936,0,0,0-47.656-6.575c-1.97-3.24-8.631-11.748-26.44-16.987,26.259-.622,58.527,15.025,74.1,23.562m-79.311-23.294c19.024,4.456,26.9,12.8,29.605,16.6l-1.9-.1c-4.052-2.845-16.884-10.973-37.668-16.093,3.31-.1,6.649-.219,9.963-.412m-16.468.581c21.176,4.242,35.117,11.925,41.131,15.8-7.494-.28-15.343-.3-23.443.058-.862.037-1.723.087-2.589.136-5.482-2.869-24.139-12.041-42.083-13.995,8.875-1.447,18.01-1.765,26.984-2m-39.6,5c2.115-.688,4.258-1.269,6.422-1.772,17.045.108,36.848,8.891,45.1,12.952q-1.008.068-2.015.141c-2.721-1.488-9.218-4.469-19.527-5.862-11.439-1.55-29.741-1.282-54.083,7.754,7.445-5.644,15.487-10.4,24.1-13.212m-51.915,39.309c2.135-2.263,4.1-4.287,5.664-5.9l.387-.4a219.011,219.011,0,0,1,17.474-16.4c26.415-10.763,46.078-11.191,58.053-9.6a60.315,60.315,0,0,1,16.748,4.555,226.816,226.816,0,0,0-55.274,11.443,184.8,184.8,0,0,0-41.993,20.784q-7.086,4.725-13.669,10.1a184.96,184.96,0,0,1,12.61-14.588m2.82,12.808a62.8,62.8,0,0,0-12.573,3.644q5.682-4.606,11.558-8.6c25.178-17.177,52.665-26.262,79.067-30.491a152.064,152.064,0,0,0-54.644,36.934c-7.795-1.925-14.939-2.93-23.409-1.484m32.037,3.8c-2.357-.659-4.613-1.29-6.805-1.859a148.692,148.692,0,0,1,60.831-38.53c-11.67,5.845-37.763,20.479-52.422,40.843-.54-.149-1.075-.3-1.6-.454m3.3.927c16.691-22.824,47.9-38.307,55.6-41.881a282.093,282.093,0,0,1,58.918.3c-10.388,2.239-29.094,7.42-38.823,17.157-13.673,13.682-28.612,26.753-45.455,30.566a191.216,191.216,0,0,1-30.24-6.138m42.858,7.185c-2.853-.145-5.573-.347-8.17-.585,15.59-4.9,29.457-17.149,42.215-29.915,11.1-11.11,35.162-16.262,42.858-17.668.165.021.338.042.5.066-8.751,2-26.06,7.23-36.3,18.7-12.35,13.839-27.726,25.368-39.132,29.486-.651-.029-1.307-.054-1.97-.087m66.6-21.679a1.561,1.561,0,0,0-.552.614c-.111.227-11.484,22.033-60.056,21.262,11.216-5.02,24.865-15.644,36.382-28.546,12.136-13.6,35.315-18.294,39.9-19.106,7.078,1,13.479,2.143,19.032,3.281-26.617,7.078-33.122,17.8-34.709,22.494m2.593,1.534a1.6,1.6,0,0,0-.791-1.546c1.558-3.892,6.756-11.7,24.007-18.014-12.329,6.262-20.194,16.856-23.154,21.382a5.852,5.852,0,0,1-.062-1.822m28.072-4.04c-6.942,7.511-20.1,11.113-25.6,8.681a4.516,4.516,0,0,1-1.55-1.092c3.08-4.947,16.118-23.752,37.763-26.151,5.565,1.273,9.9,2.444,12.75,3.265,1.665.478,3.376.993,5.116,1.537-7.807,1.843-21.3,5.994-28.476,13.76m74.525-77.143c-7.354,8.237-8.013,42.207-7.989,54.994q-2.071-3.66-4.44-8c-.482-9.176-1.348-46.234,14.386-64.483-.342,5.1-.969,10.887-1.958,17.486m-3.776-52.24c2.977,3.153,6.946,11.294,5.886,32.148-10.293,10.586-14.147,28.4-15.549,41.7a167.326,167.326,0,0,0-.787,22.066c-3.364-6.257-7.07-13.4-10.973-21.316-.367-12.065-1.22-71.264,16.711-83.482a12.6,12.6,0,0,1-1.34,4.221,1.552,1.552,0,0,0,.111,1.624,1.687,1.687,0,0,0,1.533.7c.087,0,2.135-.07,4.407,2.337m-4.6-10.858c-18.476,10.486-18.962,63.931-18.587,81.862q-1.564-3.221-3.162-6.591c-1.232-12.4-4.922-65.741,20.726-80.9a18.5,18.5,0,0,1,1.023,5.631m-1.592-7.177c-12.412,7.148-20.071,23.867-22.173,48.506a190.843,190.843,0,0,0-.029,29.584q-1.249-2.7-2.515-5.482c-4.271-9.411-8.83-20.046-13.389-31.629.552-10.371,3.772-54.388,18.855-65.06,8.562,7.869,16.081,16.29,19.251,24.082m-20.487-25.2c-14.254,10.483-18.1,47.85-19.073,62.456q-.884-2.288-1.764-4.625c.321-10.449,2.444-52.174,15.78-62.249,1.7,1.447,3.4,2.923,5.058,4.419M467.525,418.2c1.913,1.839,5.705,4.708,10.507,8.343,5.335,4.036,11.95,9.044,18.521,14.543-12.494,9.885-15.363,44.713-16.019,59.269-11.1-30.006-21.592-65.3-27.256-102.309,3.557,6.431,8.8,14.919,14.246,20.154m-18.368-25.566a461.518,461.518,0,0,0,9.7,49.269c-3.43-4.176-9.028-9.547-16.505-11.93,1.595-10.821,3.83-23.117,6.805-37.339m-7.037,38.93c8.933,2.968,15.157,10.648,17.787,14.452q.921,3.506,1.876,6.971c-4.1-5.4-11.019-13.088-20.133-18.063q.223-1.657.47-3.359m-.693,5.053c10.928,6.167,18.546,16.307,21.621,20.92q.915,3.2,1.855,6.356c-4.877-6.942-13.2-16.88-24.053-22.618q.267-2.281.577-4.658m-.771,6.353c12.993,7.111,22.214,20.388,25.887,26.34a643.109,643.109,0,0,0,26.126,69.673c-9.485-10.512-29.68-30.545-50.064-35.859-3.479-16.917-4.889-33.822-1.95-60.155m2.317,61.9c22.433,6.29,45.175,31.242,51.936,39.135.247.548.5,1.117.746,1.657q1.169,2.572,2.325,5.07c-10.256-12.074-31.237-33.815-53.667-39.915q-.711-2.992-1.34-5.948m74.24,95.907q-9.015-5.478-18.381-10.6c-15.264-11.662-43.514-36.37-50.7-64.17-1.212-4.682-2.354-9.106-3.4-13.418,25.257,7.321,48.609,34.684,56.025,44.062,10.887,22.9,20.8,40.563,26.67,50.513q-5.039-3.246-10.215-6.385m19.733,12.708q-1.632-1.113-3.281-2.218c-1.513-2.477-3.792-6.286-6.649-11.27-.235-16.2.779-43.435,5.705-53.959-5.309,33.764,2.914,54.178,11,67.558,2.024,3.351,4.043,6.261,5.837,8.829q-6.165-4.544-12.614-8.941" transform="translate(0 -0.001)" fill="#dbd0bd"/>
    </g>
  </g>
</svg>
