<svg xmlns="http://www.w3.org/2000/svg" xmlns:xlink="http://www.w3.org/1999/xlink" width="367.158" height="493.194" viewBox="0 0 367.158 493.194"><defs><clipPath id="a"><rect width="335.121" height="470.965" transform="translate(0 0)" fill="#84735e"/></clipPath></defs><g transform="matrix(-0.998, 0.07, -0.07, -0.998, 367.158, 469.818)" opacity="0.395"><g transform="translate(0 0)" clip-path="url(#a)"><path d="M53.117,150.148c-4.747.144-9.409.139-14.047.464a52.191,52.191,0,0,0-17.441,4.12,20.855,20.855,0,0,0-3.663,2.056c-2.172,1.538-2.462,3.643-.954,5.864.215.316.444.622.743,1.036-1.272.776-2.45,1.506-3.639,2.219-6.385,3.835-10.443,9.583-13.345,16.27a9.437,9.437,0,0,0-.717,4.784,6.206,6.206,0,0,0,1.608,3.633,3.239,3.239,0,0,1,.779,3.258c-.7,2.656-1.307,5.339-1.92,8.017a11.84,11.84,0,0,0,.67,7.579c1.225,2.807,2.823,3.861,5.883,3.807.5-.009,1,0,1.6,0-.353,1.368-.747,2.631-1,3.92-.619,3.178.518,6,3.446,7.316a11.007,11.007,0,0,1,6.14,6.276,7.908,7.908,0,0,0,4.655,4.4,4.087,4.087,0,0,1,.614.4c-.536.79-1.05,1.511-1.526,2.257a4.6,4.6,0,0,0,.11,5.521c1.011,1.41,2.2,2.7,3.341,4.006,1.619,1.848,3.655,2.063,5.84,1.294a24.777,24.777,0,0,0,2.72-1.316,3.063,3.063,0,0,1,1.3-.42c-.223.349-.433.705-.67,1.043-1.094,1.564-2.251,3.084-3.275,4.691a3.615,3.615,0,0,0,.394,4.52,11.407,11.407,0,0,0,5.525,3.968,17.513,17.513,0,0,0,10.758.425,3.7,3.7,0,0,1,.825-.144,6.873,6.873,0,0,1,.826.054,16.4,16.4,0,0,1,1.177,1.483,10.9,10.9,0,0,0,14.25,3.762A43.391,43.391,0,0,0,74.446,259.2c.389-.367.794-.717,1.192-1.075l.332.14c-.074.864-.178,1.728-.215,2.593a47.833,47.833,0,0,0-.163,6.028c.221,2.643,1.782,3.791,4.412,3.3a15.018,15.018,0,0,0,4.223-1.568A30.8,30.8,0,0,0,92,262.207a68.274,68.274,0,0,0,9.748-13.7c.245-.441.488-.884.745-1.319.051-.087.167-.137.367-.295a4.148,4.148,0,0,1,.319.869,13.447,13.447,0,0,0,2.413,6.385,3.332,3.332,0,0,1,.717,2.349c-.187,2.01-.484,4.018-.54,6.031a60.053,60.053,0,0,0,.186,6.872c.118,1.34.595,2.7,2.161,3.114a3.689,3.689,0,0,0,3.742-1.406,16.967,16.967,0,0,0,3.379-5.4,45.146,45.146,0,0,0,3.347-18.757,41.6,41.6,0,0,0-2.485-11.824,61.383,61.383,0,0,1-3.044-12.225,42.787,42.787,0,0,1-.022-10.91,60.288,60.288,0,0,0,.031-13.947,53.233,53.233,0,0,0-2.919-12.419,9.665,9.665,0,0,1,3.8-11.681c2.41-1.539,4.9-2.968,7.416-4.323,9.1-4.9,18.28-9.645,27.327-14.635A148.674,148.674,0,0,0,182.46,128.9a61.308,61.308,0,0,1,19.434-13.307c22.337-9.744,42.578-22.956,61.65-38.027a375.746,375.746,0,0,0,45.9-43.606A338.554,338.554,0,0,0,334.191,3.275,3.2,3.2,0,0,0,334.872,0c-.293.521-.441.849-.645,1.137A373.286,373.286,0,0,1,281.3,60.8c-20.588,18.971-43.077,35.327-68.051,48.12-4.995,2.559-10.1,4.9-15.23,7.194a44.038,44.038,0,0,0-13.672,9.367,184.833,184.833,0,0,1-26.571,22.541A199.159,199.159,0,0,1,138.6,159.261c-6.28,3.38-12.629,6.633-18.946,9.943a28.989,28.989,0,0,1-8.247,2.816c-3.075.569-5.965.009-8.118-2.219-6.238-6.458-13.8-10.722-22.1-13.816a91.4,91.4,0,0,1-29.372-17.773,88.08,88.08,0,0,0-7.4-5.835,14.2,14.2,0,0,0-3.927-1.857,4.015,4.015,0,0,0-2.426.18,1.883,1.883,0,0,0-1.024,2.535,12.029,12.029,0,0,0,1.932,3.5c1.557,1.757,3.368,3.289,5.049,4.938a16.957,16.957,0,0,1,2.512,2.689,14.291,14.291,0,0,0,5.224,4.9c.48.264.924.595,1.37.885M21.068,165.015a39.364,39.364,0,0,1-3.04-2.694,2.908,2.908,0,0,1,.488-4.75,21.467,21.467,0,0,1,3.671-2.035A54.165,54.165,0,0,1,39.3,151.519a93.683,93.683,0,0,1,17.823.229,100.773,100.773,0,0,1,23.6,5.164,56.611,56.611,0,0,1,17.641,9.635,18.7,18.7,0,0,1,3.4,3.694,3.175,3.175,0,0,1-1.289,4.808c-1.767.978-3.594,1.865-5.284,2.962a37.217,37.217,0,0,1-12.6,4.965c-3.5.76-7.007,1.531-10.453,2.5-6.176,1.739-10.678,5.8-14.348,10.875-1.809,2.5-3.469,5.109-5.249,7.632a29.7,29.7,0,0,1-9.636,8.779,16.247,16.247,0,0,1-2.919,1.255,27.521,27.521,0,0,1-9.491,1c-7.155-.172-12.177-3.69-15.41-9.937a18.74,18.74,0,0,1-1.529-12.773c.907-4.414,2.674-8.327,6.4-11.12a2.832,2.832,0,0,0,.462-.53A2.937,2.937,0,0,0,19.839,178a7.1,7.1,0,0,1-1.074-4.163,17.538,17.538,0,0,1,1.577-6.324,24.055,24.055,0,0,0,.725-2.5m87.491,21.892-.318.044c0,.673.012,1.347-.005,2.02a7.051,7.051,0,0,1-.125.832c-.981,6.674-3.438,12.874-6.1,19.008A52.355,52.355,0,0,1,90.57,225.529c-2.644,2.588-5.442,5.035-8.313,7.37A77.951,77.951,0,0,1,68.184,242.4a24.016,24.016,0,0,1-12.462,2.95,9.7,9.7,0,0,1-7.692-3.887,3.343,3.343,0,0,0-3.617-1.46,11.853,11.853,0,0,1-6.089-.887c-5.676-2.16-11.161-9.379-10.764-16.85.192-3.613.912-4.782,4.31-5.906a6.522,6.522,0,0,1,1.317-.231c1.338-.152,2.687-.218,4.013-.437a37.446,37.446,0,0,0,12.657-4.87c4.951-2.87,9.911-5.774,14.585-9.061,7.163-5.037,14.056-10.456,21.124-15.628q5.773-4.225,11.763-8.145a17.091,17.091,0,0,1,4.476-1.873,3.931,3.931,0,0,1,5.361,3.044c.607,2.549.939,5.162,1.393,7.745m.976,2.542.561-.009a13.762,13.762,0,0,1,.715,1.786,57.288,57.288,0,0,1,1.39,18.384,96.425,96.425,0,0,1-2.935,16.2c-2.641,10.477-6.63,20.37-12.906,29.244a48.587,48.587,0,0,1-10.423,11.155,16,16,0,0,1-5.33,2.808c-2.538.693-3.928-.222-4.075-2.874a19.639,19.639,0,0,1,.206-4.188c.379-2.362.607-4.633-.595-6.879A20.319,20.319,0,0,1,74.106,243.8a6.932,6.932,0,0,1,3.064-5.662c2.768-1.912,5.383-4.048,8.031-6.129,13.176-10.356,20.2-24.336,23.719-40.369.163-.74.408-1.461.615-2.192m-72.1,55.1-.279-.511a5.626,5.626,0,0,0-1.429.367c-1.125.632-2.175,1.4-3.3,2.031a20.026,20.026,0,0,1-2.884,1.355,3.524,3.524,0,0,1-4.033-.864c-1.227-1.308-2.423-2.656-3.516-4.077a3.761,3.761,0,0,1-.074-4.7c1.713-2.644,4.237-4.415,6.631-6.555,2.118,3.091,4.264,5.867,7.461,7.636a16.018,16.018,0,0,0,10.146,1.8c.5.6.867,1.025,1.222,1.456a10.9,10.9,0,0,0,6.577,3.773,18.366,18.366,0,0,0,7.354-.218,34.493,34.493,0,0,0,10.536-4.352c.487-.288,1-.53,1.835-.969a21.686,21.686,0,0,0,1.9,16c-1.015.935-1.92,1.845-2.9,2.664-3.9,3.255-8.249,3.329-12.312.236-.849-.646-1.679-1.319-2.507-1.992a8.271,8.271,0,0,0-9.161-1.052c-1.335.585-2.624,1.278-3.927,1.935a14.306,14.306,0,0,1-5.31,1.5,8.348,8.348,0,0,1-7.877-3.575,2.777,2.777,0,0,1-.27-3.293A26.015,26.015,0,0,1,32.97,250.6c1.106-1.488,2.277-2.927,3.4-4.406.393-.521.713-1.1,1.066-1.65m-21.564-35.64A16.865,16.865,0,0,1,6.7,212.232a4.255,4.255,0,0,1-4.107-2.441,10.092,10.092,0,0,1-1.1-7.157c.55-2.46,1.085-4.928,1.756-7.357.606-2.2.534-4.079-1.1-5.936a3.742,3.742,0,0,1-.223-5.095,21.945,21.945,0,0,1,1.993-2.492,47.692,47.692,0,0,1,12.459-9.088c.42-.214.877-.353,1.328-.53a24.19,24.19,0,0,0,.318,4.161,21.346,21.346,0,0,0,1.558,3.557c-8.659,8.722-9.718,18.3-3.707,29.053m7.755,25.666a6.939,6.939,0,0,1-4.821-3.217,18.154,18.154,0,0,1-1.566-2.967,7.044,7.044,0,0,0-3.784-3.855c-.665-.3-1.3-.647-1.953-.98a5.293,5.293,0,0,1-2.989-4.913,8.659,8.659,0,0,1,1.521-5.508l6.911-3.3c3.121,3.694,7.239,5.6,12.446,6.3a6.509,6.509,0,0,0-1.292,1.051,7.028,7.028,0,0,0-1.311,2.46,18.385,18.385,0,0,0,.775,9.441c.192.51.355,1.031.552,1.6l-4.489,3.889m87.895-13.65.346.016c.1.945.187,1.889.285,2.833a58.812,58.812,0,0,0,3,12.05,42.537,42.537,0,0,1,2.273,10.657,44.22,44.22,0,0,1-1.444,13.665,24.4,24.4,0,0,1-3.931,9.044,9.752,9.752,0,0,1-2.153,2.088,1.6,1.6,0,0,1-2.581-.845,7.361,7.361,0,0,1-.444-2.292,16.9,16.9,0,0,1,2.043-7.891,27.084,27.084,0,0,0,1.936-4.813,16.42,16.42,0,0,0-.515-9.448,28.919,28.919,0,0,1-1.464-11.593,24.435,24.435,0,0,1,.339-3.173c.732-3.441,1.538-6.868,2.314-10.3m-22.4-38.866c-1.677,1.265-3.042,2.306-4.422,3.333-6.984,5.194-13.868,10.529-20.992,15.523-4.727,3.313-9.8,6.135-14.718,9.17a8.966,8.966,0,0,1-1.047.542c-.347.153-.713.268-1.071.4C51,207.65,53.814,203.308,56.671,199c.9-1.356,1.854-2.68,2.863-3.955a25.28,25.28,0,0,1,14.83-9.554c1.7-.362,3.386-.763,5.077-1.157,3.09-.723,6.178-1.453,9.674-2.275m-49.4,78.536A18.869,18.869,0,0,0,46.74,258.3a32.837,32.837,0,0,1,3.854-1.642,6.4,6.4,0,0,1,5.932.819c1.059.733,2.079,1.527,3.09,2.328a10.906,10.906,0,0,0,5.107,2.43,31.781,31.781,0,0,0,4.442.039c-2.5,1.821-4.743,3.482-7.483,4.26a9.465,9.465,0,0,1-10.442-3.57c-.4-.538-.751-1.12-1.164-1.65a2.425,2.425,0,0,0-2.67-.966c-.435.109-.861.249-1.3.351a10.151,10.151,0,0,1-6.392-.109m-1.931-127.9c.665-1.346,1.078-1.67,2.195-1.309a12.008,12.008,0,0,1,3.344,1.523,91.125,91.125,0,0,1,7.427,5.8A93.828,93.828,0,0,0,69.9,152.064c.334.175.639.4.958.6a25.921,25.921,0,0,1-3.82-.429A22.24,22.24,0,0,1,52.47,144.29a21.017,21.017,0,0,0-7.292-5.564c-1.525-.7-3.007-1.51-4.461-2.356a6.61,6.61,0,0,1-2.932-3.678m70.121,101.846.249.071c-.062.776-.129,1.553-.184,2.329a23.7,23.7,0,0,0,1.486,8.908,17.687,17.687,0,0,1-2.6,16.343c.153-1.757.254-3.3.431-4.836a6.275,6.275,0,0,0-1-4.126c-2.22-3.722-3.165-7.646-1.091-11.831.646-1.3,1.113-2.7,1.648-4.053.366-.931.711-1.87,1.066-2.806m-90-63.221A40.679,40.679,0,0,0,1.764,182.942c3.273-8.336,8.706-14.7,17.022-18.559l1.262,1.087c-.725,1.973-1.416,3.855-2.148,5.847m23.221-33.506.186-.3c1.825.963,3.655,1.918,5.47,2.9a14.246,14.246,0,0,1,4.493,3.748,24.534,24.534,0,0,0,7.009,5.961c.272.157.518.358.776.538a3.592,3.592,0,0,1-1.88.09A15.933,15.933,0,0,1,47.9,144.5a19.575,19.575,0,0,0-3.77-4.031c-1.055-.814-2.008-1.764-3.006-2.654" transform="translate(0 85.79)" fill="#84735e"/><path d="M62.955,0C56.158,12.035,46.7,21.708,36.033,30.27A94.516,94.516,0,0,1,0,48.561c.444-.04.893-.048,1.329-.128.493-.09.974-.242,1.46-.371a92.723,92.723,0,0,0,34.522-17.9,116.182,116.182,0,0,0,20.6-20.976c1.639-2.2,3.033-4.581,4.486-6.912a14.577,14.577,0,0,0,.9-2.1L62.955,0" transform="translate(41.982 262.556)" fill="#84735e"/><path d="M46.974,0a16.1,16.1,0,0,0-.719,1.51A65.024,65.024,0,0,1,33.907,22,100.718,100.718,0,0,1,2.472,46.952,10.671,10.671,0,0,0,0,48.464c.5-.2,1.005-.388,1.495-.61A90.124,90.124,0,0,0,23.9,33.109,92.129,92.129,0,0,0,41.713,12.573,45.215,45.215,0,0,0,47.007,1c.087-.312.122-.639.182-.959L46.974,0" transform="translate(60.33 262.04)" fill="#84735e"/><path d="M22.572.042c.121,2.125.183,4.254.374,6.372a37.991,37.991,0,0,1-1.4,13.464A85.91,85.91,0,0,1,4,53.781c-1.329,1.553-2.783,3-4,4.7.673-.626,1.366-1.231,2.017-1.879A68.491,68.491,0,0,0,13.1,42.04a84.3,84.3,0,0,0,9.959-25.548,28.936,28.936,0,0,0,.608-10.018c-.318-2.142-.433-4.315-.639-6.474l-.456.042" transform="translate(87.353 272.585)" fill="#84735e"/><path d="M65.143,1.3A76.611,76.611,0,0,0,49.834.006,110.044,110.044,0,0,0,18.27,5.161C12.822,6.862,7.488,8.92,2.11,10.839,1.383,11.1.7,11.49,0,11.821l.1.322c.581-.171,1.171-.32,1.744-.518,5.769-1.988,11.512-4.05,17.306-5.958A104.693,104.693,0,0,1,38.3,1.408,100.692,100.692,0,0,1,59.968.9c1.725.147,3.45.268,5.175.4" transform="translate(24.751 256.557)" fill="#84735e"/><path d="M.121,58.913C1.259,57.939,2.433,57,3.532,55.985A80.166,80.166,0,0,0,22.707,27.993a80.283,80.283,0,0,0,5.317-17.3A48.066,48.066,0,0,0,28.339,0c-.351,3.477-.5,7.18-1.153,10.791a78.752,78.752,0,0,1-2.827,10.862A89.041,89.041,0,0,1,20.1,32.062a85.405,85.405,0,0,1-5.426,9.676,84.549,84.549,0,0,1-6.789,9C5.435,53.571,2.643,56.111,0,58.781l.121.132" transform="translate(84.17 284.982)" fill="#84735e"/><path d="M0,6.751a151.481,151.481,0,0,1,19.1-4.6A109.622,109.622,0,0,1,38.688.777,104.84,104.84,0,0,1,58.711,2.916C54.553.827,36.088-.524,28.951.195,19.016,1.2,9.248,2.753,0,6.751" transform="translate(19.774 243.954)" fill="#84735e"/><path d="M0,42.792C14.662,37.967,36.466,14.79,40.256,0c-.346.634-.72,1.254-1.032,1.905A90.627,90.627,0,0,1,26.055,22.355,85,85,0,0,1,.564,42.436c-.2.1-.377.237-.564.357" transform="translate(62.647 279.995)" fill="#84735e"/><path d="M55.133.469a8.493,8.493,0,0,0-1.1-.245A74.5,74.5,0,0,0,40.432.436a106.515,106.515,0,0,0-25.792,5.9c-4.529,1.6-8.87,3.741-13.291,5.652A4.71,4.71,0,0,0,0,12.895C17.481,4.705,35.655-.26,55.133.469" transform="translate(24.046 267.488)" fill="#84735e"/><path d="M.312,18.878C7.8,13.957,16,10.528,24.282,7.286A145.874,145.874,0,0,1,50,.012a26.552,26.552,0,0,0-7.14,1.029A153.077,153.077,0,0,0,6.26,14.535C4.083,15.651,2.082,17.116,0,18.42l.312.458" transform="translate(13.166 270.755)" fill="#84735e"/><path d="M40.281,0C36.911,2.958,33.723,5.883,30.4,8.647A77.958,77.958,0,0,1,4.289,23.293c-.744.238-1.507.423-2.263.627A5.283,5.283,0,0,0,0,24.792c.919-.167,1.853-.279,2.754-.51a68.59,68.59,0,0,0,20.8-9.656A102.557,102.557,0,0,0,39.286,1.441c.316-.316.612-.655.9-1,.058-.067.044-.194.093-.444" transform="translate(45.245 301.179)" fill="#84735e"/><path d="M1.819,36.215c.327-1.317.725-2.621.969-3.955a57.155,57.155,0,0,0,.494-16.586,45.42,45.42,0,0,0-1.6-8.389A45.764,45.764,0,0,1,.838,2.164,6.944,6.944,0,0,0,0,0C1.71,7.893,1.469,15.815.77,23.773A12.556,12.556,0,0,0,1.556,19.8c.07-1.4.248-2.795.3-4.2.054-1.455.012-2.913.012-4.371l.342-.03c.235,2.041.527,4.077.692,6.124a63.008,63.008,0,0,1,.291,6.389,57,57,0,0,1-.557,6.194C2.359,32,1.951,34.078,1.6,36.162l.218.052" transform="translate(111.403 307.08)" fill="#84735e"/><path d="M41.55.5C29.039-1.682,5.952,3.734,0,7.655a8.746,8.746,0,0,0,1.094-.261,114.975,114.975,0,0,1,16.9-4.921A91.483,91.483,0,0,1,38.695.5c.951.022,1.9,0,2.855,0" transform="translate(19.291 246.512)" fill="#84735e"/><path d="M28.1,0A112.938,112.938,0,0,1,0,30.124a2.662,2.662,0,0,0,.775-.265c2.558-1.918,5.245-3.7,7.622-5.818A94.8,94.8,0,0,0,26.529,2.865C27.1,1.936,27.58.957,28.1,0" transform="translate(74.116 305.707)" fill="#84735e"/><path d="M0,14.542A31.739,31.739,0,0,0,13.18,0,52.675,52.675,0,0,1,0,14.542" transform="translate(60.207 330.525)" fill="#84735e"/><path d="M22.066,0A94.978,94.978,0,0,0,0,8.734Z" transform="translate(35.534 282.692)" fill="#84735e"/><path d="M0,15.885C5.653,12.576,12.9,3.609,13.863,0,11.848,2.686,9.9,5.614,7.607,8.245S2.671,13.229,0,15.885" transform="translate(60.116 325.998)" fill="#84735e"/><path d="M18.245,7.967,0,0C2.191,1.864,14.827,7.541,18.245,7.967" transform="translate(54.883 230.971)" fill="#84735e"/><path d="M0,10.438C5.564,8.313,9.707,4.3,13.638,0,9.356,3.818,5.113,7.686,0,10.438" transform="translate(35.804 334.964)" fill="#84735e"/><path d="M0,9.824A43.236,43.236,0,0,0,11.286,0Q5.644,4.913,0,9.824" transform="translate(37.928 329.967)" fill="#84735e"/><path d="M9.9,0A31.179,31.179,0,0,0,0,6.174Q4.951,3.088,9.9,0" transform="translate(12.455 303.288)" fill="#84735e"/><path d="M0,5.273,11.192,0C6.826.721,3.39,2.944,0,5.273" transform="translate(7.879 264.203)" fill="#84735e"/><path d="M8.418,0C5.069,1.986,1.678,3.927,0,7.744,2.154,4.449,5.444,2.4,8.418,0" transform="translate(3.481 270.119)" fill="#84735e"/><path d="M0,4.578,8.366.3C8.312.2,8.259.1,8.207,0A27.262,27.262,0,0,0,0,4.578" transform="translate(14.788 300.048)" fill="#84735e"/><path d="M0,4.243A16.842,16.842,0,0,0,6.5.274L6.316,0,0,4.243" transform="translate(20.79 309.312)" fill="#84735e"/><path d="M.217,3.114,4.531,0C2.639.419,1.37,1.687,0,2.818c.073.1.144.2.217.3" transform="translate(7.455 282.383)" fill="#84735e"/><path d="M117.427,290.978a18.988,18.988,0,0,1-2.152,7.374,4.148,4.148,0,0,1-4.562,2.126,7.6,7.6,0,0,1-4.159-2.032,11.977,11.977,0,0,1-3.5-6.594c-.5-2.422-.861-4.885-1.333-7.6-.175.848-.3,1.453-.417,2.045-.242,1.211-.417,2.436-.74,3.62a3.025,3.025,0,0,1-2.92,2.368c-.336.013-.659.081-1.009.121-.148.484-.308.9-.4,1.332a14.685,14.685,0,0,1-6.189,9.1,15.98,15.98,0,0,1-9.514,2.88,22.9,22.9,0,0,0-10.819,2.745,32.769,32.769,0,0,1-3.379,1.507,7.228,7.228,0,0,1-4.3.323,7.49,7.49,0,0,1-5.342-4.938,19.365,19.365,0,0,1-1.562-8.827c-.861-.767-1.654-1.467-2.543-2.261-.537.511-1.009,1-1.506,1.413a29.164,29.164,0,0,1-3.283,2.624,7.538,7.538,0,0,1-6.917.928,20.74,20.74,0,0,1-2.612-1.453.31.31,0,0,0-.16.027,4.267,4.267,0,0,0-.4.3,7.4,7.4,0,0,1-8.006,1.4,25.557,25.557,0,0,1-4.467-1.965,4.368,4.368,0,0,0-4.427-.377c-2.153.942-4.077.269-5.719-1.251a11.814,11.814,0,0,1-3.445-6.069,13.308,13.308,0,0,1,.767-7.926c1.021-2.772,2.261-5.477,3.47-8.343a3.025,3.025,0,0,0-3.188-.067A37.778,37.778,0,0,1,8.5,275.261c-4.159,1.251-6.756-.229-7.926-4.4a19.99,19.99,0,0,1-.229-8.518A49.012,49.012,0,0,1,3.91,250.784c3.122-7.482,7.2-14.344,13.283-19.861,12.447-11.3,27.235-15.878,43.827-15.327,1.169.04,2.355.135,3.538.108,2.222-.027,4.319-.5,5.545-2.557a29.631,29.631,0,0,0,3.134-6.123,81.865,81.865,0,0,0,2.437-10.63c.727-4.427,1.117-8.908,1.654-13.362,1.251-10.213,4.778-19.4,11.586-27.33,1.09-1.251,2.141-2.53,3.176-3.822.229-.283.459-.565.673-.848a7.143,7.143,0,0,0,.606.861c.042.054.082.094.108.135-.214.283-.431.552-.646.821v.013q-1.11,1.413-2.259,2.785a60.8,60.8,0,0,0-4.213,5.477,44.924,44.924,0,0,0-3.835,6.715,55.96,55.96,0,0,0-4.21,16.4c-.484,4.131-.767,8.276-1.455,12.366a56.382,56.382,0,0,0-.256,15.273,7.783,7.783,0,0,0,5.222,7,33.069,33.069,0,0,1,4.439,2.032c9.542,5.423,16.968,12.878,21.557,22.943,4.723,10.375,8.558,20.992,9.392,32.5.363,4.885.888,9.742.215,14.627m-47.324,16c3.78-2.005,7.911-2.261,12.07-2.489a14.218,14.218,0,0,0,9.742-4.71,6.252,6.252,0,0,0,.429-.74c-.592.323-.9.484-1.211.646-2.34,1.305-4.831,1.225-7.361.861-1.386-.2-2.771-.417-4.157-.552a6.392,6.392,0,0,0-3.983,1.09c-2.409,1.48-3.943,3.862-6.149,5.827.417.054.537.108.619.067m-11.318-.121a5.679,5.679,0,0,0,8.3,1.265,40.159,40.159,0,0,0,3.7-3.418c.809-.794,1.534-1.642,2.289-2.476,2.449-2.651,5.5-3.283,8.92-2.637,2.193.417,4.348,1.023,6.634.565,2.839-.565,6.755-3.606,6.608-8.06-6.272-1.79-10.08-6.163-11.882-12.487-.109.054-.229.108-.351.175-.161.444-.35.888-.51,1.346a13.027,13.027,0,0,1-7.307,8.329,6,6,0,0,0-2.5,2.166,30.007,30.007,0,0,1-2.489,3.391c-3.487,3.835-7.939,5.3-13.04,2.732a10.037,10.037,0,0,0-1.2-.417c.3,3.606.941,6.782,2.824,9.527m24.167-42.912a1.4,1.4,0,0,0,.39.969c.365-1.951.782-3.9,1.09-5.88.538-3.364.969-6.755,1.522-10.119a15.886,15.886,0,0,0-.419-6.661,36.192,36.192,0,0,0-4.844-10.63l-.362.081a21.743,21.743,0,0,1,.632,2.557c.5,3.781,1.1,7.549,1.331,11.344.363,6.109.458,12.232.659,18.341m-61.9,32a4.2,4.2,0,0,1,4.131.39,23.8,23.8,0,0,0,2.195,1.117,3.645,3.645,0,0,1,.188-.323c-1.009-1.211-2.018-2.4-3-3.62a4.677,4.677,0,0,0-5.395-1.709,6.616,6.616,0,0,1-5.705-.471c.713,3.808,4.158,5.921,7.588,4.615m-7.009-15.582a15.425,15.425,0,0,0-1.535,5.988,6.4,6.4,0,0,0,.055,1.346c.538,2.409,1.7,4.387,5.073,3.727.659-.135,1.319-.283,1.977-.4a5.178,5.178,0,0,1,5.477,2.1,25.456,25.456,0,0,0,2.329,2.866,13.462,13.462,0,0,0,3.176,2.436c2.543,1.292,4.992.592,6.93-1.844-4.59-8.02-4.5-16.793-4.279-25.809a45.179,45.179,0,0,1-5.034,2.449,23.965,23.965,0,0,1-5.571,1.144,51.935,51.935,0,0,1-5.825-.188c-.875,1.911-1.9,4.023-2.772,6.19m51-63.662c-1.682-.067-3.379-.108-5.061-.135-9.608-.148-18.918,1.305-27.651,5.45-13.9,6.58-23.306,17.251-28.5,31.689a43.115,43.115,0,0,0-2.584,9.379,16.767,16.767,0,0,0,.538,8.155c1.076,2.853,2.489,3.835,5.948,3.081a18.624,18.624,0,0,0,4.05-1.628,5.554,5.554,0,0,1,4.71-.2c4.064,1.655,8.072,1.05,11.949-.552a44.254,44.254,0,0,0,4.87-2.678c3.931-22.1,13.645-40.019,33.25-51.336-.135-1.2-.861-1.2-1.519-1.225m9.31,4.764a17.946,17.946,0,0,0-2.126-1.924,4.768,4.768,0,0,0-5.652-.35,60.027,60.027,0,0,0-12.715,9.648A70.927,70.927,0,0,0,36.8,258.656a60.289,60.289,0,0,0-1.628,28.46,25.566,25.566,0,0,0,2.839,8.06c1.883,3.324,4.844,4.36,8.274,2.611a27.817,27.817,0,0,0,4.294-3.2c.646-.5,1.237-1.063,1.95-1.669.673.525,1.2.928,1.724,1.319a29.3,29.3,0,0,0,3.552,2.543,8.447,8.447,0,0,0,8.812-.215,14.162,14.162,0,0,0,4.63-4.817,9.388,9.388,0,0,1,4.076-3.606c3.97-1.9,5.813-5.423,6.768-9.527a11.786,11.786,0,0,0,.082-3.822c-.256-2.745-.309-5.49-.378-8.249-.148-6.176-.16-12.353-.4-18.529-.257-6.392-.727-12.783-3-18.866-1.023-2.732-1.924-5.531-4.037-7.684m42.267,62.612a99.792,99.792,0,0,0-1.79-16.713,97.624,97.624,0,0,0-9.878-26.576c-4.938-9.043-12.393-15.6-21.6-20.131a19.589,19.589,0,0,0-3.809-1.319c-1.844-.471-2.88.5-2.475,2.355a20.742,20.742,0,0,0,1.48,4.629c1.089,2.274,2.38,4.454,3.686,6.62a35.847,35.847,0,0,1,4.131,9.352,19.546,19.546,0,0,1,.175,8.195c-1.021,6.136-2.125,12.245-3.256,18.368a19.437,19.437,0,0,0,.632,9.137,32.563,32.563,0,0,0,2.059,5.329,14.242,14.242,0,0,0,10.349,7.858c1.856.377,2.947-.215,3.336-2.14a50.616,50.616,0,0,0,.888-6.822,76.1,76.1,0,0,0-.767-14.1c-.121-.861-.108-1.749-.148-2.678,1.212-.094,1.212.525,1.292,1.077.336,2.611.673,5.234,1,7.845.673,5.5,1.292,11.034,2.06,16.524a11.137,11.137,0,0,0,2.865,6.351,6.381,6.381,0,0,0,4.548,2.247,2.787,2.787,0,0,0,2.8-1.507,18.778,18.778,0,0,0,1.574-3.862,35.42,35.42,0,0,0,.849-10.038M251.775,1.117a5.532,5.532,0,0,1-.647.135A161.516,161.516,0,0,0,222.32,8.02a138.323,138.323,0,0,0-43.84,23.992c-.836.686-1.656,1.373-2.462,2.086a134.97,134.97,0,0,0-10.565,10.065,194.245,194.245,0,0,0-16.3,20.615c-4.077,5.705-7.978,11.505-11.774,17.372-.215.336-.444.686-.646,1.023-.471-.013-.941-.027-1.413-.013.2-.336.417-.673.661-1.009,5.571-8.652,11.4-17.143,17.56-25.419a138.845,138.845,0,0,1,23.022-24.746c.39-.309.767-.632,1.157-.928.821-.673,1.642-1.319,2.477-1.965C199.929,13.927,222.32,4.737,247.011.7c1.574-.256,3.176-.471,4.79-.7a2.693,2.693,0,0,1,.122.632,1.665,1.665,0,0,1-.148.484M103.986,135.868a58.045,58.045,0,0,1,3.147-5.356c.257-.417.525-.821.955-1.48h-.458c.256-.4.5-.821.728-1.225a.288.288,0,0,1,.106-.013,5.531,5.531,0,0,1,1.346.081c-2.288,3.781-4.628,7.522-7.078,11.209a26.055,26.055,0,0,1,1.253-3.216" transform="translate(83.153 160.482)" fill="#84735e"/><path d="M34.153,74.113a40.559,40.559,0,0,0,.666-5.272,130.8,130.8,0,0,0-.374-13.281,74.717,74.717,0,0,0-5.652-21.354,80.9,80.9,0,0,0-14.56-23.5,53.365,53.365,0,0,0-12-9.723C1.62.61.941.344.229,0,.155.4.1.705,0,1.229c9.986,7,16.376,16.952,21.662,27.741a68.2,68.2,0,0,1,6.872,34.577,44.625,44.625,0,0,0,.02-13.641C26.639,34.184,19.5,20.846,9.637,8.788c-1.469-1.8-3.211-3.369-4.78-5.151.562.412,1.13.817,1.686,1.238A58.13,58.13,0,0,1,19.39,18.583a86.715,86.715,0,0,1,13.731,32.8c1.249,6.429,1.241,12.94,1.05,19.451a29.312,29.312,0,0,1-.453,3.274l.436.008" transform="translate(160.019 376.646)" fill="#84735e"/><path d="M.345,67.479c0-4.94-.112-9.884.022-14.819C.755,38.224,2.864,24.1,8.486,10.676a29.965,29.965,0,0,1,4.076-7.335c.44-.548.965-1.025,1.585-1.678a37.448,37.448,0,0,1,2.368,7.373,65.3,65.3,0,0,1,1.339,12.516c.093,2.919.133,5.848.005,8.763-.231,5.209-.509,10.421-.95,15.616-.416,4.909-1.074,9.8-1.609,14.7a3.244,3.244,0,0,0,.223,1.631c.576-4.435,1.121-8.876,1.735-13.306a176.166,176.166,0,0,0,1.27-29.232A47.652,47.652,0,0,0,15.151,2.337,9.165,9.165,0,0,0,13.79,0c.023.3.044.6.07.937C10.137,4.089,8.491,8.484,6.805,12.813A100.9,100.9,0,0,0,1.657,32.247C-.379,43.936-.163,55.7.345,67.479" transform="translate(142.27 377.025)" fill="#84735e"/><path d="M22.719,0c-.5.431-.928.748-1.292,1.132A75.341,75.341,0,0,0,1.6,38.864a69.319,69.319,0,0,0-1.336,12C.172,54.85-.023,58.832,0,62.814a34.7,34.7,0,0,0,.844,6.768c-.086-2.234-.27-4.47-.237-6.7.071-4.711.1-9.431.423-14.129,1.241-17.968,8.425-33.392,20.3-46.764.447-.5.892-1.009,1.325-1.525.052-.063.031-.191.066-.46" transform="translate(123.79 380.715)" fill="#84735e"/><path d="M41.319.013A21.007,21.007,0,0,0,32.631,1.66,43.121,43.121,0,0,0,14.446,15.948,82.314,82.314,0,0,0,1.63,41.34c-.545,1.7-1.047,3.423-1.546,5.142a2.215,2.215,0,0,0-.009,1.176c.961-2.807,1.87-5.633,2.89-8.418C6.025,30.876,9.9,22.922,15.481,15.93,20.461,9.688,26.489,4.728,34.116,2,36,1.328,38,.956,39.941.437c.464-.124.919-.281,1.378-.424" transform="translate(90.794 376.829)" fill="#84735e"/><path d="M33.621.415c-1.714-.771-3.4-.3-4.99.081-5.194,1.257-9.351,4.256-12.9,8.149A52.865,52.865,0,0,0,5.846,25.356,131.886,131.886,0,0,0,.46,44.221,12.682,12.682,0,0,0,0,47.532c.7-2.584,1.412-5.163,2.1-7.749,1.993-7.542,4.294-14.971,8.117-21.83A39.844,39.844,0,0,1,20,5.842a23.168,23.168,0,0,1,8.895-4.609c1.515-.371,3.081-.54,4.73-.818" transform="translate(108.141 376.302)" fill="#84735e"/><path d="M.2,41.346c1.064-3.415,2.029-6.864,3.211-10.238A52.6,52.6,0,0,1,23.6,4.463,23.312,23.312,0,0,1,34.409.585a9.1,9.1,0,0,0,1-.131A5.888,5.888,0,0,0,36.655.017a21.374,21.374,0,0,0-13.2,3.6A52.3,52.3,0,0,0,2.467,32.23C1.551,35.212.818,38.251,0,41.263l.2.082" transform="translate(115.615 375.997)" fill="#84735e"/><path d="M.052,0A2.55,2.55,0,0,0,.917,2.32,86.133,86.133,0,0,1,13.494,26,69.2,69.2,0,0,1,17,41.007c.366,3.283.394,6.6.552,9.52.655-7.688-.156-15.826-3.978-26.452A80.907,80.907,0,0,0,.052,0" transform="translate(159.627 379.085)" fill="#84735e"/><path d="M1.49,46.685A99,99,0,0,1,6.49,0,82.038,82.038,0,0,0,.455,23.021,78.367,78.367,0,0,0,1.49,46.685" transform="translate(129.997 410.644)" fill="#84735e"/><path d="M0,0C1.915,4.048,3.894,7.677,5.37,11.5A99.167,99.167,0,0,1,9,23.363a48.512,48.512,0,0,1,1.521,12.146c-.042,4.136-.24,8.272-.342,11.558C13.775,33.423,8.054,10.6,0,0" transform="translate(169.866 390.562)" fill="#84735e"/><path d="M15.045,0C8.81,5.292-.464,28.141.018,36.874,2.824,23.691,6.889,11.025,15.045,0" transform="translate(95.629 396.732)" fill="#84735e"/><path d="M9.2,0C5.537,4.184-.677,24.361.06,29.5A118.258,118.258,0,0,1,9.2,0" transform="translate(99.633 404.076)" fill="#84735e"/><path d="M1.254,28.564C1.084,23.779.683,18.987.807,14.21.93,9.465,1.579,4.735,2,0-.3,6.137-.709,23.02,1.254,28.564" transform="translate(132.799 425.948)" fill="#84735e"/><path d="M.921,0a110.05,110.05,0,0,0,.542,32.154A205.06,205.06,0,0,1,.921,0" transform="translate(148.344 425.584)" fill="#84735e"/><path d="M7.974,0C3.586,4.683,1.4,10.4,0,16.507A68.644,68.644,0,0,1,7.974,0" transform="translate(104.932 432.063)" fill="#84735e"/><path d="M0,13.669c1.43-4.782,2.911-9.44,6-13.669C3.51,1.534-.1,9.951,0,13.669" transform="translate(102.633 434.45)" fill="#84735e"/><path d="M0,12.738C1.621,9.814,3.481,2.9,3.084,0Q1.542,6.362,0,12.738" transform="translate(113.512 436.421)" fill="#84735e"/><path d="M0,.017C.117,3.392.235,6.766.354,10.173A26.285,26.285,0,0,0,.334,0L0,.017" transform="translate(162.274 446.57)" fill="#84735e"/><path d="M.772,8.655V0L.4.007C-.445,2.936.223,5.828.772,8.655" transform="translate(146.662 459.15)" fill="#84735e"/><path d="M.666,10.313C.8,6.8,1.19,3.352,0,0L.666,10.313" transform="translate(164.692 442.65)" fill="#84735e"/><path d="M176.237,3.512c-.658,1.05-1.223,2.153-1.9,3.189a116.243,116.243,0,0,1-17.8,21.934C150.2,34.69,143.9,40.8,136.637,45.765c-3.62,2.476-7.349,4.79-11.009,7.213a65.627,65.627,0,0,0-20.385,20.911,1.678,1.678,0,0,1-.108.188c-.538.9-1.078,1.817-1.615,2.732-1.522,2.624-3,5.288-4.333,8.02-4.294,8.787-7.67,17.964-11.209,27.074A69.139,69.139,0,0,0,84.1,125.628c-.7,4.171,1.024,7.926,4.765,9.554a25.073,25.073,0,0,1,10.064,7.993,72.975,72.975,0,0,1,5.2,7.872c2.394,4.185,4.533,8.518,6.848,12.757a82.252,82.252,0,0,0,19.3,24.046,55.386,55.386,0,0,1,5.194,5.046,7.68,7.68,0,0,1,1.616,2.893,2.821,2.821,0,0,1-2.289,3.795,8.565,8.565,0,0,1-2.986.054,14.962,14.962,0,0,1-6.715-2.987,77.191,77.191,0,0,1-7.052-6c-2.811-2.812-6.567-3.108-10.092-4.508a6.245,6.245,0,0,0,0,.888c.5,2.974,1.13,5.948,1.482,8.948a23.7,23.7,0,0,1-.553,9.527,12.988,12.988,0,0,1-1.883,3.7,4.065,4.065,0,0,1-3.984,1.736c-1.05-.121-2.086-.35-3.176-.552-.148.108-.348.215-.525.363a37.638,37.638,0,0,1-8.289,5.436,18.791,18.791,0,0,1-12.259,1.857c-.928-.175-1.856-.39-2.744-.579a9.5,9.5,0,0,1-8.963.323,5.68,5.68,0,0,0-4.1-.148c-2.7.767-3.956.309-5.638-2a23.17,23.17,0,0,1-1.359-2.314c-.241-.431-.444-.875-.592-1.184a28.066,28.066,0,0,1-4.79,1.305c-4.023.377-6.607-1.2-7.724-4.521a34.657,34.657,0,0,1-.942-4.589c-.121-.686-.214-1.372-.31-1.978-4.589-.552-5.261-.619-11.719-6.015-1.253.955-2.449,1.978-3.742,2.853a5.549,5.549,0,0,1-5.315.565,7.393,7.393,0,0,1-2.947-2.1v-.013a5.759,5.759,0,0,1-.739-.969,8.235,8.235,0,0,1-1.373-5.907,25.8,25.8,0,0,1,2.759-7.024c.269-.511.51-1.036.766-1.561-.12-.081-.229-.148-.336-.229-.645.592-1.29,1.2-1.95,1.79a13.652,13.652,0,0,1-4.8,3.041,3.727,3.727,0,0,1-3.068-.309,4.5,4.5,0,0,0-2.355-.659,4.006,4.006,0,0,1-4.306-2.8,13.294,13.294,0,0,1-.9-6.594,21.488,21.488,0,0,1,6.513-13.174c.377-.377.754-.767,1.184-1.225a9.867,9.867,0,0,1-3.014-.673c-3.122-1.9-5.463-4.467-6.15-8.235a4.436,4.436,0,0,1,1.709-4.642,18.914,18.914,0,0,1,3.337-2.261,67.792,67.792,0,0,1,7.509-2.933c5.45-1.722,11.021-3.108,16.281-5.382,6.082-2.637,12.178-5.221,18.247-7.9a34.806,34.806,0,0,1,13.848-3.055c.47-.013.928-.013,1.4,0a38.531,38.531,0,0,1,7.645.982,19.926,19.926,0,0,0,5.852.484c2.5-.188,4.589-1.063,5.774-3.458.685-1.4,1.425-2.8,1.99-4.252,2.732-7.132,5.382-14.277,8.128-21.4a170.584,170.584,0,0,1,9.246-20.413c.537-1.023,1.117-2.032,1.709-3.041.133-.256.281-.5.429-.754A65.27,65.27,0,0,1,119.1,56.489c3.97-3.095,8.235-5.84,12.459-8.612a103.509,103.509,0,0,0,13.861-10.415c4.669-4.306,9.351-8.6,13.793-13.133A98.334,98.334,0,0,0,176.508.565c.094-.161.229-.323.4-.565a4.6,4.6,0,0,1-.673,3.512M110.881,185.938a1.935,1.935,0,0,0,.484,0c-.015-.108,0-.242-.055-.283-6.324-5.194-10.548-11.9-13.752-19.3-1.8-4.171-3.431-8.424-5.113-12.649A79.6,79.6,0,0,0,86.068,141.1c-.2-.323-.444-.646-.673-.955-.055-.067-.188-.081-.417-.148.093.431.133.807.241,1.157a69.6,69.6,0,0,1,2.423,13.053,46.663,46.663,0,0,0,5.033,16.847c4,7.428,10.281,12.191,18.206,14.883m-52.09,29.833a2.864,2.864,0,0,0,3.337.928,7.863,7.863,0,0,1,6.351.4A6.9,6.9,0,0,0,74.173,217c-.392-.269-.592-.444-.821-.565-5.424-2.745-8.141-7.293-8.895-13.2-.163-1.184-.082-2.5-1.265-3.418-.163.175-.365.3-.444.484-.916,1.978-1.655,4.064-2.76,5.934a60.926,60.926,0,0,1-3.808,5.288,13.846,13.846,0,0,0,2.611,4.252M30.829,195.425a57.7,57.7,0,0,0,5.814,4.548,8.576,8.576,0,0,0,4.506,1.171,7.9,7.9,0,0,1,.982.2c.955.955.78,2.193.955,3.337a28.307,28.307,0,0,0,.405,2.812c1.021,3.875,3.524,5.652,8.262,4.71a9.657,9.657,0,0,0,5.45-3.741c2.407-2.907,3.726-6.351,5.072-9.81-4.669-12.218-1.223-23.266,4.979-33.91-.106-.081-.214-.161-.309-.242-.377.256-.754.484-1.13.74-3.107,2.113-6.135,4.346-9.339,6.311a31.764,31.764,0,0,1-13.024,4.225,10.3,10.3,0,0,1-6.972-1.305,5.616,5.616,0,0,0-.9-.458,2.029,2.029,0,0,0-.456-.108c-.136.027-.3.027-.35.094-3.956,4.441-6.755,9.366-6.514,15.555a8.091,8.091,0,0,0,2.57,5.867m48.511-49.3c-3.822,4.737-8.586,7.885-13.659,10.59a22.957,22.957,0,0,0-9.741,9.5,17.53,17.53,0,0,1-5.571,6.217,7.668,7.668,0,0,0-.632.525c10.953-2.745,26.8-17.3,29.6-26.832M2.9,174.393a14.706,14.706,0,0,0,.121,7.172,7.447,7.447,0,0,0,.915,1.965,2.362,2.362,0,0,0,2.4,1.251,4.518,4.518,0,0,1,3.485.888,1.785,1.785,0,0,0,2.059.161,24.6,24.6,0,0,0,3.472-2.018c1.494-1.171,2.839-2.543,4.278-3.795.484-.431.957-1.036,1.966-.377-.3.7-.58,1.453-.916,2.18-1.117,2.314-2.367,4.589-3.364,6.957a7.22,7.22,0,0,0,.5,7.051,6.993,6.993,0,0,0,.606.861c.04.054.081.094.108.135,2.18,2.624,5.072,2.987,7.858.928.941-.686,1.8-1.48,2.678-2.193a36,36,0,0,1-1.642-4.293,13.345,13.345,0,0,1,.362-7.387,26.051,26.051,0,0,1,1.253-3.216,58.344,58.344,0,0,1,3.147-5.356c.257-.417.525-.821.957-1.48h-1.87c-1.857.013-3.715.108-5.557,0a10.658,10.658,0,0,1-3.108-.646c-3.472-1.319-5.034-4.293-3.944-7.8a18.4,18.4,0,0,1,2.5-4.912,51.951,51.951,0,0,1,4.092-4.683,4.814,4.814,0,0,0,1.009-1.386c-.392.161-.78.3-1.157.471-4.2,1.992-8.425,3.956-12.608,6.028a11.921,11.921,0,0,0-2.651,2.018A21.549,21.549,0,0,0,2.9,174.393M80.375,134.2a3.335,3.335,0,0,0-1.936-2.368,21.755,21.755,0,0,0-4.011-1.722,113.78,113.78,0,0,0-11.411-2.032c-.417-.054-.821-.081-1.238-.108-.471-.013-.941-.027-1.413-.013A30.256,30.256,0,0,0,49.829,130.2c-2.14.821-4.278,1.7-6.365,2.651-10.1,4.683-20.359,8.921-31.163,11.707a25.071,25.071,0,0,0-8.437,3.714c-3.189,2.261-3.593,3.31-1.817,7.253a12.017,12.017,0,0,0,4.427,4.75,3.227,3.227,0,0,0,2.92.363,38.125,38.125,0,0,0,4.723-1.749c4.817-2.288,9.579-4.683,14.37-7.024.632-.31,1.239-.861,2.37-.229a10.6,10.6,0,0,1-1,1.346c-.994.982-2.1,1.87-3.068,2.88-1.6,1.655-3.216,3.31-4.641,5.1a15.178,15.178,0,0,0-2.222,3.943c-1.452,3.714.378,6.957,4.348,7.616a33.933,33.933,0,0,0,5.368.256c1.239.013,2.5-.108,3.756-.175a.3.3,0,0,1,.108-.013,5.539,5.539,0,0,1,1.346.081,8.248,8.248,0,0,1,2.34.875,10.7,10.7,0,0,0,10.173-.04,16.973,16.973,0,0,0,7.684-7.347,24.327,24.327,0,0,1,10.874-10.429,40.484,40.484,0,0,0,11.194-7.98c3.7-3.9,4.644-8.437,3.256-13.55m1.576,6.028a15.749,15.749,0,0,1-1.265,6.23A37.318,37.318,0,0,1,72.8,158.5a32.349,32.349,0,0,0-5.626,8.316,60.344,60.344,0,0,0-5.248,13.443,32.764,32.764,0,0,0,.606,15.811,4.953,4.953,0,0,0,1.05,2.086c1.508,1.507,1.845,3.391,2.1,5.356.876,6.755,4.832,11.209,11.438,12.985a18.119,18.119,0,0,0,13.552-1.44,34.663,34.663,0,0,0,7.845-5.181,2.082,2.082,0,0,1,2.314-.525,2.9,2.9,0,0,0,.322.094c3.324.915,5.317.013,6.366-3.337a21.362,21.362,0,0,0,.927-6.123,47.311,47.311,0,0,0-1.951-14.479c-.336-.188-.673-.4-1.009-.579a32.421,32.421,0,0,1-16.309-19.094,58.47,58.47,0,0,1-2.8-12.783,54.34,54.34,0,0,0-2.987-13.779c-.308-.807-.7-1.588-1.062-2.4l-.377.081c0,1.09-.027,2.18,0,3.27m.969-6.432a4.8,4.8,0,0,0-.928-.054,24.412,24.412,0,0,0,2.031,3.727c4.59,5.786,7.71,12.339,10.4,19.162q2.684,6.8,5.759,13.456a48.031,48.031,0,0,0,8.5,12.286,26,26,0,0,0,6.553,4.965,26,26,0,0,1,3.648,2.651c2.3,1.9,4.466,3.943,6.807,5.786a13.9,13.9,0,0,0,6.54,2.92,6.27,6.27,0,0,0,2.006-.013c1.642-.3,2.288-1.332,1.722-2.933a6.47,6.47,0,0,0-1.386-2.274c-1.7-1.722-3.419-3.431-5.261-4.979a81.911,81.911,0,0,1-18.96-23.454c-2.437-4.373-4.669-8.841-7.106-13.2a70.667,70.667,0,0,0-4.427-6.957c-4.009-5.517-9.5-8.975-15.9-11.088" transform="translate(158.112 115.686)" fill="#84735e"/><path d="M34.974,6A36.3,36.3,0,0,1,44.93,17.753c2.82,5.162,5.311,10.5,8.076,15.7,2.609,4.9,5.357,9.723,8.113,14.541.745,1.3,1.741,2.465,2.82,3.968,0-.49.054-.661-.008-.746C59.518,45.15,56.27,38.435,52.953,31.75c-2.615-5.271-5.269-10.527-8.117-15.674A35.871,35.871,0,0,0,36.48,6.019,21.362,21.362,0,0,0,29.6,1.9,18.481,18.481,0,0,1,27.3.741l.733-.522C28.012.147,27.994.073,27.978,0A22.326,22.326,0,0,0,25.75.379,47.405,47.405,0,0,0,7.6,10.32C5.076,12.451,2.781,14.858.387,17.146A1.429,1.429,0,0,0,0,17.813C7.6,10.26,15.885,3.805,26.292.76A37.531,37.531,0,0,1,39,12.5,109.3,109.3,0,0,1,51,35.95a7.077,7.077,0,0,0,.814,1.654,76.94,76.94,0,0,0-6.859-16.538C42.029,15.772,39,10.546,34.974,6" transform="translate(211.422 247.319)" fill="#84735e"/><path d="M0,34.465C12.6,19.532,26.781,6.822,45.49,0a26.6,26.6,0,0,0-6.774,1.986,75.845,75.845,0,0,0-16.277,9.74A111.763,111.763,0,0,0,2.876,30.4C1.835,31.692.954,33.108,0,34.465" transform="translate(178.699 249.378)" fill="#84735e"/><path d="M.424,52.08c.872-3.172,1.8-6.33,2.606-9.519A130.884,130.884,0,0,0,6.342,23.22,84.854,84.854,0,0,0,6.463,5.91c-.148-1.393-.234-2.792-.4-4.182A4.64,4.64,0,0,0,5.483,0C7.569,17.739,4.951,34.962,0,51.941l.424.139" transform="translate(239.062 266.66)" fill="#84735e"/><path d="M.187,13.757c.483-.249.972-.487,1.447-.748A161.706,161.706,0,0,1,17.315,4.943,50.233,50.233,0,0,1,30.3,1.095c4.683-.58,9.386-.853,13.958.849A9.275,9.275,0,0,0,39.5.248,39.779,39.779,0,0,0,21.67,2.473,93.914,93.914,0,0,0,4.92,10.595C3.274,11.55,1.639,12.523,0,13.488c.062.09.125.179.187.269" transform="translate(189.276 244.471)" fill="#84735e"/><path d="M.2,42.889C1.348,28.109,4.164,13.76,9.843,0c-.268.472-.557.933-.8,1.418A74.175,74.175,0,0,0,3.705,16.929C2.56,21.7,1.543,26.52.768,31.367A41.242,41.242,0,0,0,.2,42.889" transform="translate(224.591 279.928)" fill="#84735e"/><path d="M1.614.094c.262,1.07.519,2.142.787,3.211a40.8,40.8,0,0,1,1.231,9.472,131.219,131.219,0,0,1-1.284,20.3C1.685,37.664.79,42.219,0,46.79c-.017.1.03.215.269.377.553-2.4,1.206-4.781,1.642-7.2a130.8,130.8,0,0,0,2.1-18.854c.1-3.139.311-6.28.293-9.419A32.994,32.994,0,0,0,2.576,1.467,13.518,13.518,0,0,0,1.894,0l-.28.094" transform="translate(238.121 250.802)" fill="#84735e"/><path d="M5.627,0C7.725,15.262,4.866,29.855,0,44.2l.32.093c.778-2.223,1.615-4.427,2.32-6.674A96.686,96.686,0,0,0,6.283,20.941,61.962,61.962,0,0,0,6.036,1.364,13.434,13.434,0,0,0,5.627,0" transform="translate(242.14 283.16)" fill="#84735e"/><path d="M21.549,0A70.464,70.464,0,0,0,0,26.662c2.039-3.205,3.944-6.509,6.156-9.59a100.727,100.727,0,0,1,7.168-8.9C15.916,5.314,18.8,2.714,21.549,0" transform="translate(197.111 263.452)" fill="#84735e"/><path d="M26.557,0C15.8,5.171,6.666,12.279,0,22.31A77.266,77.266,0,0,1,12.123,9.773,112.625,112.625,0,0,1,26.557,0" transform="translate(191.632 254.267)" fill="#84735e"/><path d="M19.355,0C10.4,5.755,3.575,13.269,0,23.456,4.219,13.778,10.955,6.2,19.355,0" transform="translate(194.404 287.365)" fill="#84735e"/><path d="M13.265,0C7.445,6.193,3.421,13.507,0,21.2A149.236,149.236,0,0,1,13.265,0" transform="translate(207.129 288.326)" fill="#84735e"/><path d="M10.808,0C6.381,2.469.388,13.879,0,19.983c1.284-3.207,2.66-6.851,4.2-10.426A34.152,34.152,0,0,1,10.808,0" transform="translate(178.902 288.658)" fill="#84735e"/><path d="M6.058,0C2.253,7.436.692,15.481,0,23.75,1.581,15.733,2.66,7.584,6.058,0" transform="translate(223.698 284.74)" fill="#84735e"/><path d="M11.59,0C6.506,5.816,1.819,11.9,0,19.666,2.511,12.316,7.036,6.167,11.59,0" transform="translate(190.947 293.412)" fill="#84735e"/><path d="M12.4,0C7.541,3.1,1.375,11.894,0,17.567c1.1-2.061,2.1-4.185,3.33-6.167A63.066,63.066,0,0,1,7.6,5.356C9.094,3.485,10.795,1.779,12.4,0" transform="translate(162.051 282.397)" fill="#84735e"/><path d="M0,20.755C3.8,14.339,4.276,7.238,4.044,0,3.61,7.089,3.064,14.156,0,20.755" transform="translate(255.801 305.602)" fill="#84735e"/><path d="M10.138,0A49.48,49.48,0,0,0,0,15.932c1.588-2.742,3.088-5.54,4.788-8.211C6.466,5.081,8.346,2.569,10.138,0" transform="translate(200.491 273.714)" fill="#84735e"/><path d="M7.56,0A69.911,69.911,0,0,1,0,16.191C3.383,13.019,7.546,3.379,7.56,0" transform="translate(210.765 303.818)" fill="#84735e"/><path d="M2.333,0A36.277,36.277,0,0,0,.068,15.759,74.3,74.3,0,0,0,.945,7.881C1.272,5.239,1.859,2.627,2.333,0" transform="translate(217.95 316.67)" fill="#84735e"/><path d="M10.355,0C7.245,1.892,1.387,10.168,0,14.5A85.288,85.288,0,0,1,10.355,0" transform="translate(164.518 285.855)" fill="#84735e"/><path d="M0,14.609A25.266,25.266,0,0,0,3.076,0,44.65,44.65,0,0,1,0,14.609" transform="translate(258.421 310.245)" fill="#84735e"/><path d="M1.129,0A36.933,36.933,0,0,0,.042,11.562C.6,10.583,1.262,2.964,1.129,0" transform="translate(220.167 321.599)" fill="#84735e"/><path d="M115.093,109.911a10.361,10.361,0,0,1,1.153,4.87c-.04,2.074-.139,4.146-.234,6.218a21.423,21.423,0,0,0,1.231,9.438,8.107,8.107,0,0,0,1.255,2.168,1.968,1.968,0,0,0,3.095.07,7.208,7.208,0,0,0,.832-1.055,24.675,24.675,0,0,0,3.173-6.851,59.422,59.422,0,0,0,2.629-15.383,26.742,26.742,0,0,0-5.855-18.525c-1.129-1.4-2.183-2.859-3.34-4.233A116.449,116.449,0,0,1,105.255,65.7c-1.7-3.22-3.717-6.275-5.568-9.417a10.873,10.873,0,0,1-1.032-2.1,12.3,12.3,0,0,1,.891-9.48,28.04,28.04,0,0,1,6.141-8.362c1.195-1.106,2.356-2.249,3.54-3.365C125.648,17.5,144.522,6.413,166.561,1c.418-.1.826-.248,1.363-.41a3.228,3.228,0,0,0-2.979-.406,121.941,121.941,0,0,0-44.068,21.543A169.819,169.819,0,0,0,102.838,37.41a19.983,19.983,0,0,1-9.539,5.1,6.857,6.857,0,0,1-5.529-.688c-1.627-.993-3.23-2.028-4.889-2.962-9.789-5.509-20.238-7.975-31.45-6.5-3.948.522-7.862,1.343-11.765,2.16A87.529,87.529,0,0,0,8.515,48.134a25.467,25.467,0,0,0-7.367,7.078c-1.989,3.069-1.386,5.68,1.747,7.557a9.423,9.423,0,0,0,2.654,1.016,10.288,10.288,0,0,0,5.816-.358c1.693-.592,3.341-1.315,5-2,.793-.326,1.565-.7,2.347-1.05.055.1.11.2.164.292-.828.816-1.678,1.608-2.479,2.448-1.842,1.928-1.966,2.832-.8,5.259a.89.89,0,0,1,.012.33,1.537,1.537,0,0,1-.148.3c-.175.219-.355.436-.55.636a14.829,14.829,0,0,0-4.245,10.843,15.515,15.515,0,0,0,2.724,8.724,24.176,24.176,0,0,1,3.9,11.346,18.013,18.013,0,0,0,.887,4.1,6.856,6.856,0,0,0,6.723,4.673,13.956,13.956,0,0,0,3.317-.5,16.863,16.863,0,0,0,6.942-3.269l3.3.883c-.128.825-.217,1.535-.353,2.236a13.386,13.386,0,0,0-.077,5.849,7.052,7.052,0,0,0,4.469,5.307,9.852,9.852,0,0,1,1,.513,6.937,6.937,0,0,1,0,.756,7.446,7.446,0,0,0,3.4,7.394,40.229,40.229,0,0,0,4.559,2.866,3.518,3.518,0,0,1,2.045,2.67c.587,3.27,2.621,4.391,5.333,4.762a11.47,11.47,0,0,0,9.664-2.95,34.618,34.618,0,0,0,6.424-8.607c.3-.523.611-1.041.932-1.589a2.28,2.28,0,0,1,1.759,1.775c.211.872.285,1.776.5,2.646a27.346,27.346,0,0,0,1.2,4.19,4.9,4.9,0,0,0,5.614,3.022,12.666,12.666,0,0,0,2.123-.518,19.614,19.614,0,0,0,6.921-4.391,50.557,50.557,0,0,0,7.675-9.362,58.836,58.836,0,0,0,7.845-15.978c.579-1.926.972-3.908,1.416-5.726,1.4,2.873,2.771,5.753,4.193,8.607m-101.4-30.3a8.613,8.613,0,0,1,2.464-9.621c.131-.1.272-.2.552-.4,4.943,4.287,10.62,5.006,17.088,3.1a10.4,10.4,0,0,1-.684,1.286,13.769,13.769,0,0,0-3.115,11.159,7.646,7.646,0,0,1-.463,3.1c-.366,1.29-1,2.508-1.356,3.8-1.51,5.419.132,9.516,4.938,12.525.225.141.421.326.762.593-.427.342-.716.727-1.091.849a53.757,53.757,0,0,1-7.055,2.133,5.544,5.544,0,0,1-6.3-3.413,6.52,6.52,0,0,1-.474-2.773,32.091,32.091,0,0,1,.651-4.317c.223-1.156.54-2.294.838-3.436a8.816,8.816,0,0,0-2.071-8.756c-1.408-1.518-2.861-2.993-4.293-4.486.685,1,1.321,2.033,2.066,2.985a40.328,40.328,0,0,1,2.683,3.208,8.5,8.5,0,0,1,1.18,3.263c.394,2.894-.817,5.541-1.311,8.3l-.416,0c-.122-.518-.266-1.033-.365-1.556a19.622,19.622,0,0,0-2.444-6.579,51.985,51.985,0,0,1-2.745-5.194,13.312,13.312,0,0,1-.768-7.429,5.716,5.716,0,0,1,.324-1.021c.632,1.416,1.234,2.761,1.837,4.107-.143-.474-.248-.963-.431-1.42m23.982,25.413c-1.064-.354-2.162-.632-3.186-1.081A8.743,8.743,0,0,1,28.95,94.2a19.885,19.885,0,0,1,1.36-4.661,9.429,9.429,0,0,0,.748-5.4,10.811,10.811,0,0,1,1.635-7.587,13.846,13.846,0,0,1,5.832-5.633C41.088,69.669,43.449,68,45.885,66.5c6.69-4.128,13.342-8.319,20.069-12.384a48.87,48.87,0,0,1,16.205-5.95,15.034,15.034,0,0,1,6.838.3c3.013.807,4.19,2.265,4.4,5.36.776,11.657-1.981,22.511-7.448,32.746a69.873,69.873,0,0,1-19.53,23.32,49.683,49.683,0,0,1-14.926,8,28.192,28.192,0,0,1-6.265,1.164c-3.092.235-5.24-1.5-6.049-4.5a11.934,11.934,0,0,1-.018-5.342c.2-1.083.33-2.18.527-3.523-.868-.284-1.442-.47-2.014-.659m58.757-51.65c.889,1.226,1.717,2.5,2.585,3.738,9.582,13.709,13.518,28.728,10.488,45.348-1.21,6.629-4.071,12.594-7.62,18.243a50.362,50.362,0,0,1-9.022,11.28,16.452,16.452,0,0,1-7.086,4.072c-3.072.717-4.9-.225-5.882-3.223a28.935,28.935,0,0,1-.9-4.447,5.386,5.386,0,0,0-2.262-3.787c-4.071-2.843-5.862-6.973-6.479-11.715-.187-1.438-.14-2.908-.2-4.418.86-.8,1.7-1.535,2.5-2.316C83.054,95.889,90.254,83.74,93.434,69.317A57.342,57.342,0,0,0,94.463,54.73c-.027-.748.065-1.5.1-2.161,1.116-.378,1.488.285,1.868.809M21.588,58.1a18.512,18.512,0,0,0-2.391.7c-2.1.93-4.153,1.986-6.264,2.9a12.415,12.415,0,0,1-5.888,1.2A7.4,7.4,0,0,1,2.55,61.22C.887,59.767.586,58.34,1.715,56.432a17.8,17.8,0,0,1,2.328-3.073,41.73,41.73,0,0,1,9.4-7.057,86.434,86.434,0,0,1,19.575-8.9,111.066,111.066,0,0,1,18.941-3.974,48.37,48.37,0,0,1,31.733,7.248,16.324,16.324,0,0,1,2.434,2.057c1.278,1.2,1.137,2.449-.5,3.122a20.582,20.582,0,0,1-4.829,1.413c-2.493.357-5.037.354-7.548.612-2.563.262-5.13.563-7.666,1.013a18.485,18.485,0,0,0-9.355,5.064c-4.515,4.208-8.954,8.494-13.406,12.765a19.144,19.144,0,0,1-5.45,3.6,27.1,27.1,0,0,1-8.6,2.262,14.225,14.225,0,0,1-11.054-3.6c-2.344-2.033-2.383-3.277-.215-5.432.794-.789,1.677-1.491,2.531-2.216.68-.576,1.379-1.129,2.192-1.791-.24-.536-.392-.879-.636-1.431m47.354,51.411a19.865,19.865,0,0,0,5.94,15.207,2.427,2.427,0,0,1-.128.665,41.215,41.215,0,0,1-5.964,8.733,7.349,7.349,0,0,1-4.439,2.53,3.484,3.484,0,0,1-3.8-1.86,10.24,10.24,0,0,1-.869-2,5.537,5.537,0,0,0-5.51-4.12c-1.12-.055-2.24-.151-3.351-.3a9.009,9.009,0,0,1-4.192-1.632,5.379,5.379,0,0,1-1.67-6.467c9.179-.634,16.444-5.553,23.986-10.754m49.483,20.1a13.646,13.646,0,0,1,1.786-8.1c2.629-4.908,2.7-9.658-.561-14.273-1.782-2.522-3.688-4.955-5.524-7.437-1.2-1.631-2.4-3.273-2.53-5.409-.03-.5-.071-1.008-.063-1.51a53.957,53.957,0,0,0-1.9-16.006,5.956,5.956,0,0,1-.14-.82c-.005-.039.05-.087.156-.258.257.3.509.549.716.833,2.592,3.53,5.162,7.074,7.767,10.591,1.07,1.444,2.184,2.855,3.32,4.248,4.375,5.369,5.964,11.552,5.652,18.391a54.262,54.262,0,0,1-3.593,17.394,26.175,26.175,0,0,1-2.053,3.849,7.819,7.819,0,0,1-1.3,1.308,3.153,3.153,0,0,1-1.73-2.8m-1.34-7.689c.023-1.791.157-3.581.262-5.37a16.094,16.094,0,0,0-2.277-8.989,51.323,51.323,0,0,1-2.835-6.629,5.361,5.361,0,0,1-.188-2.7c.222.273.452.54.663.819q2.331,3.088,4.656,6.182a21.408,21.408,0,0,1,3.481,6.117,10.537,10.537,0,0,1-.618,8.153c-1.083,2.255-2.383,4.451-2.519,7.067l-.47-.013c-.058-1.547-.176-3.095-.156-4.641M68.874,51.392c-4,2.141-7.953,4.389-11.862,6.7-3.234,1.912-6.374,3.982-9.559,5.977a1.727,1.727,0,0,1-1.216.309c1.29-1.255,2.55-2.545,3.875-3.761,2.6-2.387,5.252-4.716,7.849-7.106a15.919,15.919,0,0,1,5.956-3.369A28.173,28.173,0,0,1,75,48.722c-2.048.88-4.171,1.621-6.131,2.67m-11.86,85.831a3.5,3.5,0,0,1-2.281-2.72,5.269,5.269,0,0,0-3.678-4.545,4.261,4.261,0,0,1-.98-.752c.04-.117.079-.234.12-.351,1.969.291,3.959.486,5.9.9A4.015,4.015,0,0,1,58.95,132.8a7.887,7.887,0,0,0,3.357,4.71,7.6,7.6,0,0,1-5.294-.289" transform="translate(163.885 0.001)" fill="#84735e"/><path d="M0,60.768c4.353-2.647,8.7-5.105,12.861-7.856C21.42,47.252,28.043,39.705,33.525,31.1a81.152,81.152,0,0,0,8.895-18.594A50.576,50.576,0,0,0,44.715.825C44.737.562,44.773.3,44.8.04L45.159,0a5.146,5.146,0,0,1,.206,1.456,67.4,67.4,0,0,1-1.457,8.595A81.127,81.127,0,0,1,21.124,47.3,76.015,76.015,0,0,1,.846,60.435c-.246.114-.5.2-.846.334" transform="translate(212.126 50.197)" fill="#84735e"/><path d="M0,68.055C9.574,59.516,16.153,49.23,18.984,36.628c2.78-12.374,2.438-24.533-1.958-36.52L17.346,0c.312.612.677,1.2.928,1.839a52.719,52.719,0,0,1,3.3,18.455,65.092,65.092,0,0,1-4.8,25.954,48.179,48.179,0,0,1-10.5,16.266C4.3,64.5,2.32,66.473.346,68.451L0,68.055" transform="translate(248.649 60.172)" fill="#84735e"/><path d="M0,13.623c1.149-.67,2.288-1.359,3.452-2C16.635,4.3,30.69.1,45.836,0a61.532,61.532,0,0,1,9.851.7,16.437,16.437,0,0,1,7.288,2.828c-1.5-.49-2.983-1.039-4.5-1.46C53.281.626,47.974.592,42.647.824c-14.3.619-27.534,4.87-39.987,11.769L.174,13.976,0,13.623" transform="translate(183.969 36.013)" fill="#84735e"/><path d="M11.377,0a15.458,15.458,0,0,1,.744,1.892,67.7,67.7,0,0,1,1.856,19.514,73.778,73.778,0,0,1-3.293,19.33A65.223,65.223,0,0,1,.817,60.484,5.082,5.082,0,0,1,0,61.348a72.4,72.4,0,0,0,12.19-29.5A71.971,71.971,0,0,0,10.927.108L11.377,0" transform="translate(249.351 53.649)" fill="#84735e"/><path d="M0,23.972C13.275,12.939,27.774,4.236,44.688.06A2.115,2.115,0,0,1,46.081.2C28.88,4.664,13.852,13.2,0,23.972" transform="translate(209.599 48.653)" fill="#84735e"/><path d="M0,32.108A174.839,174.839,0,0,1,44.225,0,250.777,250.777,0,0,0,0,32.108" transform="translate(202.183 56.493)" fill="#84735e"/><path d="M51.82,1.211c-2.414-.18-4.781-.452-7.155-.518C35.577.437,26.822,2.26,18.248,5.1A100.967,100.967,0,0,0,1.613,12.432,6.347,6.347,0,0,1,0,13.067a2.786,2.786,0,0,1,.5-.475C12.851,5.538,25.965.825,40.277.047a99.7,99.7,0,0,1,10.38.409c.449.023,1.048,0,1.163.755" transform="translate(200.055 43.036)" fill="#84735e"/><path d="M38.587,0C28.627,13.287,16.6,23.737.171,28.113c-.057-.1-.114-.2-.171-.3,2.964-1.149,6.006-2.138,8.876-3.489a72.308,72.308,0,0,0,8.519-4.737,75.844,75.844,0,0,0,7.659-5.749c2.476-2.1,4.816-4.364,7.081-6.688C34.374,4.852,36.444,2.39,38.587,0" transform="translate(202.316 77.82)" fill="#84735e"/><path d="M38.244.051C24.858,1.325,12.016,4.344,0,10.611c.374-.244.737-.506,1.125-.725A76.024,76.024,0,0,1,21.056,2.339,74.245,74.245,0,0,1,36.484,0c.587-.013,1.173.031,1.76.048" transform="translate(190.472 37.919)" fill="#84735e"/><path d="M0,25.734C8.5,18.968,14.1,10.138,18.45,0c.053.568.176.873.089,1.1-3.46,8.768-8.346,16.578-15.455,22.88-.861.763-1.821,1.414-2.736,2.118L0,25.734" transform="translate(235.868 94.381)" fill="#84735e"/><path d="M0,14.2C2.166,11.045,19.464,2.049,29.963,0,26.507,1.269,23,2.419,19.608,3.838,16.141,5.287,12.716,6.869,9.4,8.631,6.1,10.381,2.964,12.428,0,14.2" transform="translate(184.773 45.765)" fill="#84735e"/><path d="M26.688,0C17.991,6.914,8.387,12.556,0,19.841,8.081,12.12,17.579,6.3,26.688,0" transform="translate(228.121 52.544)" fill="#84735e"/><path d="M20.666,0C15.246,7.346,8.128,12.556,0,16.5A89.676,89.676,0,0,0,20.666,0" transform="translate(211.446 83.119)" fill="#84735e"/><path d="M1.884,33.046C4.141,21.869,3.017,10.928,0,0A23.5,23.5,0,0,1,.922,2.168,58.661,58.661,0,0,1,3.3,16.908,54.13,54.13,0,0,1,2.8,28.784c-.24,1.432-.6,2.842-.912,4.262" transform="translate(263.124 56.094)" fill="#84735e"/><path d="M0,17.793C2.593,14.977,5.358,12.3,7.731,9.3c2.344-2.958,4.291-6.229,6.485-9.3A47.44,47.44,0,0,1,.265,18.037c-.087-.082-.176-.163-.265-.244" transform="translate(235.073 99.463)" fill="#84735e"/><path d="M0,0A29.732,29.732,0,0,1,4.981,22.745,39.155,39.155,0,0,0,0,0" transform="translate(281.693 86.712)" fill="#84735e"/><path d="M0,11.365C1.421,8.589,10.8,1.442,14.807,0A105.1,105.1,0,0,0,0,11.365" transform="translate(190.063 61.565)" fill="#84735e"/><path d="M4.1,17.434A81.9,81.9,0,0,0,2.927,8.463,79.735,79.735,0,0,0,0,0C2.671,2.181,5.226,12.934,4.1,17.434" transform="translate(278.121 81.799)" fill="#84735e"/><path d="M7.937,0C7.5,4.153,2.736,11.959,0,14.269A67.163,67.163,0,0,0,7.937,0" transform="translate(225.971 113.343)" fill="#84735e"/><path d="M8.375,0A40.166,40.166,0,0,1,0,15.41,76.9,76.9,0,0,0,8.375,0" transform="translate(224.639 110)" fill="#84735e"/><path d="M7.742,0C4.99,3.412,1.836,6.529,0,10.789-.047,8.356,4.484,2.047,7.742,0" transform="translate(212.167 117.03)" fill="#84735e"/><path d="M0,3.9A32.481,32.481,0,0,1,12.261,0L0,3.9" transform="translate(184.55 74.79)" fill="#84735e"/><path d="M0,6.867,9.049,0l.238.307Q4.833,3.742.373,7.171A3.181,3.181,0,0,1,0,6.867" transform="translate(190.655 62.169)" fill="#84735e"/><path d="M0,3.539A25.232,25.232,0,0,1,9.884,0L0,3.539" transform="translate(185.512 77.622)" fill="#84735e"/><path d="M0,3.057,7.19,0C6.462,1.1,2.781,2.724,0,3.057" transform="translate(184.745 96.493)" fill="#84735e"/></g></g></svg>